<svg xmlns="http://www.w3.org/2000/svg" fill="none" viewBox="0 0 49 18"><path fill="#fff" d="M25.707 10.65v3.465h-1.97V2.991h3.667c3.48 0 4.96 1.256 4.96 3.767 0 2.589-1.734 3.893-4.96 3.893h-1.697zm0-5.83v4.005h1.841c1.826 0 2.77-.605 2.77-2.115 0-1.365-.819-1.89-2.74-1.89h-1.871zM33.402 6.724c.52-.398 1.464-.714 2.82-.714 2.299 0 3.432.794 3.432 2.86v5.245h-1.732v-1.431c-.377.923-1.338 1.557-2.598 1.557-1.59 0-2.536-.904-2.536-2.461 0-1.813 1.306-2.323 3.244-2.323h1.779v-.35c0-1.129-.535-1.477-1.59-1.477-1.45 0-2.283.571-2.82 1.414v-2.32zm4.409 4.595v-.653h-1.558c-1.087 0-1.607.207-1.607.923 0 .605.44.986 1.26.986 1.245-.003 1.826-.717 1.905-1.256zM40.568 6.17h2.063l2.156 5.45 1.763-5.45h1.95l-3.149 8.788c-.692 1.908-1.402 2.336-2.44 2.336-.488 0-1.023-.143-1.26-.352v-1.73c.237.238.6.398.945.398.566 0 .991-.381 1.291-1.462L40.568 6.17zM5.717 6.734v2.44L8.924 11.2l7.672-5.706a8.416 8.416 0 0 0-1.01-1.69L8.924 8.76 5.717 6.734z"/><path fill="#fff" d="M15.395 8.823c.002.058.002.118.002.175 0 3.604-2.906 6.535-6.473 6.535-3.57 0-6.477-2.93-6.477-6.535s2.906-6.534 6.474-6.534c1.354 0 2.61.42 3.65 1.14l1.636-1.219A8.337 8.337 0 0 0 8.92.5C4.268.5.5 4.306.5 9s3.771 8.5 8.419 8.5c4.65 0 8.419-3.806 8.419-8.5 0-.52-.048-1.03-.136-1.523l-1.807 1.346z"/></svg>