<svg xmlns="http://www.w3.org/2000/svg" fill="none" viewBox="0 0 49 24"><g clip-path="url(#clip0_611_51417)"><path fill="#fff" d="M42.006 6.85v5.868h-2.104V8.602h-2.026v4.116h-2.103V6.85h6.233z"/><path fill="#fff" fill-rule="evenodd" d="M31.451 12.928c1.884 0 3.282-1.15 3.282-2.893 0-1.688-1.032-2.783-2.756-2.783-.796 0-1.453.279-1.948.76.119-.995.963-1.721 1.894-1.721l1.83-.004.915-1.741s-2.03.046-2.973.046c-2.155.037-3.611 1.988-3.611 4.358 0 2.76 1.42 3.978 3.367 3.978zm.012-4.133c.699 0 1.184.457 1.184 1.24 0 .704-.431 1.284-1.184 1.285-.72 0-1.206-.537-1.206-1.274 0-.782.485-1.251 1.206-1.251z" clip-rule="evenodd"/><path fill="#fff" d="M26.372 10.754s-.497.285-1.24.34c-.852.024-1.613-.512-1.613-1.466 0-.93.671-1.463 1.592-1.463.565 0 1.312.39 1.312.39s.547-.999.83-1.498c-.519-.392-1.21-.606-2.013-.606-2.027 0-3.597 1.316-3.597 3.166 0 1.873 1.476 3.159 3.597 3.12.593-.022 1.412-.23 1.91-.549l-.778-1.434z"/><path fill="#5B57A2" d="M.5 5.224l2.919 5.195v3.169L.503 18.773.5 5.224z"/><path fill="#D90751" d="M11.706 8.529l2.735-1.67 5.597-.005-8.332 5.083V8.529z"/><path fill="#FAB718" d="M11.69 5.193l.016 6.878-2.926-1.79V0l2.91 5.193z"/><path fill="#ED6F26" d="M20.037 6.854l-5.597.005-2.75-1.666L8.78 0l11.257 6.854z"/><path fill="#63B22F" d="M11.706 18.801v-3.337L8.78 13.708 8.782 24l2.924-5.199z"/><path fill="#1487C9" d="M14.434 17.147L3.418 10.42.5 5.224l19.526 11.917-5.592.006z"/><path fill="#017F36" d="M8.782 24l2.924-5.199 2.728-1.654 5.592-.006L8.782 24z"/><path fill="#984995" d="M.503 18.773l8.301-5.064-2.79-1.706-2.596 1.585-2.915 5.185z"/><path fill="#fff" d="M23.52 16.667a.605.605 0 0 1-.25.185.934.934 0 0 1-.656.008.709.709 0 0 1-.419-.401.834.834 0 0 1-.06-.317.79.79 0 0 1 .217-.548.765.765 0 0 1 .546-.226c.12 0 .232.015.333.045s.188.08.258.15l-.123.208a.58.58 0 0 0-.206-.12.727.727 0 0 0-.225-.035.517.517 0 0 0-.515.527.522.522 0 0 0 .16.385c.05.046.107.081.173.105a.584.584 0 0 0 .21.036.551.551 0 0 0 .244-.053.614.614 0 0 0 .186-.138l.127.19zm.348.213V15.4h.267v1.103l.869-1.104h.267v1.482h-.267v-1.104l-.869 1.104h-.267zm3.172-.213a.604.604 0 0 1-.25.185.933.933 0 0 1-.656.008.709.709 0 0 1-.42-.401.832.832 0 0 1-.058-.317.788.788 0 0 1 .216-.548.778.778 0 0 1 .24-.165.731.731 0 0 1 .306-.061c.12 0 .232.015.333.045.102.03.188.08.259.15l-.124.208a.576.576 0 0 0-.206-.12.726.726 0 0 0-.224-.035.508.508 0 0 0-.473.311.526.526 0 0 0-.043.216.524.524 0 0 0 .16.385.479.479 0 0 0 .173.105.625.625 0 0 0 .21.036.555.555 0 0 0 .244-.053.613.613 0 0 0 .186-.138l.127.19zm.137-1.268h1.37v.263h-.55v1.218h-.267v-1.218h-.551V15.4h-.002z"/><path fill="#fff" fill-rule="evenodd" d="M29.795 16.866a.696.696 0 0 0 .262-.147l-.081-.206a.626.626 0 0 1-.194.11.754.754 0 0 1-.267.045.56.56 0 0 1-.366-.117.451.451 0 0 1-.16-.328h1.156a.794.794 0 0 0-.039-.454.655.655 0 0 0-.372-.353.855.855 0 0 0-.603.012.694.694 0 0 0-.392.41.85.85 0 0 0-.052.302c0 .117.02.223.057.318a.702.702 0 0 0 .416.401 1.021 1.021 0 0 0 .636.007zm-.676-1.14a.474.474 0 0 1 .331-.112c.13 0 .235.035.311.105.077.07.117.167.124.29h-.913a.45.45 0 0 1 .147-.283z" clip-rule="evenodd"/><path fill="#fff" d="M30.524 15.4h.244l.578.733.547-.734h.237v1.482h-.267V15.8l-.52.687h-.01l-.541-.688v1.08h-.268V15.4z"/><path fill="#fff" fill-rule="evenodd" d="M32.857 15.404a.84.84 0 0 0-.23.098l.071.21c.061-.03.122-.055.183-.076a.7.7 0 0 1 .231-.032c.075 0 .134.012.18.035.045.022.079.055.103.095.023.04.039.09.047.148.008.058.012.121.012.19a.456.456 0 0 0-.183-.075.831.831 0 0 0-.417.012.495.495 0 0 0-.18.09.427.427 0 0 0-.163.349c0 .145.042.258.127.338.084.08.196.12.334.12a.605.605 0 0 0 .3-.065.604.604 0 0 0 .182-.15v.191h.25v-.908c0-.194-.042-.343-.128-.448-.085-.105-.235-.158-.448-.158-.095 0-.185.013-.27.036zm.447 1.2a.403.403 0 0 1-.239.063.296.296 0 0 1-.2-.063.219.219 0 0 1-.072-.17c0-.041.009-.076.027-.108a.245.245 0 0 1 .073-.076.32.32 0 0 1 .103-.045.565.565 0 0 1 .456.083v.188a.77.77 0 0 1-.148.128zm2.758-1.726a.41.41 0 0 0 .152-.128l-.146-.208a.293.293 0 0 1-.126.104.813.813 0 0 1-.156.043l-.05.009-.142.024c-.082.015-.161.04-.237.073a.75.75 0 0 0-.289.21.984.984 0 0 0-.17.298c-.039.111-.065.227-.078.344-.014.12-.02.235-.02.345 0 .141.018.27.055.384.037.115.09.212.159.29.07.08.152.14.25.183a.812.812 0 0 0 .331.065.756.756 0 0 0 .715-.468.745.745 0 0 0 .058-.293.896.896 0 0 0-.05-.303.617.617 0 0 0-.36-.381.77.77 0 0 0-.478-.028.723.723 0 0 0-.309.18.49.49 0 0 0-.098.141h-.007c.005-.068.014-.138.029-.21a1.03 1.03 0 0 1 .066-.204.713.713 0 0 1 .111-.177.506.506 0 0 1 .176-.124.933.933 0 0 1 .232-.075l.053-.01.151-.029a.823.823 0 0 0 .178-.054zm-.94 1.423a.825.825 0 0 1-.037-.26.496.496 0 0 1 .17-.261c.1-.077.223-.119.349-.118.157 0 .275.049.358.144a.533.533 0 0 1 .123.36.531.531 0 0 1-.037.197.47.47 0 0 1-.257.265.493.493 0 0 1-.566-.13.625.625 0 0 1-.103-.197zm3.294-.902h-.267v1.482h.267v-1.482zm-1.663 0h.267v.445h.247c.116 0 .21.015.287.043a.49.49 0 0 1 .182.113.394.394 0 0 1 .097.163.66.66 0 0 1 .029.192c0 .066-.01.13-.032.193a.436.436 0 0 1-.104.168.497.497 0 0 1-.192.12.86.86 0 0 1-.298.046h-.485V15.4h.002zm.267.693v.542h.194c.134 0 .229-.023.282-.07.055-.046.082-.113.082-.201 0-.09-.029-.158-.083-.205-.056-.046-.149-.07-.277-.07h-.198v.004z" clip-rule="evenodd"/><path fill="#fff" d="M40.182 16.667a.605.605 0 0 1-.25.185.932.932 0 0 1-.656.008.711.711 0 0 1-.42-.401.837.837 0 0 1-.058-.317.786.786 0 0 1 .216-.548.777.777 0 0 1 .24-.165.735.735 0 0 1 .306-.061c.12 0 .232.015.333.044.102.03.188.08.258.15l-.123.209a.58.58 0 0 0-.206-.12.73.73 0 0 0-.225-.035.52.52 0 0 0-.473.31.525.525 0 0 0-.042.217.522.522 0 0 0 .16.384.477.477 0 0 0 .173.105.626.626 0 0 0 .21.037.557.557 0 0 0 .244-.053.61.61 0 0 0 .186-.138l.127.19zm.137-1.268h1.37v.263h-.55v1.218h-.268v-1.218h-.55V15.4h-.002z"/><path fill="#fff" fill-rule="evenodd" d="M42.247 15.4h-.267v2.14h.267v-.728c.054.035.118.06.192.077.075.017.152.025.232.025a.766.766 0 0 0 .568-.23.73.73 0 0 0 .158-.253.88.88 0 0 0 .056-.314.91.91 0 0 0-.049-.303.704.704 0 0 0-.138-.236.603.603 0 0 0-.218-.155.704.704 0 0 0-.29-.057.738.738 0 0 0-.295.06.571.571 0 0 0-.216.148V15.4zm.186.274a.525.525 0 0 1 .248-.06.56.56 0 0 1 .21.037c.06.025.111.06.154.106a.44.44 0 0 1 .094.163.645.645 0 0 1-.005.424.478.478 0 0 1-.267.282.54.54 0 0 1-.218.041.667.667 0 0 1-.402-.115v-.733a.61.61 0 0 1 .186-.145zm3.069-.275h-.268v1.482h.268v-1.482zm-1.665 0h.267v.445h.247a.83.83 0 0 1 .287.043.492.492 0 0 1 .183.113.392.392 0 0 1 .096.163.653.653 0 0 1 .029.192c0 .066-.01.13-.032.193a.438.438 0 0 1-.104.168.497.497 0 0 1-.192.12.86.86 0 0 1-.298.046h-.485V15.4h.002zm.269.693v.542h.194c.134 0 .228-.023.282-.07.054-.047.081-.113.081-.201 0-.09-.028-.158-.082-.205-.056-.047-.15-.07-.277-.07h-.198v.003z" clip-rule="evenodd"/><path fill="#fff" d="M46.783 16.113l.571.768h-.327l-.442-.6-.447.6h-.311l.567-.755-.534-.727h.328l.408.56.414-.56h.31l-.537.714zm-23.46 2.598h-.82v1.235h-.268v-1.481h1.354v1.48h-.267v-1.234zm1.782.017h-.527l-.017.25a2.982 2.982 0 0 1-.08.51.935.935 0 0 1-.13.3.373.373 0 0 1-.177.141.617.617 0 0 1-.218.037l-.02-.257a.218.218 0 0 0 .1-.021.277.277 0 0 0 .109-.108.93.93 0 0 0 .096-.24c.029-.105.048-.241.058-.413l.027-.46h1.046v1.48h-.267v-1.22z"/><path fill="#fff" fill-rule="evenodd" d="M26.092 18.468a.838.838 0 0 0-.23.098l.07.21c.062-.03.122-.055.183-.076a.707.707 0 0 1 .232-.032c.074 0 .133.012.179.035.046.022.08.055.103.095.023.04.039.09.047.148.009.058.012.121.012.19a.458.458 0 0 0-.182-.075 1.046 1.046 0 0 0-.193-.02.822.822 0 0 0-.225.031.495.495 0 0 0-.18.09.429.429 0 0 0-.163.35c0 .144.042.258.127.338.084.08.196.12.334.12a.603.603 0 0 0 .301-.066.603.603 0 0 0 .181-.15v.192h.25v-.909c0-.193-.042-.342-.128-.447-.085-.105-.235-.158-.448-.158-.091 0-.182.012-.27.036zm.448 1.2a.4.4 0 0 1-.239.063.292.292 0 0 1-.2-.063.219.219 0 0 1-.072-.17c0-.041.009-.076.027-.108a.244.244 0 0 1 .073-.076.319.319 0 0 1 .103-.045.567.567 0 0 1 .456.083v.188a.768.768 0 0 1-.148.128z" clip-rule="evenodd"/><path fill="#fff" d="M27.2 18.465h1.37v.263h-.55v1.218h-.267v-1.218h-.551v-.263H27.2z"/><path fill="#fff" fill-rule="evenodd" d="M29.819 19.931a.696.696 0 0 0 .262-.146L30 19.578a.626.626 0 0 1-.195.11.753.753 0 0 1-.267.045.56.56 0 0 1-.365-.116.45.45 0 0 1-.16-.328h1.156a.81.81 0 0 0-.04-.455.652.652 0 0 0-.371-.352.854.854 0 0 0-.603.012.7.7 0 0 0-.392.41.854.854 0 0 0-.053.301c0 .117.02.223.057.318a.698.698 0 0 0 .416.401 1.017 1.017 0 0 0 .635.007zm-.678-1.142a.474.474 0 0 1 .331-.111.45.45 0 0 1 .311.105c.076.07.117.166.124.29h-.913a.451.451 0 0 1 .147-.284zm1.175-.324h.338l.515.714-.55.767h-.329l.578-.767-.552-.714zm.919 0h.267v1.481h-.267v-1.481zm1.222 1.481l-.588-.767.549-.714h-.331l-.52.714.559.767h.33zm1.22-.015a.696.696 0 0 0 .262-.146l-.081-.207a.626.626 0 0 1-.194.11.754.754 0 0 1-.267.045.56.56 0 0 1-.366-.116.45.45 0 0 1-.16-.328h1.156a.799.799 0 0 0-.039-.455.655.655 0 0 0-.372-.352.856.856 0 0 0-.603.012.693.693 0 0 0-.392.41.85.85 0 0 0-.053.301c0 .117.02.223.058.318a.7.7 0 0 0 .416.401 1.018 1.018 0 0 0 .636.007zM33 18.789a.475.475 0 0 1 .332-.111c.13 0 .235.037.31.105.077.07.117.166.124.29h-.913a.45.45 0 0 1 .148-.284zm2.128-.822c-.157 0-.243-.086-.257-.26h-.251a.5.5 0 0 0 .033.184.393.393 0 0 0 .097.145c.042.04.096.071.159.096a.585.585 0 0 0 .218.037.533.533 0 0 0 .36-.133.42.42 0 0 0 .1-.145.465.465 0 0 0 .035-.183h-.25c-.012.173-.095.26-.244.26zm-.721.498v1.481h.267l.868-1.103v1.103h.267v-1.481h-.267l-.868 1.103v-1.103h-.267z" clip-rule="evenodd"/></g><defs><clipPath id="clip0_611_51417"><path fill="#fff" d="M0 0h48v24H0z" transform="translate(.5)"/></clipPath></defs></svg>