<svg xmlns="http://www.w3.org/2000/svg" fill="none" viewBox="0 0 60 40"><mask style="mask-type:alpha" id="a" width="44" height="30" x="8" y="5" maskUnits="userSpaceOnUse"><path fill="#016FD0" d="M8.571 5.714h42.857v28.571H8.571z"/></mask><g mask="url(#a)"><path fill="#016FD0" d="M8.571 5.714h42.857v28.571H8.571z"/><path fill="#fff" d="M16.908 27.572v-6.555h7.139l.766.971.79-.97h25.913v6.102s-.677.446-1.461.452H35.707l-.864-1.033v1.033h-2.83v-1.764s-.386.247-1.222.247h-.963v1.517h-4.285l-.765-.991-.776.991h-7.094zM8.571 16.077l1.61-3.649h2.784l.914 2.044v-2.044h3.46l.545 1.477.527-1.477h15.536v.743s.816-.743 2.158-.743l5.041.017.898 2.017v-2.034h2.896l.797 1.159v-1.159h2.923v6.555h-2.923l-.764-1.162v1.162h-4.255l-.428-1.033h-1.143l-.422 1.033H35.84a2.89 2.89 0 0 1-1.893-.727v.727h-4.351l-.864-1.033v1.033h-16.18l-.427-1.033h-1.14l-.425 1.033H8.571v-2.906z"/><path fill="#016FD0" d="M10.75 13.236l-2.172 4.908h1.414l.4-.983h2.33l.398.983h1.445l-2.17-4.908H10.75zm.803 1.142l.71 1.718h-1.422l.712-1.718zM14.715 18.143v-4.908l2.009.007 1.168 3.164 1.14-3.171h1.993v4.908h-1.262v-3.617l-1.338 3.617H17.32l-1.342-3.617v3.617h-1.262zM21.89 18.143v-4.908h4.119v1.098h-2.844v.84h2.777v1.032h-2.777v.872h2.844v1.066H21.89zM26.738 13.236v4.908H28V16.4h.532l1.513 1.744h1.542l-1.66-1.808c.681-.056 1.384-.625 1.384-1.508 0-1.033-.834-1.592-1.764-1.592h-2.809zM28 14.334h1.443c.346 0 .598.263.598.516 0 .327-.326.517-.58.517h-1.46v-1.033zM33.117 18.143h-1.289v-4.908h1.29v4.908zM36.172 18.143h-.278c-1.346 0-2.163-1.031-2.163-2.434 0-1.438.808-2.474 2.508-2.474h1.395v1.162h-1.446c-.69 0-1.178.524-1.178 1.324 0 .95.558 1.35 1.362 1.35h.332l-.532 1.072zM38.92 13.236l-2.172 4.908h1.414l.4-.983h2.33l.398.983h1.445l-2.17-4.908H38.92zm.803 1.142l.71 1.718h-1.422l.712-1.718zM42.881 18.143v-4.908h1.605l2.049 3.083v-3.083h1.262v4.908h-1.553l-2.1-3.165v3.165H42.88zM17.772 26.733v-4.908h4.118v1.098h-2.843v.84h2.777v1.032h-2.777v.872h2.843v1.066h-4.118zM37.951 26.733v-4.908h4.119v1.098h-2.843v.84h2.763v1.032h-2.763v.872h2.843v1.066H37.95zM22.05 26.733l2.006-2.424-2.053-2.484h1.59l1.223 1.535 1.226-1.535h1.528l-2.026 2.454 2.009 2.454h-1.59l-1.187-1.512-1.158 1.512H22.05zM27.701 21.825v4.909h1.296v-1.55h1.328c1.125 0 1.977-.58 1.977-1.708 0-.934-.669-1.65-1.813-1.65h-2.788zm1.296 1.11h1.399c.363 0 .623.217.623.565 0 .328-.258.565-.627.565h-1.395v-1.13zM32.85 21.825v4.908h1.263v-1.744h.531l1.513 1.744H37.7l-1.661-1.808c.682-.056 1.385-.625 1.385-1.508 0-1.033-.834-1.592-1.765-1.592H32.85zm1.263 1.098h1.442c.346 0 .598.263.598.516 0 .326-.326.517-.579.517h-1.461v-1.033zM42.656 26.733v-1.066h2.525c.374 0 .536-.196.536-.411 0-.207-.161-.415-.536-.415H44.04c-.992 0-1.545-.588-1.545-1.47 0-.787.506-1.546 1.98-1.546h2.458l-.531 1.104h-2.126c-.406 0-.531.207-.531.405 0 .204.155.428.465.428h1.196c1.106 0 1.586.61 1.586 1.409 0 .859-.535 1.562-1.647 1.562h-2.69zM47.287 26.733v-1.066h2.526c.373 0 .535-.196.535-.411 0-.207-.161-.415-.535-.415H48.67c-.992 0-1.544-.588-1.544-1.47 0-.787.505-1.546 1.98-1.546h2.407l-.48 1.104h-2.126c-.407 0-.532.207-.532.405 0 .204.155.428.465.428h1.196c1.106 0 1.586.61 1.586 1.409 0 .859-.535 1.562-1.646 1.562h-2.69z"/></g></svg>