<svg xmlns="http://www.w3.org/2000/svg" fill="none" viewBox="0 0 49 48"><path fill="#7EA3C1" fill-rule="evenodd" d="M33.181 5.433a13.594 13.594 0 0 0-16.175 8.503c.814-.136 1.65-.206 2.503-.206 8.359 0 15.135 6.776 15.135 15.135 0 .852-.07 1.687-.206 2.5a13.595 13.595 0 0 0-1.257-25.932zM19.476 8.256a14.595 14.595 0 0 0-3.606 5.914C9.268 15.8 4.374 21.76 4.374 28.865 4.374 37.224 11.15 44 19.509 44c7.105 0 13.067-4.896 14.695-11.499A14.595 14.595 0 1 0 19.476 8.256zM19.509 43c7.806 0 14.135-6.328 14.135-14.135 0-7.807-6.329-14.135-14.135-14.135-7.807 0-14.135 6.328-14.135 14.135C5.374 36.672 11.702 43 19.509 43zm5.463-14.315c-.728-.639-1.787-.958-3.175-.958h-6.485v-3.209h10.08V23.04h-11.76V34.8h8.165c1.388 0 2.447-.314 3.175-.94.728-.64 1.092-1.502 1.092-2.588s-.364-1.949-1.092-2.587zm-1.294 4.065c-.437.381-1.064.572-1.881.572h-6.435v-4.2h6.435c.817 0 1.444.19 1.881.57.437.382.655.891.655 1.53 0 .638-.218 1.148-.655 1.528z" clip-rule="evenodd"/></svg>