<svg xmlns="http://www.w3.org/2000/svg" fill="none" viewBox="0 0 18 18"><path stroke="#1F2020" stroke-linecap="round" stroke-linejoin="round" d="M16.5 7.5h-15m6.75 3H4.5m-3-4.35v5.7c0 .84 0 1.26.163 1.581a1.5 1.5 0 0 0 .656.655c.32.164.74.164 1.581.164h10.2c.84 0 1.26 0 1.581-.164a1.5 1.5 0 0 0 .656-.655c.163-.32.163-.74.163-1.581v-5.7c0-.84 0-1.26-.163-1.581a1.5 1.5 0 0 0-.656-.656c-.32-.163-.74-.163-1.581-.163H3.9c-.84 0-1.26 0-1.581.163a1.5 1.5 0 0 0-.656.656c-.163.32-.163.74-.163 1.581z"/></svg>