<svg xmlns="http://www.w3.org/2000/svg" fill="none" viewBox="0 0 40 40"><path fill="url(#paint0_linear_1390_78037)" d="M34.772 0H5.228A5.228 5.228 0 0 0 0 5.228v29.544A5.228 5.228 0 0 0 5.228 40h29.544A5.228 5.228 0 0 0 40 34.772V5.228A5.228 5.228 0 0 0 34.772 0z"/><path fill="#fff" stroke="#fff" stroke-miterlimit="10" stroke-width=".71" d="M19.796 29.566l-3.501-3.5a.289.289 0 0 0-.204-.085H2.014a.288.288 0 1 1 0-.575h14.312a.286.286 0 0 1 .204.084l3.26 3.26a.287.287 0 0 0 .409 0l3.26-3.26a.289.289 0 0 1 .204-.084H37.98a.287.287 0 0 1 .288.288v0a.288.288 0 0 1-.288.287H23.909a.286.286 0 0 0-.204.084l-3.501 3.5a.287.287 0 0 1-.408 0v0z"/><path fill="#fff" stroke="#fff" stroke-miterlimit="10" stroke-width=".51" d="M19.813 23.663l-3.182-3.192a.262.262 0 0 0-.183-.079h-12.8a.261.261 0 1 1 0-.523h13.015c.069.001.134.03.183.079l2.967 2.967a.262.262 0 0 0 .371 0l2.967-2.967a.261.261 0 0 1 .183-.079h13.02a.262.262 0 1 1 0 .523h-12.8a.262.262 0 0 0-.183.079l-3.187 3.192a.263.263 0 0 1-.371 0z"/><path fill="#fff" stroke="#fff" stroke-miterlimit="10" stroke-width=".36" d="M19.832 18.236l-2.868-2.867a.234.234 0 0 0-.167-.068H5.284a.234.234 0 0 1-.235-.236.235.235 0 0 1 .235-.235h11.732a.236.236 0 0 1 .168.068l2.669 2.669a.237.237 0 0 0 .334 0l2.67-2.67a.236.236 0 0 1 .167-.067h11.695a.235.235 0 0 1 .236.235v0a.236.236 0 0 1-.236.236H23.207a.234.234 0 0 0-.168.068l-2.883 2.867a.235.235 0 0 1-.324 0v0z"/><path fill="#fff" stroke="#fff" stroke-miterlimit="10" stroke-width=".2" d="M19.848 13.323l-2.549-2.549a.21.21 0 0 0-.146-.062H6.906a.21.21 0 0 1-.21-.21v0a.21.21 0 0 1 .21-.209h10.418c.055 0 .108.023.147.063l2.375 2.376a.207.207 0 0 0 .23.046.209.209 0 0 0 .069-.046l2.375-2.376a.21.21 0 0 1 .147-.063h10.424a.209.209 0 0 1 .21.21v0a.21.21 0 0 1-.21.209H22.846a.21.21 0 0 0-.147.062l-2.543 2.549a.21.21 0 0 1-.308 0v0z"/><defs><linearGradient id="paint0_linear_1390_78037" x1="20" x2="20" y1="0" y2="40" gradientUnits="userSpaceOnUse"><stop stop-color="#33C5F3"/><stop offset="1" stop-color="#4269B1"/></linearGradient></defs></svg>