<svg xmlns="http://www.w3.org/2000/svg" fill="none" viewBox="0 0 49 48"><path fill="#7EA3C1" d="M35.773 40.151a.5.5 0 0 0 .707 0l3.182-3.182a.5.5 0 1 0-.707-.707l-2.828 2.829-2.829-2.829a.5.5 0 0 0-.707.707l3.182 3.182zm.853-9.95a.5.5 0 1 0-1 0h1zm0 9.597V30.2h-1v9.598h1z"/><path fill="#7EA3C1" fill-rule="evenodd" d="M30.133 39.908A16.962 16.962 0 0 1 24.125 41c-9.389 0-17-7.611-17-17s7.611-17 17-17 17 7.611 17 17c0 2.116-.386 4.141-1.093 6.01.269.263.516.548.739.852A17.946 17.946 0 0 0 42.125 24c0-9.941-8.059-18-18-18s-18 8.059-18 18 8.059 18 18 18c2.43 0 4.746-.481 6.86-1.354a7.025 7.025 0 0 1-.852-.738z" clip-rule="evenodd"/><path fill="#7EA3C1" d="M26.413 22.927c1.389 0 2.447.32 3.175.958.728.638 1.092 1.5 1.092 2.587 0 1.086-.364 1.949-1.092 2.587-.728.627-1.786.941-3.175.941h-8.165V18.24h11.76v1.478h-10.08v3.21h6.485zm0 5.595c.817 0 1.445-.19 1.881-.572.437-.38.656-.89.656-1.528 0-.639-.219-1.148-.656-1.53-.436-.38-1.064-.57-1.881-.57h-6.435v4.2h6.435z"/></svg>