<svg xmlns="http://www.w3.org/2000/svg" fill="none" viewBox="0 0 24 24"><path stroke="#1F2020" stroke-linecap="round" stroke-linejoin="round" d="M12 12c-2.122 0-4.157.83-5.657 2.306C4.843 15.784 4 17.912 4 20c0 .552.434 1 .97 1h14.06c.536 0 .97-.448.97-1 0-2.089-.843-4.217-2.343-5.694A8.065 8.065 0 0 0 12 12zm0 0a4.609 4.609 0 0 0 3.232-1.318 4.465 4.465 0 0 0 1.34-3.182 4.465 4.465 0 0 0-1.34-3.182A4.609 4.609 0 0 0 12 3a4.609 4.609 0 0 0-3.232 1.318A4.465 4.465 0 0 0 7.428 7.5c0 1.193.482 2.338 1.34 3.182A4.609 4.609 0 0 0 12 12z"/></svg>