<svg xmlns="http://www.w3.org/2000/svg" fill="none" viewBox="0 0 144 48"><path stroke="#1F2020" stroke-linecap="round" stroke-linejoin="round" d="M24 44c11.046 0 20-8.954 20-20S35.046 4 24 4 4 12.954 4 24s8.954 20 20 20z"/><path stroke="#1F2020" stroke-linecap="round" stroke-linejoin="round" d="M23.993 18.136c-2-2.338-5.333-2.966-7.838-.826s-2.858 5.719-.89 8.25c1.26 1.622 4.486 4.629 6.643 6.58.717.65 1.076.974 1.505 1.104.37.112.791.112 1.16 0 .43-.13.788-.455 1.505-1.103 2.157-1.952 5.384-4.96 6.644-6.58 1.967-2.532 1.658-6.133-.89-8.251-2.549-2.118-5.84-1.512-7.839.826z" clip-rule="evenodd"/><path stroke="#1F2020" stroke-linecap="round" stroke-linejoin="round" d="M72 44c11.046 0 20-8.954 20-20S83.046 4 72 4s-20 8.954-20 20 8.954 20 20 20z"/><path stroke="#1F2020" stroke-linecap="round" stroke-linejoin="round" d="M71.993 18.136c-2-2.338-5.333-2.966-7.838-.826s-2.858 5.719-.89 8.25c1.26 1.622 4.486 4.629 6.644 6.58.716.65 1.075.974 1.504 1.104.37.112.791.112 1.16 0 .43-.13.788-.455 1.505-1.103 2.157-1.952 5.384-4.96 6.644-6.58 1.967-2.532 1.658-6.133-.89-8.251-2.548-2.118-5.84-1.512-7.839.826z" clip-rule="evenodd"/><path stroke="#1F2020" stroke-linecap="round" stroke-linejoin="round" d="M120 44c11.046 0 20-8.954 20-20s-8.954-20-20-20-20 8.954-20 20 8.954 20 20 20z"/><path stroke="#1F2020" stroke-linecap="round" stroke-linejoin="round" d="M119.993 18.136c-1.999-2.338-5.333-2.966-7.838-.826s-2.858 5.719-.891 8.25c1.26 1.622 4.487 4.629 6.644 6.58.717.65 1.076.974 1.505 1.104.369.112.791.112 1.16 0 .429-.13.788-.455 1.505-1.103 2.157-1.952 5.384-4.96 6.644-6.58 1.967-2.532 1.658-6.133-.89-8.251-2.549-2.118-5.839-1.512-7.839.826z" clip-rule="evenodd"/></svg>