<svg xmlns="http://www.w3.org/2000/svg" fill="none" viewBox="0 0 19 18"><path stroke="#1F2020" stroke-linecap="round" stroke-linejoin="round" d="M11 5.25h1.753c.183 0 .275 0 .361.02a.75.75 0 0 1 .217.09c.076.047.14.112.27.241l3.047 3.048c.13.13.195.194.242.27.04.067.07.14.09.217.02.086.02.178.02.361v2.128c0 .35 0 .524-.057.662a.75.75 0 0 1-.406.406c-.138.057-.313.057-.662.057m-3.75 0H11m0 0V5.4c0-.84 0-1.26-.164-1.581a1.5 1.5 0 0 0-.655-.656C9.861 3 9.441 3 8.6 3H4.4c-.84 0-1.26 0-1.581.163a1.5 1.5 0 0 0-.656.656C2 4.139 2 4.559 2 5.4v5.85a1.5 1.5 0 0 0 1.5 1.5m7.5 0H8m0 0a2.25 2.25 0 0 1-4.5 0m4.5 0a2.25 2.25 0 0 0-4.5 0m12.375.375a1.875 1.875 0 1 1-3.75 0 1.875 1.875 0 0 1 3.75 0z"/></svg>