<svg xmlns="http://www.w3.org/2000/svg" fill="none" viewBox="0 0 18 18"><path stroke="#1F2020" stroke-linecap="round" stroke-linejoin="round" d="M11.25 1.5v1.05c0 .42 0 .63-.082.79a.75.75 0 0 1-.327.328c-.16.082-.371.082-.791.082h-2.1c-.42 0-.63 0-.79-.082a.75.75 0 0 1-.328-.328c-.082-.16-.082-.37-.082-.79V1.5m-.6 15h5.7c.84 0 1.26 0 1.581-.163a1.5 1.5 0 0 0 .655-.656c.164-.32.164-.74.164-1.581V3.9c0-.84 0-1.26-.164-1.581a1.5 1.5 0 0 0-.655-.656c-.32-.163-.74-.163-1.581-.163h-5.7c-.84 0-1.26 0-1.581.163a1.5 1.5 0 0 0-.656.656c-.163.32-.163.74-.163 1.581v10.2c0 .84 0 1.26.163 1.581a1.5 1.5 0 0 0 .656.656c.32.163.74.163 1.581.163z"/></svg>