<svg xmlns="http://www.w3.org/2000/svg" fill="none" viewBox="0 0 16 16"><path stroke="#A0BCD2" stroke-linecap="round" stroke-linejoin="round" d="M9.823 5.701L8.277 2.186a.3.3 0 0 0-.554 0L6.177 5.701a.307.307 0 0 1-.242.184l-3.665.456c-.259.032-.363.367-.172.553l2.71 2.628a.33.33 0 0 1 .093.298l-.72 3.797c-.05.268.221.475.449.341l3.22-1.89a.293.293 0 0 1 .3 0l3.22 1.89c.228.134.5-.073.449-.341l-.72-3.797a.33.33 0 0 1 .092-.298l2.71-2.628c.192-.186.088-.52-.17-.553l-3.666-.456a.307.307 0 0 1-.242-.184z"/></svg>