<svg xmlns="http://www.w3.org/2000/svg" fill="none" viewBox="0 0 172 40"><g clip-path="url(#clip0_1390_78047)"><path fill="#5DC3FD" d="M5.436 8.125v1.158l15.067 8.491c.606.342 1.11.837 1.46 1.434.35.598.534 1.277.534 1.969v14.647l1.096.617a1.578 1.578 0 0 0 2.138-.576c.137-.237.21-.505.21-.778V19.581a4.4 4.4 0 0 0-.603-2.232 4.446 4.446 0 0 0-1.653-1.627L7.775 6.757a1.58 1.58 0 0 0-2.135.59 1.548 1.548 0 0 0-.204.778z"/><path fill="#FEB321" d="M10.934 5.027v1.158l15.06 8.491a3.93 3.93 0 0 1 1.461 1.434 3.89 3.89 0 0 1 .536 1.969v14.647l1.096.617a1.579 1.579 0 0 0 2.135-.578c.137-.236.209-.503.21-.776V16.483a4.394 4.394 0 0 0-.602-2.232 4.436 4.436 0 0 0-1.654-1.627L13.266 3.66a1.58 1.58 0 0 0-2.128.592 1.547 1.547 0 0 0-.204.776z"/><path fill="#F3564C" d="M16.432 1.927v1.157l15.063 8.492c.607.341 1.11.836 1.46 1.434.35.598.535 1.277.534 1.968v14.648l1.1.617a1.579 1.579 0 0 0 2.135-.578c.136-.236.209-.504.209-.776V13.383a4.4 4.4 0 0 0-.602-2.232 4.445 4.445 0 0 0-1.654-1.627L18.768.56a1.58 1.58 0 0 0-2.132.59 1.547 1.547 0 0 0-.204.778z"/><path fill="#9D4EE2" fill-rule="evenodd" d="M15.77 30.326a4.582 4.582 0 0 0 1.723 1.611l3.008 1.701v4.469a1.547 1.547 0 0 1-.78 1.348 1.58 1.58 0 0 1-1.567.006L0 29.226V8.469l18.504 10.434c.606.342 1.11.837 1.46 1.434.352.598.537 1.277.537 1.969v4.672l-2.874-1.62c-1.177-.67-2.542.371-2.542 1.753v.968c.027.796.263 1.57.686 2.247zm1.173-.837c.207.334.493.613.831.814.662.372 1.199-.077 1.199-.768v-.617a2.464 2.464 0 0 0-1.198-1.916c-.662-.368-1.195.095-1.195.797v.589c.03.39.155.768.363 1.101z" clip-rule="evenodd"/><path fill="#222835" d="M69.983 29.752l-7.672-10.09 7.247-9.528h-3.255l-6.285 8.267H56.11v-8.267h-2.69v19.618h2.69v-8.828h3.624l6.71 8.828h3.538z"/><path fill="#222835" d="M77.429 30.032c4.388 0 7.587-3.363 7.587-7.287 0-3.923-3.2-7.286-7.587-7.286-4.388 0-7.587 3.363-7.587 7.286 0 3.924 3.199 7.287 7.587 7.287zm0-2.382c-2.831 0-4.954-1.962-4.954-4.905 0-2.942 2.123-4.904 4.954-4.904 2.83 0 4.954 1.962 4.954 4.904 0 2.943-2.123 4.905-4.954 4.905zM104.406 27.37h-5.945V15.74h-2.548v11.63h-5.945V15.74H87.42v14.012h19.534V15.739h-2.548v11.63zM121.776 23.866c-.482 2.298-2.379 3.784-4.842 3.784-1.67 0-3.085-.673-3.991-1.85l11.126-5.605c-1.048-2.718-3.709-4.736-7.135-4.736-4.387 0-7.586 3.363-7.586 7.286 0 3.924 3.199 7.287 7.586 7.287 3.964 0 6.965-2.747 7.503-6.166h-2.661zm-4.842-6.025c1.501 0 2.803.532 3.681 1.485l-8.578 4.316a9.056 9.056 0 0 1-.057-.897c0-2.942 2.124-4.904 4.954-4.904zM126.257 27.37c1.302 0 2.01-.701 2.01-2.663V15.74h11.041v14.013h-2.548v-11.63h-6.228v6.585c0 3.924-1.161 5.045-4.275 5.045h-.821v-2.383h.821zM145.806 12.796c.793 0 1.415-.616 1.415-1.4 0-.786-.622-1.402-1.415-1.402s-1.415.616-1.415 1.401.622 1.401 1.415 1.401zm5.945 0c.793 0 1.415-.616 1.415-1.4 0-.786-.622-1.402-1.415-1.402s-1.415.616-1.415 1.401.622 1.401 1.415 1.401zm2.095 11.07c-.481 2.298-2.378 3.784-4.841 3.784-1.67 0-3.086-.673-3.992-1.85l11.126-5.605c-1.047-2.718-3.708-4.736-7.134-4.736-4.388 0-7.587 3.363-7.587 7.286 0 3.924 3.199 7.287 7.587 7.287 3.963 0 6.964-2.747 7.502-6.166h-2.661zm-4.841-6.025c1.5 0 2.803.532 3.68 1.485l-8.578 4.316a9.068 9.068 0 0 1-.056-.897c0-2.942 2.123-4.904 4.954-4.904zM171.942 29.752l-5.378-7.287 4.954-6.726h-2.831l-4.133 5.605h-3.369V15.74h-2.548v14.013h2.548v-6.026h3.199l4.444 6.026h3.114z"/></g><defs><clipPath id="clip0_1390_78047"><path fill="#fff" d="M0 0h172v40H0z"/></clipPath></defs></svg>