<svg xmlns="http://www.w3.org/2000/svg" fill="none" viewBox="0 0 18 18"><path stroke="#1F2020" stroke-linecap="round" stroke-linejoin="round" d="M6 6V3.9c0-.84 0-1.26.163-1.581a1.5 1.5 0 0 1 .656-.656c.32-.163.74-.163 1.581-.163h5.7c.84 0 1.26 0 1.581.163a1.5 1.5 0 0 1 .656.656c.163.32.163.74.163 1.581v5.7c0 .84 0 1.26-.163 1.581a1.5 1.5 0 0 1-.656.655c-.32.164-.74.164-1.581.164H12m-8.1 4.5h5.7c.84 0 1.26 0 1.581-.163a1.5 1.5 0 0 0 .655-.656c.164-.32.164-.74.164-1.581V8.4c0-.84 0-1.26-.164-1.581a1.5 1.5 0 0 0-.655-.656C10.861 6 10.441 6 9.6 6H3.9c-.84 0-1.26 0-1.581.163a1.5 1.5 0 0 0-.656.656c-.163.32-.163.74-.163 1.581v5.7c0 .84 0 1.26.163 1.581a1.5 1.5 0 0 0 .656.656c.32.163.74.163 1.581.163z"/></svg>