<svg xmlns="http://www.w3.org/2000/svg" fill="none" viewBox="0 0 48 48"><path stroke="#1F2020" stroke-linecap="round" stroke-linejoin="round" d="M40 20v-6.4c0-3.36 0-5.04-.654-6.324a6 6 0 0 0-2.622-2.622C35.44 4 33.76 4 30.4 4H17.6c-3.36 0-5.04 0-6.324.654a6 6 0 0 0-2.622 2.622C8 8.56 8 10.24 8 13.6v20.8c0 3.36 0 5.04.654 6.324a6 6 0 0 0 2.622 2.622C12.56 44 14.24 44 17.6 44H24m1-22h-9m2 8h-2m16-16H16m17.995 15.661c-1.6-1.818-4.267-2.307-6.271-.642-2.004 1.665-2.286 4.448-.713 6.417C28.585 37.405 33.995 42 33.995 42s5.409-4.595 6.983-6.564c1.573-1.969 1.326-4.77-.713-6.417-2.038-1.647-4.671-1.176-6.27.642z"/></svg>