<svg width="150" height="40" viewBox="0 0 150 40" fill="none" xmlns="http://www.w3.org/2000/svg">
<g clip-path="url(#clip0_3718_37329)" filter="url(#filter0_i_3718_37329)">
<mask id="mask0_3718_37329" style="mask-type:luminance" maskUnits="userSpaceOnUse" x="0" y="0" width="149" height="40">
<path d="M148.993 0H0.5V40H148.993V0Z" fill="white"/>
</mask>
<g mask="url(#mask0_3718_37329)">
<path d="M48.1655 -3.03412H44.7969V30.0527H48.1655V-3.03412Z" fill="#C8C8C8"/>
<path d="M56.6069 -3.03412H53.2383V30.0527H56.6069V-3.03412Z" fill="#C8C8C8"/>
<path d="M145.184 12.2014V23.1864C145.184 24.3423 144.726 25.4517 143.909 26.2742C143.093 27.0967 141.983 27.5659 140.821 27.5804C139.649 27.5804 138.526 27.1174 137.697 26.2934C136.868 25.4694 136.403 24.3517 136.403 23.1864V12.2014H133.09V23.1864C133.09 25.2258 133.904 27.1816 135.354 28.6237C136.804 30.0658 138.77 30.8759 140.821 30.8759C142.862 30.8614 144.814 30.0449 146.252 28.6044C147.69 27.1639 148.497 25.2163 148.497 23.1864V12.2014H145.184Z" fill="#C8C8C8"/>
<path d="M9.93183 11.8847C7.69485 11.8721 5.52644 12.6508 3.81336 14.0816V-3.07692H0.5V30.0099H3.81336V28.5269C5.52644 29.9577 7.69485 30.7364 9.93183 30.7239C11.1806 30.721 12.4166 30.4735 13.5693 29.9955C14.7219 29.5176 15.7687 28.8184 16.6497 27.9382C17.5306 27.0578 18.2286 26.0136 18.7038 24.865C19.179 23.7164 19.4221 22.4859 19.4192 21.2438C19.3959 18.7555 18.3864 16.3767 16.6101 14.6243C14.8337 12.8719 12.4338 11.8874 9.93183 11.8847ZM9.93183 27.5053C8.29527 27.5024 6.72674 26.8545 5.56954 25.7035C4.41234 24.5526 3.761 22.9924 3.75808 21.3647C3.761 19.737 4.41234 18.1768 5.56954 17.0258C6.72674 15.8749 8.29527 15.227 9.93183 15.2241C11.5683 15.227 13.1372 15.8749 14.2944 17.0258C15.4516 18.1768 16.1029 19.737 16.1058 21.3647C16.1 22.9915 15.4477 24.55 14.2911 25.7004C13.1345 26.8507 11.5675 27.4995 9.93183 27.5053Z" fill="#C8C8C8"/>
<path d="M120.737 11.9267C118.223 11.9325 115.814 12.9285 114.036 14.6969C112.257 16.4653 111.256 18.862 111.25 21.3629C111.253 23.8646 112.253 26.263 114.032 28.032C115.811 29.801 118.222 30.796 120.737 30.799C123.252 30.796 125.664 29.801 127.442 28.032C129.221 26.263 130.222 23.8646 130.224 21.3629C130.222 18.8611 129.221 16.4627 127.442 14.6937C125.664 12.9247 123.252 11.9296 120.737 11.9267ZM120.737 27.5034C119.101 27.5005 117.532 26.8527 116.375 25.7017C115.218 24.5507 114.566 22.9906 114.564 21.3629C114.566 19.7352 115.218 18.175 116.375 17.024C117.532 15.873 119.101 15.2251 120.737 15.2222C121.548 15.2222 122.351 15.3811 123.1 15.6896C123.849 15.9982 124.529 16.4506 125.103 17.0207C125.676 17.591 126.131 18.2679 126.441 19.0129C126.751 19.758 126.911 20.5565 126.911 21.3629C126.911 22.1693 126.751 22.9677 126.441 23.7127C126.131 24.4578 125.676 25.1347 125.103 25.7049C124.529 26.2751 123.849 26.7275 123.1 27.0361C122.351 27.3447 121.548 27.5034 120.737 27.5034Z" fill="#C8C8C8"/>
<path d="M69.417 11.8831C66.9018 11.886 64.4904 12.8811 62.7118 14.6501C60.9333 16.4191 59.9326 18.8175 59.9297 21.3192C59.9326 23.8209 60.9333 26.2194 62.7118 27.9884C64.4904 29.7574 66.9018 30.7525 69.417 30.7554C71.0441 30.7511 72.6429 30.3317 74.0597 29.5375C75.4772 28.7431 76.6665 27.6004 77.5131 26.2186L74.2878 25.12C73.7103 25.8576 72.9719 26.4546 72.128 26.8657C71.2841 27.2769 70.3571 27.4913 69.417 27.4928C68.0252 27.4879 66.6756 27.0171 65.5857 26.1563C64.4957 25.2954 63.7289 24.0946 63.4089 22.7473H78.8712C78.9114 22.0155 78.9114 21.2821 78.8712 20.5503C78.6794 18.188 77.6001 15.9842 75.8477 14.3779C74.096 12.7717 71.7996 11.881 69.417 11.8831ZM63.5413 19.4518C63.9406 18.2131 64.7247 17.1323 65.7804 16.3645C66.8358 15.5967 68.1089 15.1815 69.417 15.1786C70.7145 15.1866 71.977 15.5975 73.0286 16.3537C74.0801 17.1099 74.868 18.1738 75.282 19.3968L63.5413 19.4518Z" fill="#C8C8C8"/>
<path d="M31.9327 11.8831C29.4174 11.886 27.0058 12.8811 25.2273 14.6501C23.4487 16.4191 22.4483 18.8175 22.4453 21.3192C22.4483 23.8209 23.4487 26.2194 25.2273 27.9884C27.0058 29.7574 29.4174 30.7525 31.9327 30.7554C33.5596 30.7511 35.1582 30.3317 36.5757 29.5375C37.9931 28.7431 39.1816 27.6004 40.0282 26.2186L36.8032 25.12C36.226 25.8576 35.4874 26.4546 34.6434 26.8657C33.7994 27.2769 32.8725 27.4913 31.9327 27.4928C30.5417 27.4893 29.1926 27.0188 28.104 26.1575C27.0155 25.2962 26.2513 24.0946 25.9353 22.7473H41.3977C41.444 22.0157 41.444 21.2819 41.3977 20.5503C41.2034 18.1871 40.1219 15.9832 38.368 14.3771C36.6141 12.7712 34.3167 11.8807 31.9327 11.8831ZM26.068 19.4188C26.4673 18.1801 27.2511 17.0993 28.3068 16.3315C29.3625 15.5637 30.6359 15.1485 31.9437 15.1456C33.2429 15.1471 34.5083 15.5554 35.561 16.3125C36.6137 17.0696 37.3999 18.1373 37.8082 19.3639L26.068 19.4188Z" fill="#C8C8C8"/>
<path d="M107.973 12.2014L101.743 25.1967L95.3489 12.2014H91.6602L99.9211 28.9974L93.5484 42.2673H97.2153L111.639 12.2014H107.973Z" fill="#C8C8C8"/>
</g>
</g>
<defs>
<filter id="filter0_i_3718_37329" x="0.5" y="0" width="149" height="41" filterUnits="userSpaceOnUse" color-interpolation-filters="sRGB">
<feFlood flood-opacity="0" result="BackgroundImageFix"/>
<feBlend mode="normal" in="SourceGraphic" in2="BackgroundImageFix" result="shape"/>
<feColorMatrix in="SourceAlpha" type="matrix" values="0 0 0 0 0 0 0 0 0 0 0 0 0 0 0 0 0 0 127 0" result="hardAlpha"/>
<feOffset dy="1"/>
<feGaussianBlur stdDeviation="1"/>
<feComposite in2="hardAlpha" operator="arithmetic" k2="-1" k3="1"/>
<feColorMatrix type="matrix" values="0 0 0 0 0.254167 0 0 0 0 0.254167 0 0 0 0 0.254167 0 0 0 0.2 0"/>
<feBlend mode="normal" in2="shape" result="effect1_innerShadow_3718_37329"/>
</filter>
<clipPath id="clip0_3718_37329">
<rect width="149" height="40" fill="white" transform="translate(0.5)"/>
</clipPath>
</defs>
</svg>
