<svg xmlns="http://www.w3.org/2000/svg" fill="none" viewBox="0 0 60 40"><path fill="url(#paint0_linear_4818_1542)" d="M37.739 20.479c.868.019 1.741-.038 2.606.03.876.16 1.087 1.468.309 1.896-.53.282-1.162.105-1.737.155h-1.178v-2.081zm3.108-2.355c.193.671-.463 1.274-1.12 1.182H37.74c.014-.634-.027-1.32.02-1.92.797.022 1.601-.046 2.393.035a.94.94 0 0 1 .695.703zm4.787-9.956c.037 1.282.005 2.632.016 3.94-.002 5.318.005 10.637-.004 15.956-.035 1.993-1.827 3.725-3.834 3.765-2.01.008-4.02.001-6.03.003v-8.04c2.19-.012 4.381.022 6.57-.017 1.016-.063 2.128-.724 2.175-1.825.12-1.107-.938-1.872-1.943-1.993-.386-.01-.375-.111 0-.155.958-.205 1.71-1.182 1.429-2.162-.24-1.03-1.395-1.428-2.355-1.426-1.958-.013-3.917-.002-5.875-.006.013-1.5-.026-3.004.021-4.504.155-1.957 1.992-3.571 3.971-3.536h5.86z"/><path fill="url(#paint1_linear_4818_1542)" d="M13.656 11.907c.05-1.99 1.849-3.708 3.854-3.737 2.002-.006 4.005 0 6.007-.002-.006 6.658.01 13.317-.009 19.975-.077 1.966-1.857 3.651-3.84 3.686-2.005.007-4.012.001-6.018.003v-8.311c1.949.453 3.992.647 5.98.346 1.188-.189 2.488-.764 2.89-1.98.296-1.04.13-2.134.174-3.2v-2.479h-3.44c-.016 1.64.031 3.281-.025 4.918-.093 1.006-1.103 1.645-2.066 1.611-1.194.013-3.559-.852-3.559-.852-.006-3.071.035-6.917.052-9.977z"/><path fill="url(#paint2_linear_4818_1542)" d="M24.8 17.208c-.182.038-.037-.608-.083-.853.012-1.55-.026-3.101.02-4.65.155-1.965 2.006-3.583 3.994-3.537h5.852c-.005 6.658.011 13.317-.008 19.976-.077 1.965-1.857 3.65-3.84 3.685-2.006.008-4.012.001-6.018.003v-9.106c1.37 1.108 3.232 1.28 4.939 1.284 1.286 0 2.566-.196 3.815-.489v-1.668c-1.408.692-3.063 1.131-4.624.734-1.09-.267-1.88-1.305-1.862-2.413-.127-1.153.559-2.37 1.707-2.712 1.426-.44 2.98-.103 4.317.469.286.148.577.331.462-.14v-1.312c-2.235-.525-4.614-.717-6.86-.147-.65.18-1.284.455-1.812.876z"/><defs><linearGradient id="paint0_linear_4818_1542" x1="35.715" x2="45.588" y1="19.494" y2="19.494" gradientUnits="userSpaceOnUse"><stop stop-color="#58B03A"/><stop offset="1" stop-color="#55B330"/></linearGradient><linearGradient id="paint1_linear_4818_1542" x1="13.441" x2="23.355" y1="20.227" y2="20.227" gradientUnits="userSpaceOnUse"><stop stop-color="#0F6EB6"/><stop offset="1" stop-color="#006DBA"/></linearGradient><linearGradient id="paint2_linear_4818_1542" x1="24.702" x2="34.581" y1="19.723" y2="19.723" gradientUnits="userSpaceOnUse"><stop stop-color="#DE0D3D"/><stop offset="1" stop-color="#E30138"/></linearGradient></defs></svg>