<svg xmlns="http://www.w3.org/2000/svg" fill="none" viewBox="0 0 60 40"><g clip-path="url(#clip0_4818_1509)"><path fill="url(#paint0_linear_4818_1509)" d="M50.003 12.857h-9.627c.561 3.178 3.645 6.168 7.01 6.168h7.663c.094-.28.094-.747.094-1.028 0-2.803-2.337-5.14-5.14-5.14z"/><path fill="#4FAD50" d="M41.218 19.586v7.757h4.672v-4.112h4.113c2.243 0 4.205-1.589 4.86-3.645H41.217zM24.769 12.857V27.25h4.112s1.028 0 1.589-1.028c2.804-5.514 3.645-7.197 3.645-7.197h.56v8.225h4.673V12.857h-4.112s-1.028.094-1.589 1.028c-2.336 4.767-3.644 7.196-3.644 7.196h-.561v-8.224h-4.673zM5.143 27.343V12.951h4.673s1.308 0 2.056 2.056c1.869 5.42 2.056 6.168 2.056 6.168s.374-1.308 2.056-6.168c.748-2.056 2.056-2.056 2.056-2.056h4.673v14.392H18.04v-7.757h-.56l-2.617 7.757h-2.057l-2.616-7.757h-.561v7.757H5.143z"/></g><defs><linearGradient id="paint0_linear_4818_1509" x1="40.36" x2="55.11" y1="15.986" y2="15.986" gradientUnits="userSpaceOnUse"><stop stop-color="#27B1E6"/><stop offset="1" stop-color="#148ACA"/></linearGradient><clipPath id="clip0_4818_1509"><path fill="#fff" d="M0 0h60v40H0z"/></clipPath></defs></svg>