<svg xmlns="http://www.w3.org/2000/svg" fill="none" viewBox="0 0 156 15"><path fill="#EE3124" d="M10.66 13.649V.839H0v12.8h1.75V2.409h7.193v11.238c.586.002 1.13.002 1.717.002zM41.493 12.049L36.877 1.702a1.456 1.456 0 0 0-2.66 0l-4.616 10.347h-1.573v1.598h15.038V12.05h-1.573zm-5.946-9.286l4.046 9.286h-8.091l4.045-9.286zM71.037 13.647L65.989 1.71a1.426 1.426 0 0 0-2.626 0l-5.048 11.938h1.9l4.46-10.782 4.461 10.782h1.9zM82.89.84l-7.65 10.368V.839h-1.721v12.81h1.72l7.681-10.41v10.41h1.721V.839H82.89zM50.63 12.297a5.061 5.061 0 0 1-3.346-1.264 5.05 5.05 0 0 1-1.671-3.158h11.745a6.738 6.738 0 0 0-2.313-5.739A6.756 6.756 0 0 0 50.632.5c-1.79 0-3.508.71-4.774 1.975a6.739 6.739 0 0 0 0 9.536 6.755 6.755 0 0 0 4.774 1.975 6.755 6.755 0 0 0 6.226-4.154h-1.885a5.05 5.05 0 0 1-4.343 2.465zm0-10.105a5.063 5.063 0 0 1 4.962 4.063H45.67a5.068 5.068 0 0 1 4.961-4.063h-.002zM20.483.5a6.747 6.747 0 0 0-6.751 6.743 6.747 6.747 0 0 0 6.751 6.743 6.747 6.747 0 0 0 6.751-6.743A6.747 6.747 0 0 0 20.483.5zm0 11.796a5.057 5.057 0 0 1-5.059-5.053 5.057 5.057 0 0 1 5.059-5.053 5.057 5.057 0 0 1 5.059 5.053 5.057 5.057 0 0 1-5.059 5.053z"/><path fill="#1F2020" d="M20.48 1.405c0 .417.304.776.719.835a5.058 5.058 0 0 1 4.289 4.284c.06.414.419.718.836.718.51 0 .911-.45.84-.955a6.753 6.753 0 0 0-5.73-5.721.845.845 0 0 0-.954.84zM92.383 2.749h.67c-.053-.279-.377-1.205-1.565-1.205-.971 0-1.693.829-1.693 1.958 0 1.121.73 1.95 1.7 1.95a1.52 1.52 0 0 0 1.557-1.198h-.662c-.067.136-.27.573-.895.573-.602 0-.993-.58-.993-1.325 0-.753.391-1.325.986-1.325.594 0 .827.421.895.572zM95.378 1.544c-1.03 0-1.693.821-1.693 1.958 0 1.091.677 1.95 1.76 1.95 1.167 0 1.513-.783 1.596-1.085h-.655c-.06.098-.286.46-.94.46-.662 0-1.03-.542-1.069-1.227h2.686v-.106c0-1.182-.677-1.95-1.685-1.95zm0 .588c.527 0 .85.338.963.926H94.4c.098-.565.421-.926.978-.926zM98.714 4.781c.09.166.429.67 1.159.67.88 0 1.602-.722 1.602-1.95 0-1.226-.722-1.957-1.602-1.957-.738 0-1.069.52-1.159.708v-.61h-.677v5.33h.677v-2.19zm-.015-1.28c0-.752.391-1.324 1.038-1.324.64 0 1.039.572 1.039 1.325 0 .745-.399 1.325-1.039 1.325-.647 0-1.038-.58-1.038-1.325zM102.486 5.361h1.738c.843 0 1.392-.437 1.392-1.099 0-.46-.316-.723-.662-.813.278-.09.564-.361.564-.828 0-.678-.572-.979-1.279-.979h-1.753v3.72zm1.753-3.116c.376 0 .602.165.602.436 0 .339-.248.482-.602.482h-1.068v-.918h1.068zm0 1.52c.459 0 .662.203.662.467 0 .339-.226.527-.67.527h-1.06v-.994h1.068zM106.582 5.361h.685l1.888-2.755V5.36h.685V1.642h-.685l-1.888 2.733V1.642h-.685v3.72zM113.423 2.749h.669c-.052-.279-.376-1.205-1.565-1.205-.97 0-1.692.829-1.692 1.958 0 1.121.729 1.95 1.7 1.95a1.519 1.519 0 0 0 1.557-1.198h-.662c-.068.136-.271.573-.895.573-.602 0-.993-.58-.993-1.325 0-.753.391-1.325.985-1.325.595 0 .828.421.896.572zM118.348 1.552c-1.053 0-1.746.843-1.746 1.95 0 1.106.693 1.95 1.746 1.95s1.745-.844 1.745-1.95c0-1.107-.692-1.95-1.745-1.95zm0 3.267c-.685 0-1.038-.587-1.038-1.317s.361-1.318 1.038-1.318 1.038.587 1.038 1.318c0 .73-.361 1.317-1.038 1.317zM121.086 5.361h.685V2.26h1.738V5.36h.685V1.642h-3.108v3.72zM125.749 3.705c-.083.85-.188 1.091-.7 1.091h-.09v.618h.203c.797 0 1.083-.52 1.196-1.664l.143-1.49h1.309V5.36h.685V1.642h-2.543l-.203 2.063zM132.18 4.751v.61h.685V1.642h-.685v.618c-.09-.189-.384-.7-1.106-.7-.888 0-1.573.73-1.573 1.95 0 1.219.685 1.941 1.573 1.941.715 0 1.016-.481 1.106-.7zm.015-1.242c0 .738-.361 1.318-.993 1.318-.647 0-.993-.58-.993-1.318 0-.745.346-1.317.993-1.317.632 0 .993.572.993 1.317zM134.983 5.361h.685V2.26h1.279v-.618h-3.243v.618h1.279V5.36zM139.3 2.84h-.828V1.641h-.685v3.72h1.52c1.023 0 1.475-.618 1.475-1.273 0-.708-.452-1.25-1.482-1.25zm2.106 2.521h.685V1.642h-.685v3.72zm-2.182-1.904c.542 0 .836.24.836.632 0 .444-.294.655-.836.655h-.752V3.457h.752zM90.035 12.889h.685V9.788h1.738v3.101h.685V9.17h-3.108v3.719zM95.879 9.08c-1.053 0-1.746.843-1.746 1.95 0 1.106.693 1.95 1.746 1.95s1.745-.844 1.745-1.95c0-1.107-.692-1.95-1.745-1.95zm0 3.267c-.685 0-1.038-.587-1.038-1.317s.36-1.318 1.038-1.318c.677 0 1.038.587 1.038 1.318 0 .73-.36 1.317-1.038 1.317zM98.618 12.889h.662V11.18l1.865 1.709h.926l-2.069-1.942 1.941-1.777h-.91l-1.754 1.634V9.17h-.661v3.719zM103.015 14.5h.685l2.129-5.33h-.699l-1.099 2.763-1.098-2.763h-.753l1.497 3.659-.662 1.671zM106.56 12.889h.685V9.788h1.738v3.101h.684V9.17h-3.107v3.719zM112.404 9.08c-1.054 0-1.746.843-1.746 1.95 0 1.106.692 1.95 1.746 1.95 1.053 0 1.745-.844 1.745-1.95 0-1.107-.692-1.95-1.745-1.95zm0 3.267c-.685 0-1.039-.587-1.039-1.317s.362-1.318 1.039-1.318c.677 0 1.038.587 1.038 1.318 0 .73-.361 1.317-1.038 1.317zM115.142 12.889h.662V11.18l1.866 1.709h.925l-2.069-1.942 1.942-1.777h-.911l-1.753 1.634V9.17h-.662v3.719zM121.013 12.889h.685V9.788h1.738v3.101h.684V9.17h-3.107v3.719zM126.856 9.08c-1.053 0-1.745.843-1.745 1.95 0 1.106.692 1.95 1.745 1.95 1.054 0 1.746-.844 1.746-1.95 0-1.107-.692-1.95-1.746-1.95zm0 3.267c-.684 0-1.038-.587-1.038-1.317s.361-1.318 1.038-1.318c.678 0 1.039.587 1.039 1.318 0 .73-.361 1.317-1.039 1.317zM133.73 12.889h.685V9.17h-.685v1.701s-.323.09-.82.09c-.692 0-.88-.3-.88-.887V9.17h-.685v.979c0 1.031.557 1.423 1.565 1.423.489 0 .82-.098.82-.098v1.415zM138.102 12.28v.609h.685V9.17h-.685v.618c-.09-.189-.384-.7-1.106-.7-.888 0-1.572.73-1.572 1.95 0 1.219.684 1.941 1.572 1.941.715 0 1.016-.481 1.106-.7zm.015-1.243c0 .738-.361 1.317-.993 1.317-.647 0-.993-.58-.993-1.317 0-.745.346-1.317.993-1.317.632 0 .993.572.993 1.317zM142.365 10.277h.669c-.052-.279-.376-1.205-1.564-1.205-.971 0-1.693.828-1.693 1.958 0 1.121.73 1.95 1.7 1.95a1.519 1.519 0 0 0 1.557-1.198h-.662c-.067.136-.27.572-.895.572-.602 0-.993-.58-.993-1.324 0-.753.391-1.325.986-1.325.594 0 .827.421.895.572zM144.833 12.889h.684V9.788h1.279V9.17h-3.242v.618h1.279v3.101zM150.466 12.889V9.17h-1.746c-.918 0-1.324.557-1.324 1.16 0 .541.271.978.873 1.121l-.986 1.438h.79l.903-1.348h.805v1.348h.685zm-1.663-1.965c-.444 0-.685-.226-.685-.595 0-.36.241-.541.685-.541h.978v1.136h-.978zM151.696 12.889h.648V9.84l1.248 3.072h.474l1.264-3.11v3.087h.67V9.17h-1.031l-1.106 2.718-1.106-2.718h-1.061v3.719z"/></svg>