<svg xmlns="http://www.w3.org/2000/svg" fill="none" viewBox="0 0 60 40"><path fill="#E21836" d="M18.302 8.334h9.324c1.301 0 2.111 1.046 1.807 2.334l-4.34 18.376c-.307 1.283-1.61 2.33-2.912 2.33h-9.323c-1.3 0-2.11-1.047-1.807-2.33l4.342-18.376c.304-1.288 1.607-2.334 2.91-2.334z"/><path fill="#00447C" d="M26.85 8.333H37.57c1.302 0 .715 1.046.409 2.334l-4.34 18.375c-.305 1.283-.21 2.33-1.514 2.33H21.405c-1.305 0-2.111-1.047-1.805-2.33l4.34-18.375c.308-1.288 1.607-2.334 2.91-2.334z"/><path fill="#007B84" d="M37.147 8.333h9.323c1.303 0 2.113 1.046 1.807 2.334l-4.34 18.375c-.307 1.283-1.61 2.33-2.914 2.33h-9.319c-1.304 0-2.113-1.047-1.807-2.33l4.34-18.375c.304-1.288 1.605-2.334 2.91-2.334z"/><path fill="#FEFEFE" d="M20.737 14.222c-.959.01-1.242 0-1.332-.02-.035.162-.682 3.105-.684 3.107-.14.595-.24 1.02-.585 1.294-.195.16-.423.236-.688.236-.425 0-.673-.208-.714-.603l-.008-.135.13-.802s.678-2.682.8-3.037a.25.25 0 0 0 .01-.04c-1.322.012-1.556 0-1.573-.02a4.89 4.89 0 0 0-.041.194l-.694 3.023-.06.256-.114.839c0 .248.05.451.148.623.316.544 1.217.626 1.727.626.656 0 1.272-.138 1.689-.389.722-.421.912-1.08 1.08-1.664l.078-.3s.7-2.785.819-3.148c.004-.02.006-.03.012-.04zm2.38 2.247c-.169 0-.477.04-.754.174-.1.051-.195.11-.295.168l.09-.322-.05-.054c-.586.117-.718.133-1.26.208l-.045.03c-.063.515-.12.902-.352 1.913-.09.373-.182.75-.274 1.122l.025.047c.555-.03.724-.03 1.207-.021l.04-.042c.06-.31.068-.383.204-1.01.064-.298.197-.952.263-1.184.12-.056.24-.11.353-.11.271 0 .238.233.228.326-.012.155-.11.664-.212 1.1l-.067.283c-.047.208-.099.41-.146.616l.02.042a13.19 13.19 0 0 1 1.183-.021l.055-.042c.085-.484.11-.614.26-1.318l.075-.324c.146-.634.22-.955.109-1.217-.117-.293-.399-.364-.657-.364zm2.659.663c-.291.056-.477.092-.662.116-.183.029-.36.055-.642.094l-.023.02-.02.016c-.03.206-.05.385-.089.595-.032.217-.083.463-.166.818a3.18 3.18 0 0 1-.133.461c-.035.096-.074.189-.146.456l.017.024.014.023c.263-.013.435-.021.611-.023.177-.006.36 0 .643.002l.025-.02.027-.022c.04-.24.047-.306.072-.423.024-.126.067-.3.172-.766.05-.219.105-.437.156-.66.053-.222.11-.441.162-.66l-.008-.026-.01-.025zm.006-.894c-.265-.154-.729-.105-1.041.108-.312.208-.347.504-.084.66.26.15.726.105 1.036-.11.311-.213.35-.506.089-.658zm1.6 3.565c.535 0 1.083-.145 1.496-.577.318-.35.464-.87.514-1.085.165-.71.037-1.043-.124-1.245-.244-.308-.675-.407-1.123-.407-.269 0-.91.026-1.41.482-.36.328-.526.773-.626 1.2-.102.435-.218 1.219.513 1.51.225.096.55.122.76.122zm-.042-1.6c.123-.537.269-.99.64-.99.292 0 .313.337.184.877-.024.12-.13.566-.274.755-.1.14-.219.225-.35.225-.04 0-.272 0-.276-.34-.001-.168.033-.34.076-.526zm3.39 1.53l.042-.041c.06-.31.069-.383.2-1.01.066-.298.202-.952.266-1.184.12-.056.238-.11.355-.11.269 0 .236.233.225.325-.01.156-.108.665-.211 1.102l-.064.281c-.049.209-.102.411-.149.618l.02.04c.55-.028.71-.028 1.181-.02l.057-.042c.082-.484.105-.614.26-1.318l.073-.324c.147-.634.222-.955.113-1.217-.121-.293-.404-.364-.659-.364-.169 0-.479.04-.754.174-.098.051-.197.11-.294.168l.085-.322-.046-.054c-.586.117-.72.133-1.262.208l-.041.03c-.066.515-.12.901-.353 1.913-.089.373-.181.75-.273 1.122l.024.047c.557-.03.723-.03 1.205-.021zm4.037.022c.035-.166.24-1.152.242-1.152 0 0 .175-.723.185-.75 0 0 .055-.075.11-.104h.081c.764 0 1.626 0 2.301-.49.46-.337.774-.833.914-1.436.037-.148.064-.324.064-.5 0-.23-.047-.46-.183-.638-.345-.475-1.031-.484-1.823-.488l-.39.004c-1.014.012-1.42.009-1.588-.011l-.04.202-.364 1.662-.91 3.695c.886-.01 1.249-.01 1.401.006zm.673-2.948l.385-1.65.012-.085.005-.065.155.016.815.07c.314.12.444.428.353.832a1.213 1.213 0 0 1-.636.828c-.257.126-.571.137-.895.137h-.21l.016-.083zm2.404 1.428c-.102.428-.22 1.212.508 1.49.232.098.44.127.65.116.223-.011.43-.122.621-.28l-.051.196.032.041c.523-.021.686-.021 1.252-.017l.051-.038c.083-.48.161-.946.376-1.863.105-.44.21-.875.317-1.312l-.017-.048c-.585.107-.741.13-1.304.208l-.043.034-.017.13a.802.802 0 0 0-.41-.332c-.25-.097-.837.028-1.343.482-.355.323-.525.767-.622 1.192zm1.229.026c.125-.529.269-.976.642-.976.235 0 .36.214.334.58l-.067.296c-.038.157-.078.313-.117.469-.04.106-.087.207-.138.274-.096.134-.324.217-.455.217-.038 0-.268 0-.276-.334a2.268 2.268 0 0 1 .077-.526zm6.415-1.746l-.045-.05c-.579.115-.684.134-1.215.204l-.04.039-.006.025-.001-.01c-.396.901-.385.707-.707 1.416l-.004-.087-.08-1.537-.051-.05c-.606.115-.62.134-1.18.204l-.044.039c-.006.018-.006.038-.01.06l.004.008c.07.353.053.274.123.83.033.274.077.549.11.818.054.452.085.674.153 1.363-.378.616-.468.848-.832 1.388l.003.006-.257.4c-.03.042-.056.07-.093.083a.392.392 0 0 1-.168.023h-.142l-.211.693.724.012c.425-.002.693-.198.837-.461l.455-.77h-.007l.048-.054c.306-.65 2.636-4.592 2.636-4.592zm-7.644 9.094h-.307l1.137-3.709h.377l.12-.382.012.425c-.014.262.195.495.745.457h.637l.22-.714h-.24c-.138 0-.202-.035-.194-.108l-.012-.432h-1.178v.002c-.382.008-1.52.036-1.75.096-.279.071-.573.28-.573.28l.116-.383H35.85l-.23.76-1.152 3.764h-.224l-.219.71h2.196l-.073.236h1.082l.072-.237h.303l.238-.765zm-.9-2.955a4.972 4.972 0 0 0-.506.194l.292-.948h.876l-.211.69s-.27.016-.452.064zm.016 1.354s-.275.034-.456.074a4.508 4.508 0 0 0-.513.221l.301-.986h.881l-.213.69zm-.491 1.61h-.879l.255-.833h.876l-.252.832zm2.116-2.3h1.267l-.182.58h-1.284l-.192.636h1.123l-.85 1.18a.349.349 0 0 1-.173.142.51.51 0 0 1-.228.065h-.312l-.213.696h.814c.424 0 .674-.19.859-.44l.583-.786.125.799c.027.15.136.237.21.271.081.04.166.11.285.12.127.005.22.01.281.01h.4l.241-.78h-.158c-.09 0-.247-.014-.273-.042-.027-.034-.027-.087-.041-.166l-.127-.801h-.52l.228-.268h1.28l.198-.636H40.74l.184-.58h1.183l.22-.718H38.8l-.216.717zm-10.698 2.461l.295-.97h1.216l.221-.72h-1.216l.186-.598h1.188l.22-.698h-2.973l-.216.698h.676l-.18.597h-.678l-.224.734h.675l-.394 1.283c-.053.17.025.235.075.313.05.077.102.128.217.157.119.026.2.042.311.042h1.37l.245-.8-.608.083c-.117 0-.442-.014-.406-.12zm.14-4.642l-.309.549a.637.637 0 0 1-.178.228c-.047.029-.14.041-.276.041h-.16l-.215.702h.534c.256 0 .453-.093.547-.139.101-.053.128-.023.206-.097l.18-.154h1.666l.222-.731h-1.22l.213-.4h-1.21zm2.459 4.656c-.029-.04-.008-.11.035-.259l.456-1.486h1.62c.236-.003.407-.006.517-.014.12-.012.249-.054.39-.13a.725.725 0 0 0 .283-.257c.07-.095.183-.304.28-.625l.572-1.88-1.68.009s-.519.075-.746.158c-.23.093-.559.352-.559.352l.152-.516h-1.039L29.313 25.9a2.903 2.903 0 0 0-.094.4c-.003.086.111.172.185.236.087.065.215.055.339.065.13.01.314.016.569.016h.798l.245-.816-.715.067a.189.189 0 0 1-.154-.075zm.785-2.749h1.701l-.108.334c-.015.008-.051-.016-.225.004h-1.473l.105-.338zm.34-1.121h1.716l-.123.403s-.809-.008-.938.015c-.57.097-.903.398-.903.398l.248-.816zm1.291 2.575a.179.179 0 0 1-.067.103c-.035.022-.09.03-.174.03h-.243l.015-.407h-1.009l-.04 1.99c-.002.144.012.227.118.294.107.083.435.093.877.093h.632l.228-.745-.55.03-.183.01c-.025-.01-.048-.02-.075-.046-.023-.023-.062-.009-.056-.152l.004-.51.577-.024c.312 0 .445-.1.559-.195.108-.091.143-.196.184-.338l.097-.452h-.793l-.1.319z"/></svg>