<svg width="49" height="48" viewBox="0 0 49 48" fill="none" xmlns="http://www.w3.org/2000/svg">
<path d="M32.5 36L36.5 40L44.5 32M44.5 20H4.5M44.5 24V16.4C44.5 14.1598 44.5 13.0397 44.064 12.184C43.6805 11.4314 43.0686 10.8195 42.316 10.436C41.4603 10 40.3402 10 38.1 10H10.9C8.65979 10 7.53969 10 6.68404 10.436C5.93139 10.8195 5.31947 11.4314 4.93597 12.184C4.5 13.0397 4.5 14.1598 4.5 16.4V31.6C4.5 33.8402 4.5 34.9603 4.93597 35.816C5.31947 36.5686 5.93139 37.1805 6.68404 37.564C7.53969 38 8.65979 38 10.9 38H24.5" stroke="#7EA3C1" stroke-linecap="round" stroke-linejoin="round"/>
</svg>
