<svg width="49" height="48" viewBox="0 0 49 48" fill="none" xmlns="http://www.w3.org/2000/svg">
<path d="M14.5 44V22M4.5 26V40C4.5 42.2091 6.29086 44 8.5 44H35.3525C38.3139 44 40.8324 41.8393 41.2827 38.9123L43.4366 24.9123C43.9957 21.2778 41.1836 18 37.5063 18H30.5C29.3954 18 28.5 17.1046 28.5 16V8.93168C28.5 6.20799 26.292 4 23.5683 4C22.9187 4 22.33 4.38259 22.0661 4.97625L15.0279 20.8123C14.7069 21.5345 13.9906 22 13.2003 22H8.5C6.29086 22 4.5 23.7909 4.5 26Z" stroke="#7EA3C1" stroke-linecap="round" stroke-linejoin="round"/>
</svg>
