<svg width="49" height="48" viewBox="0 0 49 48" fill="none" xmlns="http://www.w3.org/2000/svg">
<path d="M10.4999 26C10.4999 19.3726 15.8724 14 22.4999 14M10.4999 26C10.4999 29.2968 11.8293 32.283 13.9813 34.4519C14.1889 34.6611 14.2927 34.7657 14.3539 34.8663C14.4124 34.9622 14.4464 35.0448 14.4725 35.1541C14.4999 35.2687 14.4999 35.399 14.4999 35.6597V40.4C14.4999 40.9601 14.4999 41.2401 14.6089 41.454C14.7047 41.6422 14.8577 41.7951 15.0459 41.891C15.2598 42 15.5398 42 16.0999 42H19.8999C20.4599 42 20.7399 42 20.9539 41.891C21.142 41.7951 21.295 41.6422 21.3909 41.454C21.4999 41.2401 21.4999 40.9601 21.4999 40.4V39.6C21.4999 39.0399 21.4999 38.7599 21.6089 38.546C21.7047 38.3578 21.8577 38.2049 22.0459 38.109C22.2598 38 22.5398 38 23.0999 38H25.8999C26.4599 38 26.7399 38 26.9539 38.109C27.142 38.2049 27.295 38.3578 27.3909 38.546C27.4999 38.7599 27.4999 39.0399 27.4999 39.6V40.4C27.4999 40.9601 27.4999 41.2401 27.6089 41.454C27.7047 41.6422 27.8577 41.7951 28.0459 41.891C28.2598 42 28.5398 42 29.0999 42H32.9C33.4601 42 33.7401 42 33.954 41.891C34.1422 41.7951 34.2951 41.6422 34.391 41.454C34.5 41.2401 34.5 40.9601 34.5 40.4V38.4487C34.5 38.0445 34.5 37.8425 34.5575 37.6803C34.6127 37.5248 34.6821 37.416 34.7999 37.3005C34.9228 37.18 35.131 37.0834 35.5474 36.89C37.5118 35.978 39.1881 34.5501 40.4022 32.7803C40.6157 32.4691 40.7225 32.3135 40.8365 32.2216C40.9455 32.1337 41.0433 32.0822 41.1775 32.042C41.3178 32 41.4844 32 41.8175 32H42.9C43.4601 32 43.7401 32 43.954 31.891C44.1422 31.7951 44.2951 31.6422 44.391 31.454C44.5 31.2401 44.5 30.9601 44.5 30.4V23.5715C44.5 23.0383 44.5 22.7717 44.4009 22.5661C44.3027 22.362 44.138 22.1973 43.9339 22.0991C43.7283 22 43.4617 22 42.9285 22C42.5426 22 42.3496 22 42.1942 21.9476C42.0266 21.8911 41.9091 21.816 41.7875 21.6875C41.6747 21.5684 41.5826 21.3693 41.3985 20.9709C40.8076 19.6924 39.9983 18.5355 39.0185 17.5481C38.811 17.3389 38.7072 17.2343 38.6459 17.1337C38.5875 17.0378 38.5535 16.9552 38.5274 16.8459C38.5 16.7313 38.5 16.601 38.5 16.3404V14.1212C38.5 13.4011 38.5 13.041 38.35 12.799C38.2187 12.587 38.0129 12.4318 37.7729 12.3637C37.499 12.286 37.1528 12.3849 36.4605 12.5827L31.7153 13.9384C31.6347 13.9615 31.5944 13.973 31.5534 13.9811C31.517 13.9883 31.4802 13.9934 31.4432 13.9965C31.4016 14 31.3593 14 31.2748 14H22.4999M10.4999 26H8.5C6.29086 26 4.5 24.2091 4.5 22C4.5 20.5194 5.3044 19.2267 6.5 18.5351M22.4999 14H30.4291C30.4758 13.6734 30.5 13.3395 30.5 13C30.5 9.13401 27.366 6 23.5 6C19.634 6 16.5 9.13401 16.5 13C16.5 13.8344 16.646 14.6347 16.9138 15.3768C18.5823 14.4976 20.4829 14 22.4999 14Z" stroke="#7EA3C1" stroke-linecap="round" stroke-linejoin="round"/>
</svg>
