<svg width="49" height="48" viewBox="0 0 49 48" fill="none" xmlns="http://www.w3.org/2000/svg">
<path d="M24.5 4.99999V43M40.5 24C40.5 33.8169 29.7921 40.9568 25.896 43.2297C25.4532 43.4881 25.2318 43.6172 24.9194 43.6842C24.6769 43.7362 24.3231 43.7362 24.0806 43.6842C23.7682 43.6172 23.5468 43.4881 23.104 43.2297C19.2079 40.9568 8.5 33.8169 8.5 24V14.4352C8.5 12.8362 8.5 12.0367 8.76152 11.3494C8.99255 10.7423 9.36797 10.2005 9.85532 9.77105C10.407 9.28486 11.1556 9.00414 12.6528 8.44268L23.3764 4.42133C23.7922 4.26541 24.0001 4.18745 24.214 4.15655C24.4037 4.12913 24.5963 4.12913 24.786 4.15655C24.9999 4.18745 25.2078 4.26541 25.6236 4.42133L36.3472 8.44268C37.8444 9.00414 38.593 9.28486 39.1447 9.77105C39.632 10.2005 40.0075 10.7423 40.2385 11.3494C40.5 12.0367 40.5 12.8362 40.5 14.4352V24Z" stroke="#7EA3C1" stroke-linecap="round" stroke-linejoin="round"/>
</svg>
