<svg width="48" height="48" viewBox="0 0 48 48" fill="none" xmlns="http://www.w3.org/2000/svg">
<path d="M9 44V34M9 14V4M4 9H14M4 39H14M26 6L22.5316 15.0177C21.9676 16.4842 21.6856 17.2174 21.2471 17.8342C20.8584 18.3808 20.3808 18.8584 19.8342 19.2471C19.2174 19.6856 18.4842 19.9676 17.0177 20.5316L8 24L17.0177 27.4684C18.4842 28.0324 19.2174 28.3144 19.8342 28.7529C20.3808 29.1416 20.8584 29.6192 21.2471 30.1658C21.6856 30.7826 21.9676 31.5158 22.5316 32.9823L26 42L29.4684 32.9823C30.0324 31.5158 30.3144 30.7826 30.7529 30.1658C31.1416 29.6192 31.6192 29.1416 32.1658 28.7529C32.7826 28.3144 33.5158 28.0324 34.9823 27.4684L44 24L34.9823 20.5316C33.5158 19.9676 32.7826 19.6856 32.1658 19.2471C31.6192 18.8584 31.1416 18.3808 30.7529 17.8342C30.3144 17.2174 30.0324 16.4842 29.4684 15.0177L26 6Z" stroke="#7EA3C1" stroke-linecap="round" stroke-linejoin="round"/>
</svg>
