<svg width="24" height="18" viewBox="0 0 24 18" fill="none" xmlns="http://www.w3.org/2000/svg">
<path fill-rule="evenodd" clip-rule="evenodd" d="M0 0H24V18H0V0Z" fill="#00ABC2"/>
<path fill-rule="evenodd" clip-rule="evenodd" d="M2.25753 17.5125C2.38128 17.6325 2.34003 17.8312 2.68128 17.805C3.19878 17.805 3.21378 17.49 3.21378 17.2687C3.21378 17.0475 2.43753 16.74 2.40003 16.4137C2.36253 16.0875 2.58003 16.0012 2.76003 16.0012C2.93628 16.0012 3.06003 16.1025 3.06003 16.1925C3.06003 16.2825 2.97753 16.3125 2.85003 16.3125C2.72253 16.3125 2.90628 16.2487 2.79753 16.2C2.68878 16.1512 2.61753 16.275 2.61753 16.35C2.61753 16.4325 2.88753 16.455 3.06753 16.3987C3.10503 16.575 3.12003 16.5862 2.86878 16.8862C3.04878 16.77 3.06378 16.7437 3.26253 16.8112C3.06378 16.6387 3.21378 16.2937 3.21753 16.2075C3.22128 16.1212 3.18003 16.0162 3.10503 15.9637C2.95878 15.8325 2.64753 15.825 2.46003 15.9112C2.18628 16.0312 2.17128 16.3912 2.24253 16.5112L3.00003 17.2762C3.05253 17.3662 3.07503 17.6212 2.75253 17.6325C2.41503 17.6587 2.29503 17.1975 2.23503 17.0437C2.15628 17.2125 2.06628 17.6737 1.72503 17.6475C1.40253 17.6362 1.34253 17.385 1.39503 17.2912L2.17128 16.5037C2.24628 16.3837 2.23128 16.0237 1.95753 15.9037C1.77003 15.8175 1.45878 15.8287 1.31628 15.9562C1.23378 16.0087 1.18878 16.11 1.19628 16.2C1.20378 16.29 1.35003 16.6312 1.15503 16.8C1.35003 16.7362 1.36878 16.7625 1.54878 16.875C1.29753 16.5787 1.31628 16.5675 1.35003 16.3875C1.53003 16.4475 1.80003 16.425 1.80003 16.3462C1.80003 16.2675 1.72503 16.1362 1.61628 16.1887C1.51128 16.2412 1.69128 16.305 1.56378 16.305C1.44003 16.305 1.35003 16.2787 1.35003 16.1925C1.35003 16.1062 1.47378 15.9937 1.65378 15.9937C1.83378 15.9937 2.04753 16.0837 2.01003 16.41C1.97253 16.7362 1.18503 17.0887 1.18503 17.31C1.18503 17.535 1.23753 17.8012 1.75503 17.8012C2.09253 17.8275 2.13378 17.6287 2.25753 17.5087V17.5125Z" fill="#FFEC2D"/>
<path fill-rule="evenodd" clip-rule="evenodd" d="M2.21627 12.8738C2.34002 12.7538 2.44127 12.4013 2.77877 12.4238C3.29627 12.4238 3.49127 12.7125 3.49127 12.9338C3.49127 13.155 2.44127 14.9588 2.40377 15.285C2.36627 15.6113 2.58377 15.7013 2.76002 15.7013C2.94002 15.7013 3.06377 15.6 3.06377 15.5063C3.06377 15.4125 2.97377 15.3938 2.85002 15.3938C2.72627 15.3938 2.90252 15.4575 2.79752 15.5063C2.69252 15.555 2.61752 15.4313 2.61752 15.3525C2.61752 15.2738 2.88752 15.2475 3.06752 15.3075C3.10127 15.1313 3.11627 15.12 2.86877 14.82C3.04877 14.9325 3.06377 14.9625 3.26252 14.895C3.06377 15.0675 3.21002 15.4088 3.21752 15.495C3.22502 15.5813 3.18002 15.69 3.10127 15.7425C2.95877 15.8738 2.64377 15.8775 2.45627 15.795C2.18627 15.6713 2.17127 15.315 2.24252 15.195L3.26252 12.9975C3.31877 12.9075 3.17627 12.6075 2.85377 12.5963C2.51627 12.57 2.40002 12.9263 2.34002 13.08L2.80127 13.0425C2.80127 13.0425 2.82002 13.1175 2.80127 13.1625C2.64651 13.1738 2.49252 13.1939 2.34002 13.2225L2.32127 13.455H2.54627L2.53127 13.56C2.53127 13.56 2.34002 13.545 2.32127 13.56C2.30252 13.5713 2.28377 13.7925 2.28377 13.7925C2.28377 13.7925 2.24627 13.8075 2.20877 13.8075C2.17127 13.8075 2.13377 13.7925 2.13377 13.7925C2.13377 13.7925 2.11877 13.5713 2.10002 13.56C2.08127 13.545 1.89002 13.56 1.89002 13.56L1.87127 13.455H2.10002L2.08127 13.2225C2.08127 13.2225 1.85627 13.1775 1.62002 13.1625C1.60502 13.1175 1.62002 13.0463 1.62002 13.0463L2.08127 13.08C2.02127 12.9263 1.90502 12.57 1.56752 12.5925C1.24502 12.6075 1.10252 12.9075 1.15502 12.9975L2.17502 15.195C2.24627 15.3113 2.23127 15.6713 1.96127 15.795C1.77377 15.8775 1.45877 15.87 1.31627 15.7425C1.23752 15.69 1.19252 15.585 1.20002 15.4988C1.20752 15.4125 1.35002 15.0638 1.15502 14.8988C1.35377 14.9625 1.37252 14.9363 1.54877 14.82C1.30127 15.12 1.31627 15.1313 1.35377 15.3075C1.53002 15.2475 1.80002 15.27 1.80002 15.3525C1.80002 15.4275 1.72502 15.5588 1.62002 15.5063C1.51502 15.4538 1.69502 15.3938 1.56752 15.3938C1.44377 15.3938 1.35377 15.4163 1.35377 15.5063C1.35377 15.5963 1.47752 15.7013 1.65377 15.7013C1.83002 15.7013 2.04752 15.6113 2.01377 15.2888C1.97627 14.9625 0.92627 13.1513 0.92627 12.9338C0.92627 12.7088 1.12127 12.4275 1.63877 12.4275C1.97627 12.4013 2.10002 12.7538 2.22002 12.8738H2.21627Z" fill="#FFEC2D"/>
<path fill-rule="evenodd" clip-rule="evenodd" d="M2.21627 11.9775C2.34002 12.0975 2.44127 12.45 2.77877 12.4275C3.29627 12.4275 3.49127 12.1388 3.49127 11.9175C3.49127 11.6963 2.44127 9.8925 2.40377 9.56625C2.36627 9.24 2.58377 9.15 2.76002 9.15C2.94002 9.15 3.06377 9.25125 3.06377 9.345C3.06377 9.43875 2.97377 9.4575 2.85002 9.4575C2.72627 9.4575 2.90252 9.3975 2.79752 9.345C2.69252 9.2925 2.61752 9.42 2.61752 9.49875C2.61752 9.5775 2.88752 9.60375 3.06752 9.54375C3.10127 9.72 3.11627 9.73125 2.86877 10.0313C3.04877 9.91875 3.06377 9.88875 3.26252 9.95625C3.06377 9.78375 3.21002 9.4425 3.21752 9.35625C3.22502 9.27 3.18002 9.16125 3.10127 9.10875C2.95877 8.98125 2.64377 8.97375 2.45627 9.05625C2.18627 9.18 2.17127 9.53625 2.24252 9.65625L3.26252 11.85C3.31877 11.94 3.17627 12.24 2.85377 12.2513C2.51627 12.2775 2.40002 11.9213 2.34002 11.7675L2.80127 11.805C2.80127 11.805 2.82002 11.73 2.80127 11.685C2.64651 11.6737 2.49252 11.6537 2.34002 11.625L2.32127 11.3925H2.54627L2.53127 11.2875C2.53127 11.2875 2.34002 11.3025 2.32127 11.2875C2.30252 11.2763 2.28377 11.055 2.28377 11.055C2.28377 11.055 2.24627 11.04 2.20877 11.04C2.17127 11.04 2.13377 11.055 2.13377 11.055C2.13377 11.055 2.11877 11.2763 2.10002 11.2875C2.08127 11.3025 1.89002 11.2875 1.89002 11.2875L1.87127 11.3925H2.10002L2.08127 11.625C2.08127 11.625 1.85627 11.67 1.62002 11.685C1.60502 11.73 1.62002 11.8013 1.62002 11.8013L2.08127 11.7675C2.02127 11.9213 1.90502 12.2775 1.56752 12.255C1.24502 12.24 1.10252 11.94 1.15502 11.85L2.17502 9.65625C2.24627 9.53625 2.23127 9.18 1.96127 9.05625C1.77377 8.97375 1.45877 8.98125 1.31627 9.10875C1.23752 9.16125 1.19252 9.26625 1.20002 9.3525C1.20752 9.43875 1.35002 9.78375 1.15502 9.9525C1.35377 9.88875 1.37252 9.915 1.54877 10.0313C1.30127 9.73125 1.31627 9.72 1.35377 9.54375C1.53002 9.60375 1.80002 9.58125 1.80002 9.49875C1.80002 9.42375 1.72502 9.2925 1.62002 9.345C1.51502 9.3975 1.69502 9.4575 1.56752 9.4575C1.44377 9.4575 1.35377 9.435 1.35377 9.345C1.35377 9.255 1.47752 9.15 1.65377 9.15C1.83002 9.15 2.04752 9.24 2.01377 9.5625C1.97627 9.88875 0.92627 11.7 0.92627 11.9175C0.92627 12.1425 1.12127 12.4238 1.63877 12.4238C1.97627 12.45 2.10002 12.0975 2.22002 11.9775H2.21627Z" fill="#FFEC2D"/>
<path fill-rule="evenodd" clip-rule="evenodd" d="M2.21627 6.0225C2.34002 5.9025 2.44127 5.55 2.77877 5.5725C3.29627 5.5725 3.49127 5.86125 3.49127 6.0825C3.49127 6.30375 2.44127 8.1075 2.40377 8.4375C2.36627 8.76 2.58377 8.85 2.76002 8.85C2.94002 8.85 3.06377 8.74875 3.06377 8.65875C3.06377 8.56875 2.97377 8.53875 2.85002 8.53875C2.72627 8.53875 2.90252 8.60625 2.79752 8.65875C2.69252 8.71125 2.61752 8.58 2.61752 8.50125C2.61752 8.42625 2.88752 8.39625 3.06752 8.45625C3.10127 8.28 3.11627 8.26875 2.86877 7.96875C3.04877 8.085 3.06377 8.11125 3.26252 8.04375C3.06377 8.21625 3.21002 8.56125 3.21752 8.64375C3.22502 8.72625 3.18002 8.83875 3.10127 8.89125C2.95877 9.0225 2.64377 9.02625 2.45627 8.94375C2.18627 8.82 2.17127 8.46375 2.24252 8.34375L3.26252 6.15C3.31877 6.06 3.17627 5.76 2.85377 5.74875C2.51627 5.7225 2.40002 6.07875 2.34002 6.2325L2.80127 6.195C2.80127 6.195 2.82002 6.27 2.80127 6.315C2.56127 6.33 2.34002 6.375 2.34002 6.375L2.32127 6.6075H2.54627L2.53127 6.7125C2.53127 6.7125 2.34002 6.70125 2.32127 6.7125C2.30252 6.72375 2.28377 6.94875 2.28377 6.94875C2.28377 6.94875 2.24627 6.96 2.20877 6.96C2.17127 6.96 2.13377 6.94875 2.13377 6.94875C2.13377 6.94875 2.11877 6.72375 2.10002 6.7125C2.08127 6.70125 1.89002 6.7125 1.89002 6.7125L1.87127 6.6075H2.10002L2.08127 6.375C2.08127 6.375 1.85627 6.33 1.62002 6.315C1.60502 6.27 1.62002 6.19875 1.62002 6.19875L2.08127 6.2325C2.02127 6.07875 1.90502 5.7225 1.56752 5.745C1.24502 5.76 1.10252 6.06 1.15502 6.15L2.17502 8.34375C2.24627 8.46375 2.23127 8.82 1.96127 8.94375C1.77377 9.02625 1.45877 9.01875 1.31627 8.89125C1.23752 8.83875 1.19252 8.73375 1.20002 8.6475C1.20752 8.56125 1.35002 8.21625 1.15502 8.0475C1.35377 8.11125 1.37252 8.085 1.54877 7.96875C1.30127 8.26875 1.31627 8.28 1.35377 8.45625C1.53002 8.39625 1.80002 8.4225 1.80002 8.50125C1.80002 8.57625 1.72502 8.7075 1.62002 8.655C1.51502 8.60625 1.69502 8.5425 1.56752 8.5425C1.44377 8.5425 1.35377 8.565 1.35377 8.655C1.35377 8.745 1.47752 8.85 1.65377 8.85C1.83002 8.85 2.04752 8.76 2.01377 8.4375C1.97627 8.11125 0.92627 6.30375 0.92627 6.0825C0.92627 5.86125 1.12127 5.57625 1.63877 5.57625C1.97627 5.55 2.10002 5.9025 2.22002 6.02625L2.21627 6.0225Z" fill="#FFEC2D"/>
<path fill-rule="evenodd" clip-rule="evenodd" d="M2.21627 5.12625C2.34002 5.24625 2.44127 5.6025 2.77877 5.57625C3.29627 5.57625 3.49127 5.2875 3.49127 5.06625C3.49127 4.845 2.44127 3.04125 2.40377 2.715C2.36627 2.38875 2.58377 2.29875 2.76002 2.29875C2.94002 2.29875 3.06377 2.40375 3.06377 2.49375C3.06377 2.58375 2.97377 2.61 2.85002 2.61C2.72627 2.61 2.90252 2.54625 2.79752 2.49375C2.69252 2.44125 2.61752 2.56875 2.61752 2.6475C2.61752 2.72625 2.88752 2.7525 3.06752 2.6925C3.10127 2.86875 3.11627 2.88 2.86877 3.18C3.04877 3.0675 3.06377 3.0375 3.26252 3.105C3.06377 2.93625 3.21002 2.59125 3.21752 2.505C3.22502 2.41875 3.18002 2.31 3.10127 2.2575C2.95877 2.13 2.64377 2.1225 2.45627 2.20875C2.18627 2.32875 2.17127 2.68875 2.24252 2.805L3.26252 5.0025C3.31877 5.0925 3.17627 5.3925 2.85377 5.4075C2.51627 5.43 2.40002 5.0775 2.34002 4.92L2.80127 4.9575C2.80127 4.9575 2.82002 4.8825 2.80127 4.8375C2.6466 4.82732 2.49261 4.80854 2.34002 4.78125L2.32127 4.545H2.54627L2.53127 4.44C2.53127 4.44 2.34002 4.455 2.32127 4.44C2.30252 4.42875 2.28377 4.2075 2.28377 4.2075C2.28377 4.2075 2.24627 4.1925 2.20877 4.1925C2.17127 4.1925 2.13377 4.2075 2.13377 4.2075C2.13377 4.2075 2.11877 4.42875 2.10002 4.44C2.08127 4.455 1.89002 4.44 1.89002 4.44L1.87127 4.545H2.10002L2.08127 4.78125C2.08127 4.78125 1.85627 4.8225 1.62002 4.8375C1.60502 4.88625 1.62002 4.9575 1.62002 4.9575L2.08127 4.92C2.02127 5.0775 1.90502 5.43 1.56752 5.4075C1.24502 5.3925 1.10252 5.0925 1.15502 5.0025L2.17502 2.805C2.24627 2.68875 2.23127 2.32875 1.96127 2.205C1.77377 2.1225 1.45877 2.13 1.31627 2.2575C1.23752 2.31 1.19252 2.415 1.20002 2.50125C1.20752 2.5875 1.35002 2.93625 1.15502 3.10125C1.35377 3.0375 1.37252 3.06375 1.54877 3.18C1.30127 2.88 1.31627 2.86875 1.35377 2.6925C1.53377 2.7525 1.80002 2.73 1.80002 2.6475C1.80002 2.5725 1.72502 2.44125 1.62002 2.49375C1.51502 2.54625 1.69502 2.61 1.56752 2.61C1.44377 2.61 1.35377 2.58375 1.35377 2.49375C1.35377 2.40375 1.47752 2.29875 1.65377 2.29875C1.83002 2.29875 2.05127 2.38875 2.01377 2.71125C1.97627 3.0375 0.92627 4.84875 0.92627 5.06625C0.92627 5.29125 1.12127 5.57625 1.63877 5.57625C1.97627 5.6025 2.10002 5.24625 2.22002 5.12625H2.21627Z" fill="#FFEC2D"/>
<path fill-rule="evenodd" clip-rule="evenodd" d="M2.25753 0.487503C2.38128 0.367503 2.34003 0.168753 2.68128 0.195003C3.19878 0.195003 3.21378 0.510003 3.21378 0.731253C3.21378 0.952503 2.43753 1.26 2.40003 1.58625C2.36253 1.9125 2.58003 1.99875 2.76003 1.99875C2.93628 1.99875 3.06003 1.8975 3.06003 1.8075C3.06003 1.7175 2.97753 1.6875 2.85003 1.6875C2.72253 1.6875 2.90628 1.75125 2.79753 1.8C2.68878 1.84875 2.61753 1.725 2.61753 1.65C2.61753 1.5675 2.88753 1.54125 3.06753 1.60125C3.10503 1.425 3.12003 1.41375 2.86878 1.11375C3.04878 1.23 3.06378 1.25625 3.26253 1.18875C3.06378 1.36125 3.21378 1.70625 3.21753 1.7925C3.22128 1.87875 3.18003 1.98375 3.10503 2.03625C2.95503 2.175 2.64378 2.175 2.45628 2.0925C2.18253 1.9725 2.16753 1.6125 2.23878 1.4925L3.00003 0.723753C3.05253 0.633753 3.07503 0.378753 2.75253 0.367503C2.41503 0.341253 2.29503 0.802503 2.23503 0.956253C2.15628 0.787503 2.06628 0.322503 1.72503 0.348753C1.40253 0.360003 1.34253 0.611253 1.39503 0.705003L2.17128 1.4925C2.24628 1.6125 2.23128 1.9725 1.95753 2.0925C1.77003 2.17875 1.45878 2.17125 1.31628 2.04C1.23378 1.9875 1.18878 1.88625 1.19628 1.79625C1.20378 1.70625 1.35003 1.365 1.15503 1.19625C1.35003 1.26 1.36878 1.23375 1.54503 1.12125C1.29753 1.4175 1.31628 1.42875 1.35003 1.60875C1.53003 1.54875 1.80003 1.57125 1.80003 1.65C1.80003 1.72875 1.72503 1.86 1.61628 1.8075C1.51128 1.755 1.69128 1.69125 1.56378 1.69125C1.44003 1.69125 1.35003 1.7175 1.35003 1.80375C1.35003 1.89 1.47378 2.0025 1.65378 2.0025C1.83378 2.0025 2.04753 1.9125 2.01003 1.58625C1.97253 1.26 1.18503 0.907503 1.18503 0.686253C1.18503 0.461253 1.23753 0.195003 1.75503 0.195003C2.09253 0.168753 2.13378 0.367503 2.25753 0.487503Z" fill="#FFEC2D"/>
<path d="M16.5569 7.72165C16.5569 5.93892 15.032 4.49374 13.1509 4.49374C11.2698 4.49374 9.74487 5.93892 9.74487 7.72165C9.74487 9.50438 11.2698 10.9496 13.1509 10.9496C15.032 10.9496 16.5569 9.50438 16.5569 7.72165Z" fill="#FFEC2D"/>
<path fill-rule="evenodd" clip-rule="evenodd" d="M12.9908 2.56859C12.9588 2.56859 12.8067 3.64123 12.7507 3.88137C12.6946 4.42169 13.4711 4.40168 13.343 3.86136L12.9908 2.56459V2.56859ZM13.263 12.9668C13.291 12.9668 13.5231 11.9061 13.5992 11.67C13.6912 11.1377 12.9148 11.1097 12.9988 11.654L13.263 12.9668ZM7.83575 7.69964C7.83575 7.72765 8.95242 7.95179 9.20056 8.02383C9.7609 8.11588 9.80092 7.38345 9.22458 7.4635L7.83575 7.70364V7.69964ZM18.7102 7.82771C18.7102 7.7997 17.5815 7.61559 17.3294 7.55155C16.7651 7.48351 16.7611 8.21594 17.3294 8.11588L18.7102 7.82771ZM8.98043 4.29762C8.96042 4.31763 9.69686 5.15012 9.84495 5.35425C10.2292 5.75448 10.7375 5.19415 10.2292 4.92199L8.98043 4.30162V4.29762ZM17.4294 11.1417C17.4495 11.1217 16.641 10.3532 16.4729 10.1651C16.0526 9.79688 15.6004 10.3932 16.1287 10.6254L17.4294 11.1457V11.1417ZM10.6654 3.13693C10.6414 3.14894 10.9856 4.18155 11.0417 4.42569C11.2338 4.934 11.9302 4.6018 11.57 4.16554L10.6694 3.13693H10.6654ZM15.5924 12.4384C15.6204 12.4264 15.3522 11.3738 15.3162 11.1297C15.1601 10.6094 14.4437 10.8895 14.7679 11.3538L15.5964 12.4344L15.5924 12.4384ZM16.8051 3.85736C16.7811 3.83735 15.8925 4.52175 15.6764 4.65783C15.2482 5.01805 15.8285 5.50634 16.1247 5.03005L16.8051 3.85736ZM9.48073 11.61C9.50074 11.63 10.4413 11.0096 10.6654 10.8855C11.1177 10.5573 10.5774 10.029 10.2452 10.4853L9.48473 11.61H9.48073ZM8.0799 5.84254C8.06789 5.86655 9.04047 6.43088 9.25259 6.57897C9.75289 6.83913 10.0451 6.15872 9.47273 6.05066L8.0799 5.84254ZM18.2339 9.78087C18.2459 9.75686 17.3134 9.12849 17.1133 8.96839C16.633 8.67221 16.2928 9.33261 16.8571 9.47669L18.2339 9.78087ZM15.008 2.86077C14.98 2.85276 14.4237 3.79732 14.2756 4.00144C14.2758 4.06663 14.2965 4.13009 14.3347 4.18293C14.3729 4.23577 14.4266 4.27534 14.4884 4.29608C14.5502 4.31683 14.6169 4.31771 14.6793 4.29861C14.7416 4.2795 14.7964 4.24137 14.8359 4.18955L15.008 2.86077ZM11.2498 12.6386C11.2778 12.6506 11.9022 11.742 12.0623 11.5459C12.3544 11.0816 11.646 10.7855 11.5139 11.3218L11.2498 12.6386ZM8.14794 9.86492C8.15995 9.88894 9.2686 9.62478 9.52876 9.58476C10.0731 9.43267 9.7689 8.76027 9.28862 9.07245L8.14794 9.86492ZM18.2379 5.75448C18.2299 5.73047 17.1053 5.91858 16.8451 5.94259C16.2848 6.05866 16.5449 6.75107 17.0452 6.47091L18.2379 5.75448Z" fill="#FFEC2D"/>
<path fill-rule="evenodd" clip-rule="evenodd" d="M14.0954 2.63663C14.0674 2.63263 13.6912 3.65323 13.5791 3.87737C13.415 4.39768 14.1795 4.52575 14.1675 3.97342L14.0994 2.63263L14.0954 2.63663ZM12.1543 12.8787C12.1823 12.8867 12.6346 11.8901 12.7627 11.67C12.9628 11.1657 12.2103 10.9896 12.1823 11.5379L12.1503 12.8787H12.1543ZM11.7661 2.73669C11.738 2.7447 11.8421 3.82534 11.8421 4.07348C11.9182 4.6058 12.6666 4.42169 12.4185 3.9254L11.7661 2.73669ZM14.4877 12.8187C14.5157 12.8147 14.4877 11.73 14.5077 11.4819C14.4717 10.9416 13.7072 11.0776 13.9233 11.5899L14.4837 12.8187H14.4877ZM9.83692 3.63322C9.8129 3.64923 10.3452 4.6058 10.4453 4.83394C10.7334 5.30221 11.3538 4.86195 10.9176 4.48973L9.83692 3.63322ZM16.4328 11.9542C16.4568 11.9382 15.9926 10.9456 15.9125 10.7134C15.6604 10.2291 15.012 10.6294 15.4162 11.0256L16.4328 11.9542ZM8.42808 4.97802C8.41207 5.00204 9.27258 5.71446 9.45269 5.89857C9.89695 6.23477 10.3092 5.6104 9.76488 5.41428L8.42808 4.97802ZM17.8016 10.5693C17.8177 10.5453 17.0132 9.77687 16.8451 9.58475C16.4288 9.22054 15.9726 9.81689 16.5009 10.049L17.8016 10.5693ZM7.81172 6.65502C7.80371 6.68303 8.86434 7.08727 9.09648 7.20334C9.6328 7.38345 9.8049 6.66702 9.22055 6.65101L7.81172 6.65502ZM18.5141 8.96839C18.5261 8.94437 17.4975 8.47209 17.2733 8.34002C16.753 8.12389 16.5249 8.82831 17.1052 8.88434L18.5141 8.96839ZM7.7757 8.71624C7.7797 8.74025 8.92438 8.72424 9.18453 8.74426C9.75287 8.71624 9.61679 7.99181 9.07246 8.18793L7.7757 8.71624ZM18.5901 6.91517C18.5901 6.88715 17.4454 6.82712 17.1893 6.7911C16.6169 6.78309 16.701 7.51553 17.2573 7.35143L18.5901 6.91117V6.91517ZM8.75628 10.8535C8.77229 10.8775 9.7969 10.3892 10.037 10.2972C10.5333 10.037 10.0771 9.44067 9.68083 9.84491L8.75628 10.8535ZM17.6536 4.75789C17.6375 4.73388 16.5849 5.15413 16.3328 5.23017C15.8165 5.45831 16.2287 6.08268 16.653 5.70645L17.6536 4.75789ZM10.4213 12.2703C10.4453 12.2824 11.1777 11.4499 11.3618 11.2738C11.71 10.8455 11.0416 10.4733 10.8455 10.9936L10.4213 12.2703ZM16.0126 3.31303C15.9926 3.29702 15.2001 4.07749 15.004 4.24158C14.6278 4.64582 15.2681 5.06207 15.5003 4.55777L16.0086 3.31303H16.0126Z" fill="#FFEC2D"/>
<path fill-rule="evenodd" clip-rule="evenodd" d="M7.94309 9.86864C8.00424 10.0751 8.01297 11.231 9.24458 12.3456C10.4674 13.452 12.5638 13.6997 12.5638 13.6997C12.5638 13.6997 12.5725 13.8565 12.424 13.8648C12.2755 13.8813 11.5593 13.7409 11.2012 13.6336C10.8518 13.5345 10.5373 13.3529 10.5024 13.3611C10.4587 13.3777 10.3888 13.4932 10.284 13.4767C10.1792 13.4602 9.67258 12.9648 9.44548 12.8327C8.99123 12.4616 8.58908 12.0371 8.24881 11.5695C8.00424 11.1979 7.94309 10.9502 7.86448 10.9502C7.78587 10.9502 7.49762 11.1319 7.49762 11.1319C7.49762 11.1319 7.23558 10.7603 7.00847 10.1659C6.77263 9.57141 6.79884 9.22464 6.85125 9.19987C6.91239 9.1751 6.91239 9.63746 7.08708 10.0585C7.26178 10.4879 7.50636 10.62 7.50636 10.62C7.50636 10.62 7.34913 10.3971 7.22684 9.84387C7.10455 9.29069 7.05215 8.75402 7.13949 8.58889C7.22684 8.42376 7.30545 8.37422 7.31419 8.38247C7.33166 8.39899 7.1657 8.63842 7.27925 9.27418C7.3928 9.90993 7.69852 10.4466 7.7684 10.4218C7.83828 10.3971 7.72472 10.265 7.68105 9.89341C7.63738 9.52187 7.72473 9.29069 7.82081 9.25766C7.86448 9.22464 7.93436 9.67049 7.94309 9.86864ZM7.08708 10.9255C6.85124 10.7191 6.48439 10.0007 6.40577 10.0338C6.31842 10.0751 6.99974 11.1071 7.01721 11.1897C7.03468 11.2888 7.18317 11.5695 7.06962 11.5282C6.95606 11.4869 6.14373 10.6778 6.23981 10.8347C6.33589 10.9915 6.94733 11.7016 6.91239 11.7429C6.87745 11.7842 6.40577 11.3466 6.3883 11.4044C6.37957 11.4539 6.85125 11.8832 6.84251 11.9328C6.83378 11.9823 6.53679 11.6603 6.53679 11.7264C6.53679 11.7924 6.84251 12.1144 6.84251 12.164C6.84251 12.2135 6.58047 11.9328 6.66782 12.0814C6.74643 12.2465 6.97353 12.3869 6.9648 12.4364C6.95606 12.486 6.77263 12.3704 6.77263 12.3951C6.77263 12.4199 7.11329 12.5355 7.1919 12.6263C7.27925 12.7171 7.83828 13.3281 8.25755 13.6336C8.67682 13.9391 9.88221 14.4758 9.96956 14.4758C10.0482 14.4758 10.1705 14.3106 10.1443 14.2446C10.1181 14.1785 8.93886 13.7987 8.61567 13.518C8.28375 13.2373 7.48015 12.5603 7.41027 12.5272C7.34913 12.486 7.1657 12.5025 7.1657 12.4612C7.1657 12.4199 7.40154 12.486 7.38407 12.4612C7.37533 12.4364 7.06088 12.3043 7.06962 12.2795C7.08709 12.2548 7.28799 12.3291 7.28799 12.3043C7.28799 12.2795 6.92112 12.0896 6.93859 12.0484C6.94733 12.0071 7.20937 12.1639 7.20937 12.1309C7.20937 12.1144 6.85998 11.8832 6.86871 11.8419C6.87745 11.8007 7.13949 12.0236 7.13076 11.974C7.12202 11.9245 6.92112 11.6438 6.92112 11.6108C6.92112 11.5695 7.23558 11.8915 7.27051 11.8254C7.28798 11.7676 7.15696 11.231 7.1657 11.2227C7.17443 11.2145 7.40154 11.3383 7.43648 11.264C7.48015 11.1814 7.27925 11.0741 7.08708 10.9255ZM11.1138 14.9877C10.9479 15.0124 10.8692 14.9546 10.9653 14.8225C11.0964 14.8225 11.4457 14.7152 11.568 14.6657C11.6903 14.6161 11.8213 14.5501 11.9262 14.4593C12.031 14.3519 12.1009 14.5171 12.0397 14.6079C11.996 14.6657 11.7951 14.773 11.6466 14.8308C11.4283 14.8969 11.2361 14.9959 11.1138 14.9877ZM12.2057 14.5666C12.0921 14.451 12.1882 14.3684 12.3542 14.2776C12.5987 14.1538 12.5289 13.9804 12.8433 13.84C12.9831 13.7575 14.9397 13.0144 15.5773 12.6181C16.2149 12.2217 18.0056 10.942 18.486 10.0585C18.9577 9.18335 18.7305 9.1173 18.8004 9.08428C18.8616 9.04299 18.9314 9.20812 18.9227 9.40628C18.9052 9.59618 18.748 10.1741 18.8004 10.2319C18.8528 10.2897 19.5167 9.77782 19.7962 9.15858C20.0757 8.53935 20.2853 7.89534 20.4164 7.89534C20.5561 7.89534 20.1893 8.95217 19.9534 9.365C19.7263 9.77782 19.4555 9.98423 19.5167 10.0751C19.5866 10.1576 20.2679 9.62095 20.5037 9.22464C20.7308 8.82007 20.9492 8.46504 20.9929 8.53935C20.9234 9.023 20.7216 9.48117 20.4076 9.86864C20.0408 10.265 19.604 10.5539 19.6739 10.6117C19.7351 10.6778 20.2329 10.7438 20.7483 10.4136C21.2724 10.0751 21.3248 9.58792 21.3859 9.61269C21.4558 9.63746 21.3248 10.3062 20.8269 10.7191C20.329 11.1319 19.6739 11.1732 19.6914 11.264C19.7263 11.3466 21.1151 10.8842 21.0889 10.9915C21.0627 11.0906 19.2896 11.7511 19.2721 11.8172C19.2721 11.8667 19.5778 11.8832 20.0582 11.7759C20.5299 11.6768 20.9841 11.3218 21.0453 11.4044C21.0627 11.5199 20.7046 11.8007 20.1631 11.9328C19.6128 12.0649 19.342 12.2383 19.3245 12.2795C19.3158 12.3208 20.3028 12.1639 20.3028 12.2135C20.3028 12.263 19.0101 12.5025 19.0013 12.5685C18.9839 12.6263 20.2242 12.3291 20.2067 12.4034C20.1718 12.4612 18.5209 12.9235 18.5384 12.9483C18.5471 12.9813 19.9185 12.6676 19.8923 12.7171C19.8573 12.7749 17.5863 13.3777 17.5688 13.4189C17.5514 13.452 19.5778 12.9896 19.5604 13.0309C19.5429 13.0722 18.5122 13.3116 18.5122 13.3364C18.5122 13.3611 19.342 13.2125 19.3245 13.2538C19.3158 13.2868 17.2282 13.7905 17.1845 13.8648C17.1408 13.9474 18.2676 13.6584 18.2501 13.807C18.2327 13.9556 15.8306 14.7152 15.8219 14.5748C15.8044 14.4345 17.2806 14.0795 17.2718 14.0382C17.2544 13.9969 16.4246 14.1207 16.4071 14.0464C16.3984 13.9639 16.9574 13.7987 16.9137 13.7657C16.87 13.7244 16.4508 13.8813 16.4857 13.7905C16.5294 13.6997 17.3242 13.3529 17.3068 13.3281C17.298 13.3033 17.0185 13.4107 17.0447 13.3281C17.0797 13.2373 18.7655 12.7749 18.7393 12.7171C18.7131 12.6676 17.9619 12.8327 17.892 12.8492C17.8658 12.7997 18.9402 12.4199 18.9227 12.3538C18.8878 12.2961 18.3462 12.5768 18.3113 12.5025C18.2938 12.4199 19.2634 12.0649 19.2022 12.0071C19.1411 11.9493 18.7043 12.1557 18.6432 12.0979C18.5821 12.0401 19.5604 11.4044 19.4119 11.3878C19.2634 11.3796 19.0799 11.586 19.0625 11.4539C19.0799 11.2888 19.8224 11.0163 19.6564 10.8842C19.3944 10.8099 18.5122 10.942 18.1453 11.1484C17.7785 11.3548 16.5556 12.5025 16.2586 12.6841C15.9616 12.8575 14.9484 13.2621 14.7562 13.3446C14.4592 13.4437 14.4068 13.5923 14.1011 13.7409C13.5508 13.8813 13.5596 14.0382 13.2975 14.129C13.2014 14.1538 12.2144 14.5996 12.2057 14.5666ZM10.8256 15.1445C10.6596 15.2271 10.5111 15.4253 10.6072 15.5078C10.6596 15.6069 10.8256 15.2849 10.9566 15.3014L11.6554 15.3344C12.031 15.3592 12.2144 15.2601 12.424 15.2766C12.6337 15.2932 13.0966 15.1693 13.315 15.1693C13.5334 15.1693 13.577 15.1941 13.5945 15.1033C13.6207 15.0207 12.9132 15.0785 12.5987 15.0702C12.2843 15.0537 11.8912 15.128 11.6554 15.128C11.437 15.1198 11.0614 15.0537 10.8256 15.1445Z" fill="#FFEC2D"/>
<path d="M11.8738 15.0455C11.8738 14.9771 11.8073 14.9216 11.7253 14.9216C11.6433 14.9216 11.5768 14.9771 11.5768 15.0455C11.5768 15.1139 11.6433 15.1693 11.7253 15.1693C11.8073 15.1693 11.8738 15.1139 11.8738 15.0455Z" fill="#FFEC2D"/>
<path fill-rule="evenodd" clip-rule="evenodd" d="M15.3589 14.806C15.5074 14.7813 15.9092 14.9134 16.1888 14.9712C16.6954 15.1611 17.6387 15.0702 17.6387 15.1611C17.6387 15.2519 17.5776 15.3592 17.3592 15.3757C17.1408 15.3922 16.5905 15.2932 16.608 15.2932C16.6255 15.2932 17.0448 15.4831 16.9225 15.5326C16.8002 15.5821 16.4421 15.4253 16.3809 15.4666C16.3198 15.5078 16.7128 15.5821 16.643 15.6069C16.5906 15.6317 16.3198 15.5739 16.2324 15.5821C16.1451 15.5987 16.3023 15.6895 16.1975 15.7225C16.0927 15.7638 15.918 15.673 15.8481 15.6977C15.7695 15.7225 16.0053 15.8629 15.9005 15.8794C15.7957 15.8959 15.5511 15.8133 15.4114 15.7968C15.2716 15.7968 15.5424 15.9289 15.455 15.9454C15.3677 15.9537 15.1231 15.8381 15.062 15.8381C15.0008 15.8381 15.062 16.0032 14.9746 16.0032C14.8873 16.0032 14.7824 15.8629 14.73 15.8629C14.6776 15.8629 14.73 16.028 14.6427 16.028C14.5553 16.028 14.5204 15.8546 14.4505 15.8629C14.3632 15.8794 14.4505 16.0858 14.3282 16.0693C14.2147 16.061 14.1972 15.8546 14.1011 15.8629C14.0138 15.8794 14.1186 16.0693 14.0313 16.0693C13.9439 16.0693 13.9264 15.8794 13.8391 15.8629C13.7517 15.8546 13.7867 16.0445 13.7343 16.0445C13.6819 16.0445 13.6295 15.8629 13.5945 15.8629C13.5683 15.8629 13.5945 16.0445 13.4897 16.028C13.3849 16.0115 13.3849 15.8298 13.3587 15.8381C13.3237 15.8546 13.3237 15.9867 13.2539 15.9867C13.184 15.9867 13.1753 15.8546 13.149 15.8711C13.1141 15.8794 13.0093 16.0445 12.9394 16.0197C12.8608 15.995 12.9569 15.8629 12.9219 15.8629C12.887 15.8629 12.7997 15.9537 12.7472 15.9454C12.6948 15.9372 12.7472 15.8298 12.7298 15.8298C12.7123 15.8298 12.5813 15.8959 12.5201 15.8959C12.459 15.8959 12.293 15.9785 12.2494 15.9042C12.2057 15.8216 12.3629 15.8216 12.3979 15.7473C12.4241 15.673 12.3105 15.45 12.4328 15.3757C12.5463 15.2932 12.9219 15.4831 13.481 15.351C14.4942 15.095 15.2803 14.7978 15.3589 14.806Z" fill="#FFEC2D"/>
</svg>
