<svg width="24" height="18" viewBox="0 0 24 18" fill="none" xmlns="http://www.w3.org/2000/svg">
<path fill-rule="evenodd" clip-rule="evenodd" d="M0 0H36.0038V11.9566H0V0Z" fill="#B20000"/>
<path fill-rule="evenodd" clip-rule="evenodd" d="M0 11.9566H36.0038V18H0V11.9566Z" fill="#429F00"/>
<path fill-rule="evenodd" clip-rule="evenodd" d="M0 0H3.98714V18H0V0Z" fill="white"/>
<path fill-rule="evenodd" clip-rule="evenodd" d="M0.18988 0.305859H0.379744V0.611719H0.18988V0.305859ZM0.759472 0.305859H1.32906V0.611719H0.759472V0.305859ZM0.949336 0H1.1392V0.305859H0.949336V0ZM1.89866 0H2.08852V0.305859H1.89866V0ZM2.65811 0.305859H3.2277V0.611719H2.65811V0.305859ZM2.84798 0H3.03784V0.305859H2.84798V0ZM0.569608 0.611719H0.949336V0.914062H0.569608V0.611719ZM1.1392 0.611719H1.51893V0.914062H1.1392V0.611719ZM2.46825 0.611719H2.84798V0.914062H2.46825V0.611719ZM3.03784 0.611719H3.41757V0.914062H3.03784V0.611719ZM0.379744 0.914062H0.759472V1.21992H0.379744V0.914062ZM1.32906 0.914062H1.70879V1.21992H1.32906V0.914062ZM2.27838 0.914062H2.65811V1.21992H2.27838V0.914062ZM3.2277 0.914062H3.60743V1.21992H3.2277V0.914062ZM3.60743 0.305859H3.7973V0.611719H3.60743V0.305859ZM0.18988 1.21992H0.569608V1.52578H0.18988V1.21992ZM1.51893 1.21992H1.89866V1.52578H1.51893V1.21992ZM3.41757 1.21992H3.7973V1.52578H3.41757V1.21992ZM0.379744 2.13398H0.759472V2.43984H0.379744V2.13398ZM0.569608 2.43984H0.949336V2.7457H0.569608V2.43984ZM1.32906 2.1375H1.70879V2.43984H1.32906V2.1375ZM1.1392 2.43984H1.51893V2.7457H1.1392V2.43984ZM0.759472 2.7457H1.32906V3.05156H0.759472V2.7457Z" fill="#B20000"/>
<path fill-rule="evenodd" clip-rule="evenodd" d="M0.94932 3.05156H1.13918V3.35742H0.94932V3.05156ZM2.27837 2.1375H2.6581V2.43984H2.27837V2.1375ZM2.46823 2.43984H2.84796V2.7457H2.46823V2.43984ZM3.22769 2.1375H3.60742V2.43984H3.22769V2.1375ZM3.03782 2.43984H3.41755V2.7457H3.03782V2.43984ZM2.6581 2.7457H3.22769V3.05156H2.6581V2.7457ZM2.84796 3.05156H3.03782V3.35742H2.84796V3.05156ZM1.89864 2.74218H2.0885V3.04804H1.89864V2.74218ZM0 2.74218H0.189864V3.04804H0V2.74218ZM3.79728 2.74218H3.98714V3.04804H3.79728V2.74218ZM0.94932 4.26797H1.13918V4.57383H0.94932V4.26797ZM0.759456 4.57734H1.32905V4.87968H0.759456V4.57734ZM0.569592 4.87968H1.51891V5.18554H0.569592V4.87968ZM2.84796 4.27148H3.03782V4.57734H2.84796V4.27148ZM2.6581 4.57734H3.22769V4.87968H2.6581V4.57734ZM2.46823 4.87968H3.41755V5.18554H2.46823V4.87968ZM2.6581 6.40547H3.60742V6.71132H2.6581V6.40547ZM2.27837 5.18554H3.60742V5.4914H2.27837V5.18554ZM0.379728 5.18554H1.70878V5.4914H0.379728V5.18554ZM0.569592 6.71132H1.13918V7.01718H0.569592V6.71132ZM0.379728 6.40547H1.32905V6.71132H0.379728V6.40547ZM3.03782 5.80078H3.98714V6.10664H3.03782V5.80078ZM2.84796 6.71484H3.41755V7.0207H2.84796V6.71484Z" fill="#B20000"/>
<path fill-rule="evenodd" clip-rule="evenodd" d="M0.759456 7.01719H0.94932V7.32305H0.759456V7.01719ZM3.03782 7.01719H3.22769V7.32305H3.03782V7.01719ZM0 5.79727H0.94932V6.10313H0V5.79727ZM1.70878 6.40547H2.27837V6.71133H1.70878V6.40547ZM1.89864 6.71485H2.0885V7.02071H1.89864V6.71485ZM1.32905 5.80078H2.6581V6.10664H1.32905V5.80078ZM2.0885 1.21992H2.46823V1.52578H2.0885V1.21992ZM1.70878 1.52578H2.27837V1.83164H1.70878V1.52578ZM1.51891 1.83164H1.89864V2.13399H1.51891V1.83164ZM2.0885 1.83164H2.46823V2.13399H2.0885V1.83164ZM0 1.52578H0.379728V1.83164H0V1.52578ZM0.189864 1.83164H0.569592V2.13399H0.189864V1.83164ZM3.60742 1.52578H3.98714V1.82813H3.60742V1.52578ZM3.41755 1.82813H3.79728V2.13047H3.41755V1.82813ZM0 4.57032H0.189864V4.87618H0V4.57032ZM3.79728 4.57032H3.98714V4.87618H3.79728V4.57032ZM1.70878 7.01368H2.27837V7.31953H1.70878V7.01368ZM1.51891 7.31953H1.89864V7.62188H1.51891V7.31953ZM2.0885 7.31953H2.46823V7.62188H2.0885V7.31953ZM1.32905 7.62188H1.70878V7.92774H1.32905V7.62188ZM2.27837 7.62188H2.6581V7.92774H2.27837V7.62188ZM1.13918 7.92774H1.51891V8.2336H1.13918V7.92774ZM2.46823 7.92774H2.84796V8.2336H2.46823V7.92774ZM0.94932 8.23711H1.32905V8.54297H0.94932V8.23711ZM2.6581 8.23711H3.03782V8.54297H2.6581V8.23711ZM0.569592 8.54297H1.13918V8.84883H0.569592V8.54297ZM2.84796 8.54297H3.41755V8.84883H2.84796V8.54297ZM3.22769 8.23711H3.60742V8.54297H3.22769V8.23711ZM3.41755 7.93125H3.79728V8.23711H3.41755V7.93125ZM3.60742 7.62539H3.98714V7.93125H3.60742V7.62539ZM0.379728 8.23711H0.759456V8.54297H0.379728V8.23711ZM0.189864 7.93125H0.569592V8.23711H0.189864V7.93125ZM0 7.62891H0.379728V7.93477H0V7.62891ZM0.759456 8.85235H0.94932V9.15469H0.759456V8.85235ZM3.03782 8.85235H3.22769V9.15469H3.03782V8.85235ZM1.89864 7.93828H2.0885V8.24063H1.89864V7.93828ZM1.32905 8.85235H1.51891V9.15469H1.32905V8.85235ZM2.46823 8.85235H2.6581V9.15469H2.46823V8.85235ZM1.89864 8.85235H2.0885V9.15469H1.89864V8.85235ZM0 8.85235H0.189864V9.15469H0L0 8.85235ZM3.79728 8.85235H3.98714V9.15469H3.79728V8.85235ZM1.89864 4.57735H2.0885V4.87969H1.89864V4.57735ZM0.94932 1.52578H1.13918V1.83164H0.94932V1.52578ZM2.84796 1.52578H3.03782V1.83164H2.84796V1.52578ZM1.70878 3.65977H2.27837V3.96563H1.70878V3.65977ZM1.32905 3.96563H1.89864V4.27149H1.32905V3.96563ZM1.51891 4.27149H1.70878V4.57735H1.51891V4.27149ZM1.13918 3.65977H1.51891V3.96563H1.13918V3.65977ZM1.32905 3.35742H1.89864V3.65977H1.32905V3.35742ZM1.51891 3.05157H1.70878V3.35742H1.51891V3.05157ZM2.0885 3.35742H2.6581V3.65977H2.0885V3.35742ZM2.27837 3.05157H2.46823V3.35742H2.27837V3.05157ZM2.46823 3.65977H2.84796V3.96563H2.46823V3.65977ZM2.0885 3.96563H2.6581V4.27149H2.0885V3.96563ZM2.27837 4.27149H2.46823V4.57735H2.27837V4.27149ZM3.03782 3.65977H3.41755V3.96563H3.03782V3.65977ZM3.22769 3.35742H3.79728V3.65977H3.22769V3.35742ZM3.60742 3.65977H3.98714V3.96563H3.60742V3.65977ZM3.22769 3.96563H3.79728V4.27149H3.22769V3.96563ZM3.41755 4.27149H3.60742V4.57735H3.41755V4.27149ZM3.41755 3.05157H3.60742V3.35742H3.41755V3.05157ZM0 3.65625H0.379728V3.96211H0V3.65625ZM0.189864 3.35391H0.759456V3.65625H0.189864V3.35391ZM0.569592 3.65625H0.94932V3.96211H0.569592V3.65625ZM0.189864 3.96211H0.759456V4.26797H0.189864V3.96211Z" fill="#B20000"/>
<path fill-rule="evenodd" clip-rule="evenodd" d="M0.379728 4.27148H0.569592V4.57734H0.379728V4.27148ZM0.379728 3.05156H0.569592V3.35742H0.379728V3.05156ZM0.189864 5.4914H0.94932V5.79726H0.189864V5.4914ZM1.13918 5.4914H1.89864V5.79726H1.13918V5.4914ZM2.0885 5.4914H2.84796V5.79726H2.0885V5.4914ZM3.03782 5.4914H3.79728V5.79726H3.03782V5.4914ZM1.51891 6.10312H2.46823V6.40547H1.51891V6.10312ZM0.189864 6.10312H1.13918V6.40547H0.189864V6.10312ZM2.84796 6.10312H3.79728V6.40547H2.84796V6.10312ZM3.79728 7.32304H3.98714V7.62539H3.79728V7.32304ZM0 7.32304H0.189864V7.62539H0V7.32304ZM0.189864 17.6941H0.379728V17.3918H0.189864V17.6941ZM0.759456 17.6941H1.32905V17.3918H0.759456V17.6941ZM0.94932 18H1.13918V17.6941H0.94932V18ZM1.89864 18H2.0885V17.6941H1.89864V18ZM2.6581 17.6941H3.22769V17.3883H2.6581V17.6941ZM2.84796 18H3.03782V17.6941H2.84796V18ZM0.569592 17.3883H0.94932V17.0859H0.569592V17.3883ZM1.13918 17.3883H1.51891V17.0859H1.13918V17.3883ZM2.46823 17.3883H2.84796V17.0859H2.46823V17.3883ZM3.03782 17.3883H3.41755V17.0859H3.03782V17.3883ZM1.32905 17.0859H1.70878V16.7801H1.32905V17.0859ZM2.27837 17.0859H2.6581V16.7801H2.27837V17.0859ZM3.22769 17.0859H3.60742V16.7801H3.22769V17.0859ZM3.60742 17.6941H3.79728V17.3883H3.60742V17.6941ZM0.189864 16.7801H0.569592V16.4742H0.189864V16.7801ZM1.51891 16.7801H1.89864V16.4742H1.51891V16.7801ZM3.41755 16.7801H3.79728V16.4742H3.41755V16.7801ZM0.379728 15.866H0.759456V15.5602H0.379728V15.866ZM0.569592 15.5602H0.94932V15.2543H0.569592V15.5602ZM1.32905 15.866H1.70878V15.5602H1.32905V15.866ZM1.13918 15.5602H1.51891V15.2543H1.13918V15.5602ZM0.759456 15.2543H1.32905V14.9484H0.759456V15.2543ZM0.94932 14.9484H1.13918V14.6461H0.94932V14.9484ZM2.27837 15.8625H2.6581V15.5602H2.27837V15.8625ZM2.46823 15.5602H2.84796V15.2543H2.46823V15.5602ZM3.22769 15.866H3.60742V15.5602H3.22769V15.866ZM3.03782 15.5602H3.41755V15.2543H3.03782V15.5602ZM2.6581 15.2543H3.22769V14.9484H2.6581V15.2543ZM2.84796 14.9484H3.03782V14.6461H2.84796V14.9484ZM1.89864 15.2578H2.0885V14.952H1.89864V15.2578ZM0 15.2578H0.189864V14.952H0V15.2578ZM3.79728 15.2578H3.98714V14.952H3.79728V15.2578ZM0.94932 13.732H1.13918V13.4262H0.94932V13.732ZM0.759456 13.4227H1.32905V13.1203H0.759456V13.4227ZM0.569592 13.1203H1.51891V12.8145H0.569592V13.1203ZM2.84796 13.7285H3.03782V13.4227H2.84796V13.7285Z" fill="#B20000"/>
<path fill-rule="evenodd" clip-rule="evenodd" d="M2.6581 13.4226H3.22769V13.1203H2.6581V13.4226ZM2.46823 13.1203H3.41755V12.8144H2.46823V13.1203ZM2.6581 11.5945H3.60742V11.2852H2.6581V11.5945ZM2.27837 12.8144H3.60742V12.5086H2.27837V12.8144ZM0.379728 12.8144H1.70878V12.5086H0.379728V12.8144ZM0.569592 11.2887H1.13918V10.9828H0.569592V11.2887ZM0.379728 11.5945H1.32905V11.2852H0.379728V11.5945ZM3.03782 12.1992H3.98714V11.8934H3.03782V12.1992ZM2.84796 11.2852H3.41755V10.9793H2.84796V11.2852ZM0 12.1992H0.94932V11.8934H0V12.1992ZM1.70878 11.591H2.27837V11.2852H1.70878V11.591ZM1.89864 11.2852H2.0885V10.9793H1.89864V11.2852ZM1.32905 12.1992H2.6581V11.8934H1.32905V12.1992ZM2.0885 16.7766H2.46823V16.4707H2.0885V16.7766ZM1.70878 16.4707H2.27837V16.1719H1.70878V16.4707ZM1.51891 16.1648H1.89864V15.859H1.51891V16.1648ZM2.0885 16.1648H2.46823V15.859H2.0885V16.1648ZM0 16.4742H0.379728V16.1719H0V16.4742ZM0.189864 16.1684H0.569592V15.866H0.189864V16.1684ZM3.60742 16.4742H3.98714V16.1719H3.60742V16.4742ZM3.41755 16.1684H3.79728V15.866H3.41755V16.1684ZM0 13.4297H0.189864V13.1238H0V13.4297ZM3.79728 13.4297H3.98714V13.1238H3.79728V13.4297ZM1.51891 10.6805H1.89864V10.3781H1.51891V10.6805ZM2.0885 10.6805H2.46823V10.3781H2.0885V10.6805ZM1.32905 10.3781H1.70878V10.0723H1.32905V10.3781ZM2.27837 10.3781H2.6581V10.0723H2.27837V10.3781ZM1.13918 10.0723H1.51891V9.7664H1.13918V10.0723ZM2.46823 10.0723H2.84796V9.7664H2.46823V10.0723ZM0.94932 9.76288H1.32905V9.45702H0.94932V9.76288ZM2.6581 9.76288H3.03782V9.45702H2.6581V9.76288ZM0.569592 9.45702H1.13918V9.15117H0.569592V9.45702ZM2.84796 9.45702H3.41755V9.15117H2.84796V9.45702ZM3.22769 9.76288H3.60742V9.45702H3.22769V9.76288ZM3.41755 10.0687H3.79728V9.76288H3.41755V10.0687ZM3.60742 10.3746H3.98714V10.0687H3.60742V10.3746ZM0.379728 9.76288H0.759456V9.45702H0.379728V9.76288ZM0.189864 10.0687H0.569592V9.76288H0.189864V10.0687ZM0 10.3711H0.379728V10.0652H0V10.3711ZM0.759456 9.14765H0.94932V8.84531H0.759456V9.14765ZM1.89864 10.0617H2.0885V9.75937H1.89864V10.0617ZM1.89864 13.4191H2.0885V13.1168H1.89864V13.4191ZM0.94932 16.4707H1.13918V16.1719H0.94932V16.4707ZM2.84796 16.4707H3.03782V16.1719H2.84796V16.4707ZM1.70878 14.3437H2.27837V14.0379H1.70878V14.3437ZM1.32905 14.0379H1.89864V13.732H1.32905V14.0379ZM1.51891 13.732H1.70878V13.4262H1.51891V13.732ZM1.13918 14.3437H1.51891V14.0379H1.13918V14.3437ZM1.32905 14.6426H1.89864V14.3437H1.32905V14.6426ZM1.51891 14.9484H1.70878V14.6461H1.51891V14.9484ZM2.0885 14.6426H2.6581V14.3437H2.0885V14.6426ZM2.27837 14.9484H2.46823V14.6461H2.27837V14.9484ZM2.46823 14.3402H2.84796V14.0344H2.46823V14.3402ZM2.0885 14.0344H2.6581V13.7285H2.0885V14.0344ZM2.27837 13.7285H2.46823V13.4226H2.27837V13.7285ZM3.03782 14.3437H3.41755V14.0379H3.03782V14.3437ZM3.22769 14.6426H3.79728V14.3437H3.22769V14.6426ZM3.60742 14.3402H3.98714V14.0344H3.60742V14.3402ZM3.22769 14.0344H3.79728V13.7285H3.22769V14.0344ZM3.41755 13.7285H3.60742V13.4226H3.41755V13.7285ZM3.41755 14.9484H3.60742V14.6461H3.41755V14.9484ZM0 14.3437H0.379728V14.0379H0V14.3437ZM0.189864 14.6426H0.759456V14.3437H0.189864V14.6426Z" fill="#B20000"/>
<path fill-rule="evenodd" clip-rule="evenodd" d="M0.569592 14.3402H0.94932V14.0344H0.569592V14.3402ZM0.189864 14.0344H0.759456V13.7285H0.189864V14.0344ZM0.379728 13.7285H0.569592V13.4227H0.379728V13.7285ZM0.379728 14.9484H0.569592V14.6461H0.379728V14.9484ZM0.189864 12.5086H0.94932V12.2027H0.189864V12.5086ZM1.13918 12.5086H1.89864V12.2027H1.13918V12.5086ZM2.0885 12.5086H2.84796V12.2027H2.0885V12.5086ZM3.03782 12.5086H3.79728V12.2027H3.03782V12.5086ZM1.51891 11.8969H2.46823V11.5945H1.51891V11.8969ZM0.189864 11.8969H1.13918V11.5945H0.189864V11.8969ZM2.84796 11.8969H3.79728V11.5945H2.84796V11.8969ZM3.79728 10.6805H3.98714V10.3711H3.79728V10.6805ZM0 10.6805H0.189864V10.3711H0V10.6805ZM1.70878 9.15117H1.89864V9.45703H1.70878V9.15117ZM2.0885 9.15117H2.27837V9.45703H2.0885V9.15117ZM2.0885 8.54297H2.27837V8.84883H2.0885V8.54297ZM1.70878 8.54297H1.89864V8.84883H1.70878V8.54297ZM0.379728 16.7801H0.759456V17.0859H0.379728V16.7801ZM3.03782 10.9828H3.22769V10.677H3.03782V10.9828ZM0.759456 10.9828H0.94932V10.677H0.759456V10.9828ZM1.70878 10.677H2.27837V10.9828H1.70878V10.677Z" fill="#B20000"/>
</svg>
