<svg width="24" height="18" viewBox="0 0 24 18" fill="none" xmlns="http://www.w3.org/2000/svg">
<g clip-path="url(#clip0_675_54781)">
<path fill-rule="evenodd" clip-rule="evenodd" d="M-1.51501 0H25.5131V18H-1.51501V0Z" fill="#FF0000"/>
<path fill-rule="evenodd" clip-rule="evenodd" d="M6.69395 9.1793C7.17207 8.5957 8.16699 9.16523 8.9791 8.74688C8.01582 8.79961 7.49199 8.28281 6.73262 8.35664C7.52012 7.87148 8.1916 8.51484 9.07051 8.2582C7.90684 8.15977 7.95605 7.63594 6.89434 7.56211C7.83652 7.16133 8.30059 7.97695 9.2252 7.79063C8.13535 7.54102 7.99473 6.90117 7.18613 6.76406C8.36738 6.58828 8.29004 7.28438 9.44668 7.36875C8.27246 6.86602 8.57832 6.42656 7.59746 6.04336C8.69785 6.01875 8.62402 6.78164 9.74199 6.97852C8.78574 6.37383 8.90176 5.82188 8.11777 5.38945C9.04941 5.40703 9.13731 6.35977 10.09 6.65508C9.24277 5.98359 9.46426 5.41406 8.73301 4.81289C9.66113 5.03086 9.52402 5.85352 10.4908 6.38086C9.77363 5.58633 10.0479 5.0168 9.42559 4.36641C10.3186 4.65117 9.97754 5.43516 10.9021 6.18047C10.3748 5.30508 10.7018 4.74609 10.1779 4.01133C11.0076 4.43672 10.6068 5.23828 11.3732 6.03281C11.0111 5.13633 11.3732 4.58086 11.0041 3.78633C11.7143 4.31367 11.2924 5.16797 11.8654 5.98359C11.6545 4.85859 12.1396 4.67578 11.9885 3.69141C12.5264 4.35234 11.9252 5.01328 12.34 5.98711C12.2873 4.87969 12.8779 4.62305 12.776 3.73711C13.3068 4.53164 12.4771 5.22422 12.8252 6.075C12.9131 5.02734 13.6021 4.75313 13.6127 3.9375C14.0346 4.68633 13.1205 5.22773 13.2682 6.22266C13.567 5.12578 14.3018 4.99219 14.3932 4.25391C14.6428 5.11875 13.6408 5.51953 13.7006 6.48281C13.9994 5.50898 14.917 5.39297 15.1068 4.67578C15.2229 5.58984 14.3193 5.75508 14.0627 6.76758C14.5373 5.94141 15.3705 5.87461 15.7432 5.2207C15.715 6.12773 14.6955 6.24727 14.3826 7.09453C14.9697 6.37383 15.708 6.49687 16.2951 5.86055C16.2318 6.67969 15.1947 6.63398 14.6428 7.48125C15.2791 6.89414 16.2389 7.06992 16.7275 6.56367C16.7029 7.28789 15.4303 7.23164 14.8291 7.88203C15.5674 7.47422 16.5096 7.71328 17.051 7.33711C16.9525 7.96992 15.6096 7.82227 14.9662 8.32148C15.8521 8.07539 16.5377 8.45156 17.2514 8.18086C16.9033 8.79609 15.6834 8.40586 15.0365 8.80664C15.81 8.67656 16.6256 9.14414 17.3252 8.99297C17.0967 9.52734 15.7572 8.95781 15.04 9.2918C15.8979 9.28477 16.4568 9.83672 17.2549 9.79805C16.8225 10.2832 15.6482 9.61875 14.9627 9.73125C15.7994 9.90703 16.4393 10.5961 17.0721 10.6312C16.5482 11.0285 15.5779 10.1215 14.7869 10.234C15.6025 10.452 16.2846 11.3766 16.7486 11.3977C16.2459 11.7422 15.2545 10.6066 14.576 10.6488C15.4021 11.0215 15.7783 11.9672 16.3232 12.1008C15.6518 12.3152 14.9908 11.0742 14.2701 11.0285C15.1068 11.5559 15.1525 12.3645 15.7959 12.723C15.1174 12.8883 14.6357 11.4855 13.9221 11.366C14.6076 11.8687 14.7131 12.948 15.1666 13.2855C14.4775 13.3207 14.2279 11.8547 13.5213 11.6438C14.126 12.15 13.9818 13.2469 14.4529 13.718C13.7357 13.5668 13.8271 12.2906 13.0783 11.8582C13.6162 12.5402 13.342 13.507 13.6936 14.052C12.9939 13.7707 13.2963 12.6246 12.6318 11.9777C12.9939 12.702 12.6037 13.5457 12.892 14.2453C12.2521 13.9324 12.6811 12.5789 12.1924 12.041C12.4174 12.8777 12.0025 13.5703 12.1713 14.3191C11.5174 13.5633 12.2697 12.8004 11.7037 12.0305C11.8514 12.9129 11.2326 13.5316 11.3311 14.2699C10.8143 13.6652 11.6123 12.6984 11.208 11.9355C11.2924 12.8039 10.4943 13.5668 10.5506 14.1152C10.1287 13.4121 11.0182 12.5824 10.7791 11.7844C10.7299 12.6141 9.92129 13.0641 9.77012 13.8199C9.49941 12.9867 10.4592 12.3855 10.3748 11.5664C10.1006 12.3434 9.32012 12.6563 9.0459 13.4121C8.8209 12.5789 9.95996 12.1395 9.98809 11.2676C9.63652 12.0832 8.70488 12.266 8.39551 12.8918C8.27949 12.0656 9.58379 11.6965 9.63301 10.9125C9.21113 11.6648 8.1916 11.6965 7.84004 12.2941C7.7873 11.4715 9.16191 11.3695 9.37637 10.5082C8.95801 11.148 7.84004 11.0672 7.37246 11.5875C7.44629 10.8246 8.9334 10.7789 9.17246 10.0898C8.61699 10.6242 7.59043 10.4062 7.01035 10.8281C7.33379 10.0758 8.72949 10.234 9.04238 9.69258C8.42715 10.0125 7.33379 9.69961 6.79238 10.023C7.28457 9.31289 8.36738 9.73828 8.98262 9.24961C7.98418 9.39375 7.38301 8.99648 6.69043 9.1793H6.69395Z" fill="#FFFF00"/>
<path fill-rule="evenodd" clip-rule="evenodd" d="M15.5006 9.00352C15.5006 9.92893 15.133 10.8164 14.4786 11.4708C13.8243 12.1252 12.9368 12.4928 12.0114 12.4928C11.0859 12.4928 10.1984 12.1252 9.54407 11.4708C8.88971 10.8164 8.52209 9.92893 8.52209 9.00352C8.52209 8.07858 8.88953 7.19152 9.54356 6.53749C10.1976 5.88345 11.0847 5.51602 12.0096 5.51602C12.9345 5.51602 13.8216 5.88345 14.4756 6.53749C15.1297 7.19152 15.4971 8.07858 15.4971 9.00352H15.5006Z" fill="#FFFF00"/>
<path fill-rule="evenodd" clip-rule="evenodd" d="M15.0506 9.01055C15.0506 9.81521 14.731 10.5869 14.162 11.1559C13.593 11.7249 12.8213 12.0445 12.0166 12.0445C11.212 12.0445 10.4403 11.7249 9.8713 11.1559C9.30232 10.5869 8.98267 9.81521 8.98267 9.01055C8.98267 8.20588 9.30232 7.43418 9.8713 6.8652C10.4403 6.29621 11.212 5.97656 12.0166 5.97656C12.8213 5.97656 13.593 6.29621 14.162 6.8652C14.731 7.43418 15.0506 8.20588 15.0506 9.01055Z" fill="#FF0000"/>
<path fill-rule="evenodd" clip-rule="evenodd" d="M14.6287 9.01758C14.6287 9.70849 14.3543 10.3711 13.8657 10.8597C13.3772 11.3482 12.7146 11.6227 12.0237 11.6227C11.3327 11.6227 10.6701 11.3482 10.1816 10.8597C9.69304 10.3711 9.41858 9.70849 9.41858 9.01758C9.41858 8.32667 9.69304 7.66406 10.1816 7.17552C10.6701 6.68697 11.3327 6.41251 12.0237 6.41251C12.7146 6.41251 13.3772 6.68697 13.8657 7.17552C14.3543 7.66406 14.6287 8.32667 14.6287 9.01758Z" fill="#FFFF00"/>
<path fill-rule="evenodd" clip-rule="evenodd" d="M9.80531 7.31251C10.526 7.29493 11.4225 7.36173 12.0166 7.83282C12.6514 7.43668 13.3987 7.26004 14.1436 7.33008L14.5303 8.03673C13.9294 7.9819 13.3244 8.08111 12.7725 8.32501C13.167 8.61593 13.4841 8.99911 13.6962 9.441C13.9082 9.8829 14.0087 10.37 13.9889 10.8598C13.894 10.9793 13.7428 11.1094 13.6479 11.2289C13.7885 10.227 13.2612 9.10899 12.4912 8.52188C13.117 9.42188 13.4862 10.2305 13.3842 11.3484L13.0327 11.5734C13.1944 10.5891 12.9623 9.42891 12.2346 8.76094C12.6565 9.37618 13.0713 10.4836 12.8112 11.6086C12.6987 11.6438 12.5229 11.7387 12.4104 11.7703C12.5482 11.3088 12.5856 10.823 12.5201 10.3458C12.4547 9.86858 12.2878 9.41089 12.0307 9.00352C11.5455 9.69962 11.3873 10.7613 11.6616 11.7457C11.528 11.7106 11.426 11.6684 11.2889 11.6367C11.0885 10.582 11.3662 9.38672 11.8479 8.76446C11.3557 9.04923 10.8952 10.2656 11.0252 11.5066L10.6983 11.3555C10.5401 10.4309 10.9584 9.22501 11.5596 8.52891C10.8776 8.95782 10.3221 10.016 10.417 11.1516C10.3116 11.0602 10.2166 11.0145 10.1112 10.9195C9.99164 9.92813 10.5682 8.92969 11.2397 8.33204C10.6737 8.0754 10.185 8.02618 9.48187 8.03673C9.59086 7.80821 9.69281 7.54102 9.80531 7.30899V7.31251Z" fill="#FF0000"/>
</g>
<defs>
<clipPath id="clip0_675_54781">
<rect width="24" height="18" rx="2" fill="white"/>
</clipPath>
</defs>
</svg>
