<svg xmlns="http://www.w3.org/2000/svg" fill="none" viewBox="0 0 122 42"><g clip-path="url(#clip0_1241_71605)"><path fill="#5EBC52" d="M18.129 42A20.05 20.05 0 0 1 .269 31.05c-.671-1.314-.037-2.918 1.356-3.4a2.41 2.41 0 0 1 2.935 1.177 15.212 15.212 0 0 0 25.787 2.188c.908-1.225 2.169-3.175 2.169-6.307l4.333 4.543s-.229.65-.668 1.478c-.439.824-.622 1.137-.89 1.58a20.048 20.048 0 0 1-17.162 9.69z"/><path fill="#58595B" d="M27.709 20.82c-.184-2.436-1.263-4.377-3.125-5.614-1.554-1.032-3.65-1.558-6.225-1.558h-.288v-.01h-2.52V9.677h8.107c1.215 0 2.207-.92 2.207-2.097 0-1.18-1.004-2.16-2.207-2.16H13.343a2.207 2.207 0 0 0-2.207 2.208v8.085c0 1.218.986 2.208 2.207 2.208h5.107c3.416 0 4.504 1.568 4.504 3.186 0 1.592-.86 4.147-4.447 4.147-2.966 0-4.737-2.007-5.104-2.335-1.097-.984-2.204-.915-2.938-.268-.935.827-.82 1.986-.255 2.846.673 1.02 3.296 4.189 8.294 4.189 2.838 0 5.347-1.02 7.06-2.868 1.528-1.646 2.307-3.83 2.145-5.996zM77.31 23.724c-2.409-.117-4.7-1.104-5.735-2.04-1.145-1.038-1.362-2.425-.469-3.204 1.17-1.02 2.355-.087 2.86.226 2.623 1.627 4.716 1.501 5.708.716.58-.458.818-1.026.74-1.499-.145-.857-1.15-1.161-2.4-1.504-.941-.259-3.477-1.002-4.68-1.694-1.723-.996-2.907-2.654-2.504-4.962.424-2.44 2.529-4.278 5.277-4.534 3.483-.325 5.185.518 6.183 1.056 1.429.77 1.696 2.341.947 3.235-.345.412-1.353.8-2.36.355-3.444-1.523-5.2-1.104-5.648-.21-.475.947.382 1.859 1.483 2.283.066.024.724.292 1.654.593.803.261 1.798.532 2.887.938 2.005.747 3.693 2.335 3.44 4.992-.135 1.411-.968 2.967-2.213 3.887-.918.677-2.734 1.487-5.17 1.366zM98.01 19.473c-.508-.19-1.254-.108-1.696-.03-.595.105-1.527.216-2.285 0-1.323-.376-1.813-1.131-1.813-2.296v-7.78h3.14c1.193 0 2.164-.927 2.164-2.068 0-1.143-.968-2.067-2.165-2.067h-3.14v-2.97a2.26 2.26 0 0 0-4.52 0v2.97h-1.022c-1.194 0-2.165.927-2.165 2.067 0 1.144.968 2.067 2.165 2.067h1.023v7.781a6.6 6.6 0 0 0 6.628 6.632c3.713 0 4.697-1.333 4.697-2.582-.003-.897-.304-1.462-1.01-1.724zM60.875 5.232c-4.98 0-9.031 4.15-9.031 9.246 0 5.1 4.05 9.246 9.028 9.246 4.98 0 9.027-4.149 9.027-9.245.006-5.1-4.044-9.247-9.024-9.247zm0 14.325c-2.575 0-4.665-1.829-4.665-5.078 0-3.25 2.093-5.1 4.665-5.1 2.57 0 4.664 1.85 4.664 5.1 0 3.249-2.093 5.078-4.664 5.078zM41.955 5.232c-1.772 0-3.98 1.026-5.1 2.615-.064-1.531-.885-2.557-2.082-2.557a2.263 2.263 0 0 0-2.261 2.262v20.8a2.261 2.261 0 1 0 4.523 0v-6.827c.857 1.116 2.989 2.209 5.109 2.209 4.98 0 8.559-4.156 8.559-9.256 0-5.1-3.61-9.246-8.748-9.246zm-.283 14.325c-2.893 0-4.896-2.025-4.896-5.078 0-3.343 2.445-5.1 4.896-5.1 2.571 0 4.664 2.41 4.664 5.1.003 2.69-2.09 5.078-4.664 5.078z"/><path fill="#231F20" d="M114.575 11.49l-1.281-2.13-1.257 2.13h-1.501l1.931-3.21-1.967-2.978h1.567l1.26 1.988 1.203-1.988h1.5l-1.933 3.078 1.988 3.11h-1.51zM120.966 9.387c0 1.36-1.026 2.212-2.37 2.212-1.185 0-2.18-.653-2.28-2.08h1.281c.091.62.584.885 1.122.885.671 0 .962-.451.962-1.035 0-.61-.451-.99-1.076-.99-.52 0-.866.25-1.026.515h-1.224l.424-3.59h4.027l-.135 1.204h-2.881l-.114 1.188s.303-.355 1.221-.355c1.103-.006 2.069.738 2.069 2.046z"/><path fill="#5EBC52" d="M116.469 4.531C115.786 1.868 113.621 0 109.128 0h-5.425l.737 4.983c.553 4.495 2.273 5.942 5.314 6.474.015.003.111.016.111-.096a.098.098 0 0 0-.06-.09c-2.057-.867-2.292-3.707-2.731-6.556l-.34-2.272h3.098c2.857 0 5.061-.045 6.457 2.16.021.03.054.055.09.055.054 0 .093-.046.093-.1 0-.009 0-.018-.003-.027z"/></g><defs><clipPath id="clip0_1241_71605"><path fill="#fff" d="M0 0h122v42H0z"/></clipPath></defs></svg>