<svg xmlns="http://www.w3.org/2000/svg" fill="none" viewBox="0 0 147 42"><g clip-path="url(#clip0_1241_71378)"><path fill="#00B33C" fill-rule="evenodd" d="M23.034 31.214h-6.34c-9.888 0-2.704-21.222 5.621-21.222H32.33c1.606 0 4.438.299 5.832-3.715L40.317.043H26.583c-7.437 0-13.227 2.647-17.41 7.088-7.226 7.6-9.677 19.471-7.945 25.15 1.648 5.252 6.128 8.711 13.143 8.797l5.451.042h6.719l1.648-4.996c1.226-3.544-1.521-4.91-5.155-4.91zm77.163-8.796l2.071-6.79H80.167c-3.677 0-5.325 1.025-5.959 3.16l-2.07 6.79h22.1c3.677 0 5.325-1.025 5.959-3.16zM68.842 34.374l-2.071 6.789h22.101c3.634 0 5.325-1.025 5.959-3.16l2.07-6.79h-22.1c-3.635 0-5.283 1.026-5.96 3.16zm36.511-27.5l2.071-6.789H85.322c-3.676 0-5.324 1.025-5.958 3.16l-2.07 6.79h22.1c3.635 0 5.282-1.025 5.959-3.16zM71.969 8.242C71.039 1.921 67.7.085 59.587.085h-14.79l-8.621 25.492h5.451c3.254 0 4.902.043 6.635-4.654l3.592-10.931h5.493c4.691 0 3.635 5.935 1.268 11.7-2.113 5.081-5.79 9.564-10.227 9.564h-9.17c-3.676 0-5.366 1.025-6.042 3.16l-2.282 6.79h6.719l6.592-.043c5.832-.043 10.607-.47 16.185-5.551 5.916-5.423 12.762-19.343 11.579-27.37zm74.29-8.198h-12.804L121.411 12.98c-1.395 1.494-2.831 2.989-4.226 4.74h-.127L123.059.043h-10.437l-14.073 41.12h10.438l4.479-12.938 4.648-3.971 3.677 11.7c1.141 3.629 2.325 5.209 4.86 5.209h7.987L126.44 18.19 146.259.043z" clip-rule="evenodd"/></g><defs><clipPath id="clip0_1241_71378"><path fill="#fff" d="M0 0h147v42H0z"/></clipPath></defs></svg>