<svg xmlns="http://www.w3.org/2000/svg" fill="none" viewBox="0 0 86 42"><g clip-path="url(#clip0_1241_71395)"><path fill="#0055A5" d="M0 41.994h41.664V0H0v41.994zM84.756.006H44.344V42h41.658V.006h-1.246z"/><path fill="#fff" d="M46.84 39.483h36.658V2.523H46.84v36.96zM3.813 23.014v8.755h1.431v-2.542c.28.245.589.392.919.392.473 0 .862-.251 1.167-.753.343-.559.514-1.384.514-2.463 0-.753-.137-1.431-.404-2.009l-.047-.094-.047-.079-.031-.078-.047-.063-.047-.078-.062-.078-.047-.063-.047-.063-.062-.063-.047-.062-.062-.063-.063-.047-.062-.063-.062-.047-.062-.047-.063-.048-.077-.03-.063-.048-.062-.031-.078-.031-.077-.032-.078-.031-.078-.032-.077-.015-.078-.016-.078-.015-.093-.031h-.078l-.093-.016h-.077l-.094-.015H3.813v-.002zm1.354 1.24h.14c.36 0 .641.21.84.611.2.402.296 1.023.296 1.883 0 .464-.056.831-.187 1.083-.124.25-.286.376-.467.376-.174 0-.317-.119-.435-.345-.118-.22-.187-.536-.187-.957v-2.652zM37.503 22.588l-.118.119s-2.995 3.15-3.219 3.389v-3.088h-1.4v8.774h1.4V28.18c.038-.044 1.837-1.965 2.042-2.185.013.32.206 5.787.206 5.787h1.432l-.343-9.194zM30.677 22.707l-.007.013-.012.006-.013.019-.019.018-.025.025-.025.026-.031.031-.03.032-.038.038-.038.044-.043.043-.044.044-.044.05-.05.05-.055.057-.112.12-.118.125-.125.132-.13.138-.137.144-.144.144-.143.15-.143.158-.293.307-.143.15-.142.145-.137.145-.13.144-.131.132-.119.126-.112.119-.056.056-.05.057-.05.05-.043.05-.044.044-.037.044-.037.038-.038.038-.03.031-.025.026-.025.025-.02.025-.018.012-.013.02v-3.089h-1.407v8.774h1.407v-3.602c.037-.044 1.837-1.965 2.042-2.184l.206 5.787h1.425l-.342-9.196-.113.12zM22.531 29.604l-.087-.106-.075-.106-.074-.12-.063-.119-.062-.125-.056-.126-.056-.132-.044-.132-.037-.144-.037-.138-.032-.15-.025-.151-.019-.157-.012-.157-.007-.163-.006-.164c0-.922.224-1.657.66-2.196.48-.59 1.177-.885 2.086-.885h.068v-1.531h-.068c-1.42 0-2.51.439-3.25 1.324-.672.797-1.015 1.907-1.015 3.3 0 1.344.374 2.455 1.102 3.29.772.878 1.837 1.33 3.182 1.33h.068V30.51h-.068c-.883 0-1.58-.302-2.073-.905zM11.272 22.794c-.753 0-1.354.43-1.79 1.27-.424.83-.638 1.93-.638 3.28 0 1.393.202 2.52.607 3.342.41.841 1.024 1.27 1.82 1.27.817 0 1.46-.454 1.916-1.333.423-.822.638-1.933.638-3.295 0-1.343-.219-2.442-.654-3.264l-.047-.078-.047-.078-.031-.079-.063-.062-.031-.063-.062-.063-.047-.063-.047-.062-.047-.063-.062-.063-.047-.047-.062-.047-.047-.048-.062-.047-.047-.047-.062-.047-.063-.032-.062-.03-.062-.032-.062-.031-.063-.032-.062-.031-.062-.016-.078-.032-.062-.015-.078-.016-.062-.015h-.062l-.078-.016-.078-.015h-.154zm0 1.412c.398 0 .691.286.872.863.174.52.249 1.28.249 2.26 0 .947-.088 1.735-.28 2.337l-.032.063-.015.047-.016.047-.015.048-.015.047-.031.047-.016.047-.031.032-.016.047-.031.032-.015.047-.016.031-.03.032-.032.03-.016.032-.03.015-.016.032-.031.03-.031.016-.032.031-.03.016-.032.016-.016.015-.031.016h-.032l-.03.015-.032.016h-.031l-.032.015h-.109c-.342 0-.6-.294-.794-.878-.2-.61-.296-1.39-.296-2.307 0-.935.097-1.707.296-2.29.182-.558.446-.847.795-.847zM17.133 29.604l-.037-.05-.044-.056-.081-.106-.068-.12-.07-.119-.061-.125-.056-.126-.05-.132-.05-.132-.037-.144-.038-.138-.024-.15-.025-.151-.019-.157-.012-.157-.013-.163v-.164c0-.922.218-1.657.66-2.196.473-.59 1.17-.885 2.08-.885h.075v-1.531h-.075c-1.414 0-2.51.439-3.244 1.324-.679.797-1.014 1.907-1.014 3.3 0 1.344.367 2.455 1.102 3.29.765.878 1.836 1.33 3.181 1.33h.069V30.51h-.069c-.89 0-1.588-.302-2.08-.905zM3.828 10.142v8.818h1.613v-7.356h1.992v7.356H9.04v-8.818H3.828zM13.982 9.912c-.854 0-1.538.433-2.024 1.287-.48.835-.716 1.94-.716 3.294 0 1.4.224 2.545.685 3.374.467.848 1.158 1.27 2.055 1.27.915 0 1.637-.442 2.147-1.333.48-.828.732-1.948.732-3.31 0-1.356-.261-2.467-.747-3.295l-.047-.079-.047-.078-.046-.078-.063-.063-.047-.078-.062-.063-.047-.063-.062-.063-.062-.063-.047-.047-.062-.062-.063-.048-.062-.047-.062-.047-.078-.047-.062-.032-.062-.047-.063-.032-.077-.031-.063-.031-.077-.032-.078-.032-.062-.015-.078-.032-.078-.015-.077-.016-.078-.016-.078-.015H14.153l-.078-.016h-.093zm.016 1.49c.435 0 .744.283.949.848.187.515.28 1.265.28 2.244 0 .935-.11 1.716-.327 2.306-.212.578-.504.848-.902.848h-.14l-.032-.016-.032-.016h-.031l-.031-.015-.031-.016-.032-.015-.031-.016-.031-.015-.032-.032-.03-.016-.032-.03-.031-.016-.016-.032-.031-.031-.032-.032-.015-.031-.031-.032-.032-.047-.015-.032-.032-.031-.015-.048-.031-.047-.015-.032-.016-.062-.031-.047-.016-.048-.015-.047-.031-.047c-.218-.609-.327-1.38-.327-2.291 0-.935.109-1.698.326-2.275.209-.557.498-.83.89-.83zM25.625 10.142v1.462h1.338v7.356h1.613v-7.356h1.357v-1.462h-4.308zM22.095 13.211h-.877c-.361 0-.635-.081-.804-.245-.124-.112-.18-.27-.18-.47v-2.354H18.62v2.517c0 .577.23 1.073.678 1.462.442.383.99.577 1.62.577h1.176v4.261h1.613v-8.817h-1.613v3.069zM32.034 10.147l-.296 8.818h1.604s.149-4.12.155-4.315h2.008l.466 4.315h1.62l-.748-6.448v-.235l-.015-.079v-.078l-.016-.063v-.078l-.015-.063-.016-.078-.015-.063-.015-.063-.016-.063-.015-.062-.032-.063-.015-.063-.016-.063-.031-.062-.031-.047-.032-.063-.015-.047-.032-.063-.031-.047-.047-.048-.031-.062-.031-.032-.047-.063-.032-.031-.047-.048-.046-.047-.047-.031-.032-.048-.062-.047c-.404-.32-.953-.47-1.65-.47h-2.379zm1.541 1.46h.576c.417 0 .697.134.872.392.143.213.24.62.295 1.192h-1.79v-.251l.016-.047v-.627l.015-.063V11.747l.016-.031v-.11z"/><path fill="#0055A5" d="M56.961 13.575l.056.132.069.125.068.132.081.138.043.063.05.068.044.07.05.069.056.069.055.069.056.069.062.07.069.074.068.07.07.075.074.075.081.076.08.075.088.075.094.082.093.075.1.081.099.082.105.087.12.082.111.088.125.082.124.087c.305.214.654.66.393 1.28-.262.628-.748 1.507-.455 1.852.293.345 1.326.521 2.173.182 0 0 .18.54.492.885 0 0-.15.295-.635.144 0 0 .18.446-.069.923 0 0-.566-.1-.816-.628 0 0-.224.414-.678.558 0 0-.373-.194-.292-.947 0 0-.274.672-1.121.785 0 0-.486-.621.15-1.456 0 0-.461.408-1.283.213 0 0-.137-.427.616-1.017 0 0-.846-.037-1.17-.753 0 0 .355-.445 1.233-.345 0 0-.816-.182-.996-1.162 0 0 .585-.376 1.519.226 0 0-.162-.313-.554-.627-.393-.3-.866-1.173-.698-2.453zM60.36 23.46l-.024-.03-.019-.032-.025-.032-.018-.031-.019-.031-.019-.031-.018-.026-.019-.03-.019-.032-.018-.032-.013-.031-.019-.031-.012-.025-.019-.031-.012-.032-.013-.032c.15 1.193.2 1.996.834 2.768 0 0 .393-.514.137-1.77a1.288 1.288 0 0 1-.342-.163s.15.509.056 1.023c0 0-.23-.17-.398-1.369zM59.253 23.335l-.006-.006-.006-.013-.006-.012-.012-.006-.006-.013-.013-.012-.006-.013-.013-.013-.006-.012-.013-.019-.018-.025-.019-.031-.025-.032-.018-.031-.02-.031-.024-.031-.019-.032-.018-.025-.019-.031-.006-.019-.006-.012-.013-.013-.006-.013c-.055.69-.236 2.51.374 3.082 0 0 .41-.308.56-2.962-.087.15-.243.307-.318.395 0 0 .1.841-.199 1.437 0 0-.3-.233-.119-1.507zM57.814 24.728l.044-.057.043-.068.044-.076.044-.081.037-.082.037-.088.032-.094.037-.094.031-.1.031-.1.025-.101.025-.107.05-.207.018-.1.025-.101.02-.1.012-.094.019-.094.012-.095.013-.087.012-.082.012-.075.006-.07.007-.068.006-.057.006-.025V22.4l.006-.025v-.038l.007-.012v-.05c.068-.044.143-.1.211-.157.032-.025.057-.044.088-.076 0 .07 0 .138.006.208-.075 1.104-.162 2.247-.505 2.818-.336.558-.952.847-.952.847-.58-1.042.118-2.435.703-3.408.075-.025.15-.056.224-.094-.212.746-.598 1.63-.436 2.315zM56.378 21.533V21.622l.006.018v.038l.006.005v.032l.006.012v.019l.007.006v.019l.006.006v.019l.006.006c.006.013.013.044.025.076-.486.47-.847.935-1.563 1.939-.722 1.01-1.861 1.048-1.861 1.048.112-.816.33-1.463.94-2.153.604-.697 1.388-1.33 1.961-1.751.15.07.342.113.585.082.013 0 .038-.007.056-.007-.074.1-.124.201-.149.295-.436.252-1.693.898-2.204 1.934 0 .001.797-.25 2.173-1.732zM55.472 20.523l.05-.094a.51.51 0 0 1 .05-.075c-.474.182-2.142.816-2.684 1.098-.536.283-1.32.923-1.743 2.228 0 0 1.127.1 2.06-.678.928-.771 2.011-1.857 2.473-2.202a.598.598 0 0 1-.106-.12s-1.258 1.124-2.59 1.607c0 0 .286-.514.809-.897.641-.46 1.12-.61 1.68-.867zM54.524 19.75l.006-.012.006-.018.007-.019.006-.012.006-.019.006-.019.007-.006v-.007l.006-.007.006-.012c-.554.119-1.93.282-2.547.47-.616.19-1.725.647-2.385 1.915 0 0 .972.302 2.796-.565 1.83-.866 2.403-1.048 2.752-1.142-.28-.019-.48-.113-.58-.175-.727.326-1.699.715-2.67.74 0 0 .48-.339.977-.552.548-.233 1.146-.44 1.6-.56zM54.566 18.834l.03.02.031.012.031.012.038.02.03.005.031.013.031.012.032.007.031.013.037.006.032.006.037.007.019.007h.018l.019.006h.037l.025.007h.019l.019.006a1.56 1.56 0 0 0-.356.327c-.647.188-1.743.389-3.554.52-1.812.139-2.777-.2-2.777-.2.628-.39 1.637-.785 2.316-.916.685-.133 2.472-.113 3.25-.226.012.012.112.087.268.182-.667.063-2.067.125-2.796.49 0-.003 1.34.18 3.102-.336zM54.429 17.787l.018-.013.019-.006.018-.013.019-.006.019-.013.019-.006.018-.013.025-.012.018-.007.02-.012.024-.007.025-.012.019-.013.025-.006.024-.012.025-.007c-.915-.276-2.173-.728-4.065-.854-1.389-.093-2.397-.012-2.914.126 0 0 1.264.898 2.715 1.218 1.444.313 2.62.113 3.474.119.062-.088.124-.176.224-.277-1.002.006-2.677-.25-3.275-.451 0 0 1.457-.313 3.506.277zM54.426 16.7v.014l.007.006v.012l.006.013v.018l.006.02.006.018.013.026.006.019.012.031.013.025.012.025.013.032.018.032.019.031.018.032.025.031.02.038.024.031.031.032.03.038.032.031.031.038.038.032.037.03.043.032.044.038.05.025.043.032.056.031.056.025c-1.289-.565-3.83-.891-5.186-1.469-1.843-.765-2.18-1.732-2.18-1.732 1.594-.044 2.883.352 3.873.66 1.17.357 2.939 1.022 3.555 1.305a1.27 1.27 0 0 0-.697.22c-.865-.333-1.27-.477-2.06-.703-.618-.176-1.078-.208-1.464-.245 0 0 .548.364 1.444.653.892.285 1.278.335 2.006.474zM54.328 15.282l.006.007.006.012.006.013.007.006.006.013.006.012.006.013.012.013.006.012.006.013.013.018.006.013.019.032.025.025.018.03.019.026.006.019.012.013.006.012.013.013.006.012.013.013.006.012.007.013.006.006.006.013.006.006.007.013c-2.037-.346-4.278-1.896-4.969-2.862-.69-.96-.492-2.398-.492-2.398.672.139 2.13 1.406 2.503 1.789.38.377 1.525 1.5 2.316 2.128l.243.715a80.211 80.211 0 0 0-1.98-1.537c-.386-.295-.965-.703-1.532-.904 0 0 .523.69.953 1.03.492.395.99.734 1.4.96.37.2.556.319 1.297.676z"/><path fill="#0055A5" d="M60.067 21.031l.012-.012.013-.013.006-.006.012-.013.013-.013.012-.006.007-.012.012-.007.006-.012.013-.013.006-.006.012-.013.007-.006.012-.013.007-.006.012-.013c.094.125.405.521.56.916.119.333.244.791.306 1.048.062.27.243.81.361.998 0 0-.498.07-.866-.37-.36-.42-.48-.847-.542-1.287a4.974 4.974 0 0 1 .019-1.14zM59.284 21.094l.013.013.005.012.013.007.006.013.006.012.012.006.006.006.006.013.013.006.006.006.006.006.006.013.013.006.005.006h.007l.006.007.007.006.005.006.006.007h.007v.006h.006l.006.006h.006v.006h.007v.006h.006v.007l.075.031.068-.019c.063-.025.119-.05.169-.069.074.195.1.296.124.471.018.226.068.584-.018.88-.106.357-.318.57-.436.715 0 0-.324-.364-.417-.66-.1-.306-.13-.67-.012-1.041.07-.2.175-.383.262-.49zM58.169 21.126l.03-.007h.032l.025-.006.03-.006.056-.013.057-.013.056-.018.056-.013.05-.019.05-.018.043-.026.043-.018.05-.025.038-.02.043-.024.037-.025.038-.026.037-.025a.833.833 0 0 1 .062.496 1.255 1.255 0 0 1-.43.66c-.336.27-.778.52-1.276.439.001 0-.11-.371.873-1.293zM57.797 20.504l.007.032v.031l.006.025.006.032.006.025.007.025.006.032.006.025.013.025.006.02.006.024.013.025.006.02.013.018.005.02.007.018.012.019.006.019.007.012.012.013.006.019.007.012.006.007.006.012.006.013.007.006.006.006.006.007.006.006v.007h.007v.006c-.118.138-.536.86-1.407.74 0 0-.237-.495.342-.884.392-.272.584-.323.852-.417zM57.87 19.883l-.044.012-.043.013-.05.007-.05.006-.05.007-.05.006h-.055l-.056.006h-.056l-.063-.006h-.056l-.03-.006h-.031l-.038-.007h-.03l-.031-.006-.032-.007-.03-.007-.038-.006-.03-.006-.038-.013-.1-.019-.031-.1c-.442.37-.977.433-1.158.766 0 0 .224.414.803.338a1.922 1.922 0 0 0 1.326-.734c.004-.056.029-.163.06-.244zM56.867 19.368l.012-.025.02-.025.012-.025.012-.032.019-.025.012-.031.019-.032.012-.031.019-.032.018-.037.013-.02.012-.012.007-.019.012-.019.013-.018.012-.013.013-.019.012-.019.019-.018.012-.019.02-.019.012-.012a2.86 2.86 0 0 0-1.177.012c-.536.1-1.084.226-1.358 1.042 0 0 .343.301.972.17.523-.107.983-.34 1.251-.722zM56.637 18.477l-.025-.025-.025-.019-.025-.025-.024-.025-.02-.025-.024-.032-.025-.025-.019-.025-.025-.032-.018-.031-.025-.032-.019-.031-.019-.038-.018-.032-.019-.037-.019-.038-.043-.1c-.46-.189-.946-.29-1.42-.113-.473.181-.597.389-.716.564 0 0 .523.446 1.127.465.604.013 1.158-.162 1.401-.344zM56.781 17.517l.013-.007.018-.006.013-.007h.018l.012-.006.02-.006.012-.007.019-.006h.019l.018-.007.019-.006h.012l.018-.007.02-.006h.018l.019-.007a1.686 1.686 0 0 1-.505-.878c-.212.05-.722.05-.94-.032-.224-.088-.66-.095-1.002.138 0 0 .112.596.884.803.729.197.996.147 1.295.047zM56.504 16.343l.1-.07c.012-.005.186-.112.485-.131-.249-.195-.846-.697-1.264-.93-.454-.256-1.214-.608-1.606-.658 0 0 .367.96.784 1.35.443.401.747.552 1.501.44zM57.278 15.897l-.03-.044-.031-.05-.038-.05-.031-.05-.025-.057-.03-.057-.032-.056-.025-.063-.025-.063-.03-.063-.025-.062-.02-.07-.024-.068-.025-.07-.019-.075-.018-.07c-.093-.326-.293-1.116-.41-1.33-.119-.207-.549-.922-1.383-1.149 0 0-.218.935.2 1.688.36.642 1.1 1.32 2.021 1.76zM61.917 20.278l.024.02.019.018.019.019.018.012.02.02.018.012.019.019.018.012.019.013.025.02.012.006.013.006.012.007.013.012.012.007.013.006.018.006.013.013.012.006.019.007.018.013.013.006s.268.515-.056 1.13a15.437 15.437 0 0 0-.722 1.607s-.175-.026-.367-.998c-.13-.653-.293-.823-.467-1.042.187.094.336.119.355.119l.124.032.063-.126c.112-.22.143-.433.143-.609 0-.063 0-.119-.007-.17a.62.62 0 0 0 .523-.22c.006-.012.013-.012.013-.018l.03.035z"/><path fill="#0055A5" d="M54.82 12.847v.296l.02.232c-.499-.634-1.09-1.399-1.65-2.108-.386-.483-.71-.772-1.078-1.011.311.897.86 1.613 1.245 1.964.386.358.947.96 1.495 1.331l.05.176c.043.17.105.339.192.502.137.226.299.446.498.665a6.95 6.95 0 0 0-.523-.244l-.174-.076c-1.5-.796-2.995-2.466-3.592-3.62-.604-1.162-.355-2.505-.2-3.227.685.584 1.675 1.732 2.099 2.354.53.766 1.202 1.858 1.619 2.743v.023zM75.906 17.787l-.018-.013-.013-.006-.018-.013-.02-.006-.018-.013-.025-.006-.019-.013-.018-.012-.019-.007-.025-.012-.018-.007-.025-.012-.025-.013-.025-.006-.025-.012-.025-.007c.922-.276 2.18-.728 4.079-.854 1.388-.093 2.384-.012 2.907.126 0 0-1.27.898-2.715 1.218-1.444.313-2.621.113-3.48.119a1.545 1.545 0 0 0-.218-.277c1.002.006 2.67-.25 3.275-.451 0 0-1.457-.313-3.512.277zM75.914 16.7v.014l-.006.006v.012l-.006.013-.007.018v.02l-.012.019-.006.025-.007.019-.012.031-.013.026-.012.025-.019.031-.012.032-.019.032-.019.031-.025.031-.025.038-.024.031-.025.032-.032.038-.03.031-.038.038-.037.032-.038.03-.037.032-.05.038-.043.025-.05.032-.05.031-.056.025c1.289-.565 3.823-.891 5.193-1.468 1.837-.766 2.173-1.733 2.173-1.733-1.594-.044-2.889.352-3.878.66-1.165.357-2.933 1.022-3.555 1.305.236.006.492.07.703.22.866-.332 1.27-.477 2.055-.703.622-.176 1.077-.207 1.463-.245 0 0-.542.364-1.439.653-.897.285-1.283.336-2.005.474zM76.014 15.282v.007l-.007.012-.006.013-.006.006-.013.013-.006.012-.006.013-.006.013-.013.012-.006.013-.019.031-.019.032-.024.025-.019.031-.019.025-.006.02-.012.012-.006.013-.013.012-.006.013-.013.012-.005.013-.007.012-.006.007-.007.012-.012.007-.006.012c2.036-.345 4.277-1.895 4.969-2.862.697-.96.498-2.397.498-2.397-.673.138-2.13 1.406-2.51 1.788-.373.377-1.518 1.5-2.309 2.128l-.243.716c.672-.546 1.476-1.155 1.973-1.538.392-.294.96-.703 1.538-.903 0 0-.529.69-.952 1.029-.492.395-.996.734-1.407.96-.362.2-.555.319-1.29.676zM75.523 12.847v.296l-.019.232c.492-.634 1.083-1.4 1.644-2.11.392-.482.716-.77 1.077-1.01-.306.897-.854 1.613-1.24 1.965-.386.357-.946.96-1.494 1.33l-.05.176c-.05.17-.112.34-.199.502-.13.226-.299.446-.492.665.156-.08.336-.169.523-.244l.168-.075c1.501-.797 2.995-2.467 3.593-3.621.616-1.162.36-2.504.199-3.226-.685.584-1.669 1.732-2.092 2.354-.53.765-1.202 1.857-1.619 2.742v.024h.001zM56.744 21.998l-.063.063-.062.062-.069.07-.068.075-.075.075-.074.081-.075.088-.075.088-.08.095-.081.093-.075.1-.08.101-.075.107-.08.113-.076.113-.074.113-.069.12-.068.118-.069.12-.062.125-.062.126-.05.132-.05.125-.05.138-.037.132-.037.132-.025.138-.025.138-.012.138-.006.144-.006.138.012.145s1.208-.383 1.712-1.28c.498-.892.803-1.463 1.015-1.664-.137.02-.274.02-.398 0l-.112-.018c-.312.564-.922 1.493-1.47 1.814 0 0-.137-.753 1.476-2.272.025-.063.056-.132.1-.208-.15.057-.312.082-.505.076M73.38 13.575l-.063.132-.068.125-.069.132-.08.138-.044.063-.044.068-.05.07-.05.069-.049.069-.056.069-.063.069-.062.069-.062.075-.068.07-.069.075-.075.075-.08.075-.082.076-.087.075-.093.082-.093.075-.1.081-.1.082-.105.087-.112.082-.118.088-.125.081-.124.088c-.311.214-.654.66-.393 1.28.262.628.748 1.507.455 1.852-.293.345-1.333.521-2.18.182 0 0-.18.54-.485.885 0 0 .15.294.635.144 0 0-.18.446.068.923 0 0 .567-.1.81-.628 0 0 .224.414.678.558 0 0 .38-.194.293-.947 0 0 .274.672 1.127.785 0 0 .485-.621-.15-1.456 0 0 .454.407 1.283.213 0 0 .13-.427-.617-1.017 0 0 .847-.037 1.17-.753 0 0-.36-.445-1.238-.345 0 0 .816-.183.996-1.162 0 0-.585-.376-1.513.226 0 0 .162-.313.554-.627.386-.3.86-1.173.697-2.453zM69.978 23.46l.025-.03.019-.032.018-.032.025-.031.02-.031.018-.031.018-.026.019-.03.019-.032.012-.032.019-.031.012-.031.019-.025.012-.031.013-.032.012-.032c-.143 1.193-.193 1.996-.834 2.768 0 0-.386-.514-.137-1.77a1.13 1.13 0 0 0 .342-.163s-.142.509-.056 1.023c0 0 .23-.17.405-1.369zM71.082 23.335l.013-.006.006-.013.006-.012.007-.006.012-.013.006-.012.012-.013.007-.013.012-.012.006-.019.025-.025.019-.031.019-.032.025-.031.018-.031.019-.031.018-.032.02-.025.018-.031.012-.019.006-.012.007-.013.006-.013c.056.69.237 2.51-.368 3.082 0 0-.416-.308-.56-2.962.087.15.243.307.311.395 0 0-.1.841.2 1.437 0 0 .305-.233.118-1.507zM72.525 24.728l-.05-.057-.043-.068-.044-.076-.037-.081-.043-.082-.031-.088-.037-.094-.032-.094-.03-.1-.032-.1-.025-.101-.031-.107-.044-.207-.025-.1-.019-.101-.018-.1-.012-.094-.019-.094-.012-.095-.013-.087-.012-.082-.013-.075-.006-.07-.006-.068-.007-.057-.006-.025V22.4l-.006-.025v-.038l-.006-.012v-.05a1.695 1.695 0 0 1-.212-.157c-.031-.025-.062-.044-.087-.076 0 .07 0 .138-.012.208.08 1.104.168 2.247.51 2.818.336.558.953.847.953.847.579-1.042-.118-2.435-.71-3.408a1.673 1.673 0 0 1-.218-.094c.205.746.59 1.63.435 2.315zM73.966 21.533V21.622l-.007.018v.037l-.006.006v.025l-.007.007v.024l-.005.007V21.764l-.007.007v.025l-.006.006c-.006.013-.012.044-.025.076.486.47.847.935 1.563 1.939.715 1.01 1.862 1.048 1.862 1.048-.112-.816-.337-1.463-.947-2.153-.604-.697-1.388-1.33-1.955-1.751-.15.07-.342.113-.585.082-.025 0-.037-.007-.056-.007.075.1.125.201.15.295.429.252 1.693.898 2.204 1.934 0 .001-.797-.25-2.173-1.732zM74.868 20.523l-.05-.094a.502.502 0 0 0-.05-.075c.468.182 2.136.816 2.677 1.098.542.283 1.32.923 1.744 2.228 0 0-1.127.1-2.055-.678-.928-.771-2.01-1.857-2.478-2.202a.488.488 0 0 0 .112-.12s1.258 1.124 2.59 1.607c0 0-.286-.514-.816-.897-.635-.46-1.114-.61-1.674-.867zM75.82 19.75l-.006-.012-.006-.018-.006-.019-.013-.012-.005-.019-.007-.02-.006-.012-.006-.018c.547.119 1.93.282 2.546.47.61.19 1.725.647 2.385 1.915 0 0-.972.302-2.802-.565-1.824-.866-2.397-1.048-2.746-1.142.28-.019.48-.113.58-.176.728.327 1.699.716 2.67.741 0 0-.48-.339-.983-.552-.542-.234-1.14-.44-1.594-.56zM75.776 18.834l-.03.02-.032.012-.037.012-.032.02-.03.005-.032.013-.03.012-.031.007-.032.013-.037.006-.031.006-.037.007-.038.007-.018.006h-.044l-.019.007h-.018l-.025.006c.124.082.249.189.36.327.642.188 1.738.389 3.55.52 1.811.139 2.776-.2 2.776-.2-.629-.39-1.637-.785-2.316-.916-.678-.133-2.465-.113-3.25-.226-.012.012-.1.087-.261.182.66.063 2.067.125 2.79.49-.001-.003-1.334.18-3.096-.336z"/><path fill="#0055A5" d="M70.266 21.031l-.02-.025-.012-.006-.012-.013-.013-.013-.006-.006-.012-.012-.007-.007-.012-.012-.006-.013-.013-.006-.006-.013-.013-.006-.006-.013-.012-.006-.006-.013c-.1.125-.411.521-.567.916-.112.333-.243.791-.3 1.048-.067.27-.248.81-.36.998 0 0 .492.07.859-.37.361-.42.492-.847.542-1.287.044-.344.031-.82-.019-1.14zM71.052 21.094l-.006.013-.012.012-.007.007-.006.013-.012.012-.007.006-.006.006-.012.013-.007.006-.006.006-.006.006-.013.013-.006.006-.006.006h-.006l-.007.007-.006.006-.006.006-.006.007h-.006l-.006.006h-.006l-.007.006-.006.006h-.006v.006H70.859v.007l-.062.031-.075-.019c-.056-.025-.112-.05-.168-.069-.069.195-.1.296-.119.471-.025.226-.068.584.02.88.105.357.31.57.429.715 0 0 .33-.364.417-.66.1-.306.136-.67.012-1.041a1.416 1.416 0 0 0-.261-.49zM72.171 21.126l-.03-.007h-.032l-.031-.006-.031-.006-.056-.013-.056-.013-.056-.018-.05-.013-.05-.019-.05-.018-.05-.026-.043-.018-.043-.025-.044-.02-.037-.024-.044-.025-.037-.026-.031-.025c-.043.113-.112.276-.062.496.05.226.205.483.429.66.33.27.778.52 1.27.439 0 0 .118-.371-.866-1.293zM72.544 20.504l-.006.032-.007.031-.006.025v.032l-.006.025-.006.025-.013.032-.006.025-.006.025-.007.02-.012.024-.006.025-.006.02-.013.018-.006.02-.013.018-.006.019-.006.019-.013.012-.006.013-.006.019-.006.012-.013.007-.006.012-.006.013-.007.006v.006l-.005.007-.007.006v.007h-.006v.006c.112.138.536.86 1.407.74 0 0 .23-.495-.349-.884-.391-.272-.578-.323-.846-.417zM72.465 19.883l.043.012.05.013.05.006.05.007.05.007.05.006h.055l.056.006h.056l.062-.006h.056l.062-.006.032-.007h.037l.031-.006.03-.007.032-.007.038-.006.03-.007.032-.012.1-.019.037-.1c.442.37.977.433 1.158.765 0 0-.224.415-.803.34a1.922 1.922 0 0 1-1.326-.735 1.854 1.854 0 0 0-.068-.244zM73.475 19.368l-.006-.012-.006-.013-.019-.025-.013-.025-.012-.032-.018-.025-.013-.03-.018-.033-.02-.031-.012-.032-.018-.037-.012-.02-.013-.012-.006-.019-.013-.019-.012-.018-.013-.013-.012-.019-.013-.019-.019-.018-.012-.019-.018-.019-.013-.012c.38-.07.728-.082 1.177.012.535.1 1.083.226 1.357 1.042 0 0-.349.301-.971.17-.523-.107-.99-.34-1.252-.722zM73.695 18.477l.025-.025.025-.019.025-.025.025-.025.025-.025.025-.032.019-.025.025-.025.018-.032.025-.031.019-.032.018-.031.02-.038.018-.032.018-.037.019-.038.043-.1c.467-.189.947-.29 1.42-.113.473.181.597.389.716.564 0 0-.523.446-1.121.465-.604.013-1.164-.162-1.407-.344zM73.563 17.517l-.031-.013-.019-.007h-.012l-.02-.006-.012-.006-.018-.007-.019-.006h-.018l-.013-.007-.018-.006h-.02l-.018-.007-.019-.006h-.018l-.019-.007c.212-.181.404-.458.505-.878.224.05.722.05.946-.032.224-.088.66-.095 1.002.138 0 0-.112.596-.89.803-.723.197-.997.147-1.29.047zM73.833 16.343l-.1-.07c-.012-.005-.186-.112-.48-.131.25-.195.842-.697 1.259-.93.46-.256 1.22-.608 1.606-.658 0 0-.361.96-.785 1.35-.435.401-.74.552-1.5.44zM73.055 15.897l.037-.044.031-.05.031-.05.032-.05.03-.057.031-.057.032-.056.025-.063.025-.063.03-.063.025-.062.025-.07.019-.068.025-.07.019-.075.025-.07c.08-.326.286-1.116.404-1.33.118-.207.548-.922 1.382-1.149 0 0 .218.935-.2 1.688-.366.642-1.107 1.32-2.028 1.76zM68.424 20.278l-.025.02-.02.018-.018.019-.019.012-.018.02-.019.012-.018.019-.019.012-.025.013-.025.02-.006.006-.013.006-.012.007-.013.012-.018.007-.012.006-.013.006-.012.013-.019.006-.012.007-.02.013-.017.006s-.262.515.055 1.13c.324.62.598 1.255.729 1.607 0 0 .174-.026.367-.998.13-.653.299-.823.467-1.042a1.249 1.249 0 0 1-.355.119l-.124.032-.063-.126a1.269 1.269 0 0 1-.137-.779.612.612 0 0 1-.523-.22c-.006-.012-.006-.012-.019-.018l-.024.035z"/><path fill="#0055A5" d="M73.6 21.998l.063.063.062.062.068.07.068.075.075.075.068.081.081.088.075.088.081.095.075.094.081.1.08.1.076.107.074.113.082.113.068.113.075.12.068.118.068.12.062.125.056.126.056.132.05.125.043.139.044.131.031.132.031.138.025.138.012.138.006.144v.138l-.006.145s-1.214-.383-1.712-1.28c-.498-.892-.803-1.463-1.014-1.664.13.02.267.02.398 0l.112-.018c.312.565.916 1.493 1.464 1.814 0 0 .143-.753-1.47-2.272a1.133 1.133 0 0 0-.105-.208c.15.057.317.082.51.076M64.219 9.873V9.86l.006-.013.006-.006.006-.013.013-.006.012-.013.013-.006.018-.013.019-.006.018-.013.025-.006.025-.007.025-.012.03-.007.032-.006.031-.007.032-.006.03-.006.038-.007.037-.006.037-.007.044-.006.037-.006h.043l.044-.007.044-.006h.093l.043-.007H65.164c.523 0 .946.094.946.208 0 .106-.423.2-.946.2-.522.003-.945-.09-.945-.197zM61 10.97v-.006l.006-.006v-.006l.006-.007.006-.006.013-.007h.006l.012-.006.013-.007.012-.006h.013l.019-.007.018-.006.012-.007h.025l.02-.006h.018l.025-.006.025-.007h.018l.025-.006H61.348l.025-.007H61.429l.03-.006h.156c.33 0 .61.05.61.113 0 .062-.28.106-.61.106-.341.003-.615-.04-.615-.103zM65.355 10.312v.044l-.007.007v.012l-.006.007v.012l-.007.007v.006l-.005.007-.006.012-.007.007-.006.007-.006.006-.006.007-.007.006-.006.007-.006.006-.006.007-.007.006h-.006l-.012.006-.007.006h-.006l-.012.007h-.019l-.006.006h-.032a.19.19 0 0 1-.186-.194c0-.095.087-.183.187-.183a.182.182 0 0 1 .186.179zM64.152 9.672l-.03-.075-.026-.07-.03-.062-.025-.069-.025-.063-.025-.068-.032-.063-.018-.057-.025-.063-.025-.056-.018-.057-.025-.056-.019-.057-.019-.05-.018-.05-.019-.05-.018-.05-.013-.045-.012-.044-.02-.044-.011-.038-.013-.037-.006-.038-.012-.038-.007-.031-.006-.031-.006-.032-.006-.025-.006-.025v-.063c.006-.113.137-.195.261-.232.13-.038.237-.05.324.012.162.132.317 1.148.367 1.576-.156.031-.25.056-.437.15zM64.733 9.508l.012-.006h.044l.031-.007h.093l.063-.006a12.213 12.213 0 0 0-.275-1.35c-.08-.27-.187-.457-.361-.508 0 0 .137.37.212.753.075.384.124.76.18 1.124zM63.727 10.864l.037-.007.03-.012.032-.013.031-.012.031-.013.038-.02.03-.012.032-.019.03-.019.026-.018.031-.02.031-.018.025-.02.03-.018.026-.019.025-.025.025-.019.019-.018.025-.02.018-.012.019-.019.019-.018.018-.013.02-.018.012-.013.012-.006.006-.013.013-.013.006-.006h.006v-.006c-.56.082-.703.459-.703.459z"/><path fill="#0055A5" d="M64.253 10.833l-.05.025-.043.019-.044.025-.05.019-.044.02-.043.018-.05.012-.043.019-.044.012-.043.007-.044.012-.043.013-.038.007-.043.006-.037.006-.038.007h-.037l-.03.006h-.032l-.031.007H63.227a1.49 1.49 0 0 1 .504-.59c.305-.22.797-.276.99-.251-.044.149-.244.463-.468.6zM64.144 11.089c-.361.17-1.482.188-2.086.22h-.389l-.047-.016h-.062l-.047-.015h-.047l-.047-.016-.047-.016h-.046l-.047-.015h-.047l-.047-.016h-.03l-.048-.015-.03-.016h-.03l-.032-.015-.031-.016h-.046l-.016-.016h-.016l-.031-.015h-.016c.07 1.33.966 1.412.966 1.412-.013-.106 0-.283 0-.283.28.264.856.455.856.455-.007-.163-.062-.298-.062-.298.243.144.389.141.389.141-.025-.188-.14-.407-.14-.407.168.219.373.235.373.235.038-.106-.031-.377-.031-.377.087.107.249.39.747.503.51.106.732-.189.732-.189-.486.032-.95-.439-.95-.439.262-.1.358-.282.358-.282-.155-.132-.31-.141-.31-.141.285-.134.357-.363.357-.363zm-1.713.502v.047s-.778.003-.81.392c-.124-.082-.186-.232-.217-.408 0 0 .555.031 1.027-.031zM60.722 11.21l.006.056.006.05.006.057.007.05.006.056.012.05.013.05.012.051.013.05.012.05.013.044.019.044.012.044.02.045.018.037.019.038s-.355-.264-.443-.496c-.087-.233-.112-.384.25-.277zM59.677 11.465a.517.517 0 0 0-.39.22c-.18.27-.114.784.265 1.004 0 0 .57-.5 1.26-.016 0 0 .153-.09.514-.172v-.016h-.015v-.015l-.016-.016-.015-.016h-.015v-.015l-.016-.016-.015-.015-.016-.016-.015-.015-.016-.016h-.016l-.015-.032h-.016l-.015-.031h-.016l-.015-.016-.031-.015-.016-.016-.015-.016-.03-.015-.016-.016-.016-.015-.031-.016h-.017l-.03-.015-.016-.016c-.212-.094-.648-.226-.778-.628a1.24 1.24 0 0 0-.421-.033zm.327.534c.081 0 .156.075.156.157v.031h-.015v.031h-.016v.031h-.015v.016h-.016v.015h-.031v.016h-.032l-.016.015h-.015c-.08 0-.14-.075-.14-.157 0-.08.059-.155.14-.155zM61.408 12.59l.006.007.006.005v.007h.006l.006.013.006.006.013.013.006.019.013.012.012.013.013.018.012.02.02.012.012.02.018.018.012.025.02.018.037.038.03.038.038.044.018.019.02.019.018.019.019.018.018.013.019.019.019.012.018.019s-.934-.013-1.164.803c0 0-.318-.502-.087-.822.249-.346.485-.396.816-.465z"/><path fill="#0055A5" d="M62.43 12.784l.006.007H62.45l.006.006h.019l.012.007.012.006h.013l.018.006.013.007h.019l.012.006.02.007.03.006.031.013.038.006.012.006.019.007.012.006h.018l.013.007.012.006h.013l.012.007h.013l.012.006s0-.175-.006-.257c.093.019.2.05.299.063 0 0 .299.665.535.935 0 0 .013.157-.118.377 0 0-.174-.39-.473-.716-.169-.178-.28-.273-.635-.524zM61.637 12.646h.006l.013.007h.018l.013.006.019.006.018.007.025.006.019.006.025.013.025.006.024.006.032.013.025.007.03.012.026.013.03.012.063.025.062.025.062.025.056.026.03.019.032.012.025.013.031.018.025.013.025.012.025.019.018.013c.293.213.492.451.46.872 0 0-.23-.333-.491-.483a2.789 2.789 0 0 1-.771-.729zM61.645 9.596h.019l.006.007h.031l.013.006h.019l.012.007h.013l.006.006h.012l.013.007.012.006.006.006.013.007.006.006.013.007.005.006.013.007.006.006.006.007.007.012.006.007.006.013.006.006V9.738l.007.006V9.763l.006.007V9.789c0 .144-.225.49-.287.64-.062-.15-.28-.495-.28-.64 0-.144.168-.188.255-.188h.05v-.005zM61.45 10.72l-.006-.025-.006-.019v-.025l-.006-.025-.007-.025-.005-.025-.007-.032v-.025l-.006-.032-.006-.03-.013-.064-.018-.062-.013-.07-.012-.063-.013-.03-.006-.032-.006-.025-.013-.032-.006-.025-.012-.025-.007-.025-.012-.025-.013-.026-.006-.018-.012-.02-.012-.018-.013-.013-.006-.012a.552.552 0 0 0-.38-.113c-.088.006-.181.094-.144.213.038.12.424.703.474.772.087-.012.068-.012.292-.024zM61.785 10.72l.006-.025.007-.019v-.025l.006-.025.006-.025.006-.025.007-.032.005-.025.007-.032.006-.03.012-.064.013-.062.012-.07.02-.063.005-.03.007-.032.012-.025.006-.032.013-.025.006-.025.012-.025.007-.025.012-.026.006-.018.013-.02.012-.018.013-.013.006-.012a.544.544 0 0 1 .38-.113.166.166 0 0 1 .143.213c-.037.12-.424.703-.474.772-.086-.012-.073-.012-.292-.024zM62.037 8.894h-.3V8.56h-.242v.333h-.3v.213h.3v.389h.242v-.39h.3v-.212zM58.408 11.046v-.094l.006-.025v-.044l.006-.013v-.012c.019-.163.025-.308.006-.42-.218.081-.368.138-.66.62 0 0 .473-.295.642-.012z"/><path fill="#0055A5" d="M58.816 11.818v-.013l.007-.019v-.045l.006-.018v-.018l.006-.025.006-.019v-.025l.007-.02.006-.024v-.025l.006-.026.006-.031.007-.025.012-.05.013-.057.018-.057.013-.056.018-.057.019-.057.019-.056.006-.025.012-.025c.125-.326.044-.803-.1-1.086-.136-.282-.218-.546-.193-.835 0 0-.28.095-.442.195-.025.34.168.672.262.86.106.226.087.515.062.697-.037.308.025.634.224.942zM58.846 9.251v-.019h-.006V9.13l.006-.007v-.032l.006-.006V9.072l.006-.006s.442-.433.81-.509a.52.52 0 0 1 .454.113s-.137-.012-.33.15c-.2.158-.442.359-.635.409-.18.047-.223.035-.31.022zM60.154 8.711l.03.032.032.032.031.03.025.032.031.032.025.032.006.012.013.019.012.012.012.019.007.019.012.013.007.019.012.012.006.013.007.019.006.012.006.019.006.012.007.019.006.013v.019l.006.012v.044c-.006.158-.187.559-.286.71-.094.15-.23.35-.218.59.006.125.093.25.193.35 0 0-.542-.13-.604-.464-.062-.3.062-.514.15-.684.08-.157.336-.52.392-.671.062-.14.087-.252.068-.328zM63.32 12.502l.02.069.024.075.025.069.025.07.025.068.031.07.031.069.031.062.031.063.031.069.032.063.03.056.038.063.03.057.032.056.038.05c.161.257.261.685.249.829 0 0 .242-.546.118-.93-.094-.3-.361-.74-.84-.928zM63.922 12.628h.05l.012.006h.069l.018.007h.038l.025.006h.018l.025.007h.019l.025.006.025.006.018.007.025.006h.018l.025.013.02.006.024.006.019.007.019.012.018.007.018.013.02.006c.223.15.435.471.516.86 0 0-.38-.063-.56-.25-.187-.186-.411-.468-.504-.731zM62.007 13.306h-.038l-.012.006h-.019l-.012.006H61.9l-.013.007-.024.006-.025.006h-.025l-.025.007-.025.006-.025.007-.012.006h-.013l-.012.007h-.013l-.006.006h-.025l-.006.007s.318.094.474.22c.13.113.249.288.304.577.081.408.318.847.386.98l.032-.007c-.05-.283.124-.86.174-.941 0 0-.255-.163-.367-.327-.088-.122-.232-.322-.648-.58zM63.65 14.178l.013.019.006.019.013.025.012.025.013.02.006.024.012.032.02.025.012.025.012.032.025.056.025.057.006.031.013.032.012.037.006.032.013.032.006.03.006.039.007.031.006.038.006.037V14.983l-.006.038v.031l-.006.038-.007.038-.012.037c-.112.395-.362.565-.524.898 0 0-.124-.603-.1-1.067.031-.473.2-.649.405-.818zM64.366 14.19v.007l.006.006v.007l.006.006v.006l.006.007.007.006v.012l.006.013.012.018.013.026.012.031.019.032.012.031.019.038.018.031.02.038.012.044.018.037.019.038.025.044.037.088.032.082.018.044.019.037.018.038.013.044.012.038.013.031.012.038.013.032.006.031.012.025c.062.283 0 .465-.124.634-.125.17-.337.358-.536.71 0 0-.224-.302-.255-.459-.025-.163.019-.54.068-.696.05-.158.244-.674.412-1.195zM64.553 16.494l-.006.006h-.007v.006l-.006.007-.006.006-.006.013-.02.012-.012.019-.018.02-.02.024-.018.02-.018.024-.019.026-.025.031-.025.025-.018.031-.025.026-.05.062-.044.056-.024.032-.02.032-.024.031-.019.025-.018.032-.02.025-.018.025-.019.025-.018.025-.013.025-.012.019-.006.018-.006.013-.007.006v.007l-.006.006c-.056.157-.156.44-.025.64.143.201.442.522.71.66 0 0-.286-.458-.261-.835.018-.245.205-.458.243-.603.03-.145.005-.396-.094-.622zM63.704 16.205l.006.007.007.012.006.007.006.012.013.013.006.012.006.013.006.012.007.02.012.012.006.02.007.012.006.019.005.012.02.038.012.038.012.037.013.038.012.038.013.037v.025l.006.02.006.018v.044l.006.02c.013.213-.018.388-.137.708a9.048 9.048 0 0 1-.48 1.042s-.205-.295-.317-.552c0 0 .317-.44.448-.747.163-.366.225-.705.287-.987zM63.56 16.03v.005l-.007.007v.039l-.006.024-.006.025-.006.038-.006.038-.013.044-.006.044-.012.05-.013.056-.018.057-.013.056-.019.063-.018.069-.025.063-.019.069-.025.075-.03.069-.026.075-.03.075-.032.075-.037.076-.038.075-.043.075-.038.076-.05.081-.043.075-.05.07-.05.075-.056.075c-.404.514-.735.697-.952.697-.33 0-.66-.283-.772-.597-.112-.314-.075-.81.137-.979 0 0 .2.615.616.64.48.026 1.09-.514 1.706-1.556z"/><path fill="#0055A5" d="M63.07 15.602l.007.02v.018l.006.02v.018l.013.037.006.045v.043l.006.044.006.045V16.036l-.006.05-.006.05v.05l-.013.051-.006.05-.012.05c-.05.201-.174.465-.404.616-.206.125-.68.157-.866-.302 0 0 .871.069 1.27-1.049zM64.493 19.745l.012.025.013.032.018.031.013.031.018.032.019.032.025.031.018.032.044.063.043.062.05.063.044.063.043.063.025.025.019.03.018.032.02.032.017.025.02.031.012.026.012.031.013.025.012.025.007.025.006.026v.025l.006.019c-.012.64-.293 1.029-.355 1.242 0 0-.504-.407-.591-.872-.05-.24 0-.956.399-1.307zM63.928 20.197l.007-.019.006-.019.006-.019.012-.019.007-.025.012-.018.006-.026.013-.024.012-.026.013-.03.012-.026.013-.025.025-.057.031-.056.03-.063.032-.056.019-.026.012-.025.019-.025.019-.025.018-.025.018-.025.02-.025.018-.02.019-.018.018-.019.019-.019.018-.02s.28-.815-.603-1.317c0 0-.368.483-.461.948-.1.458.386.734.61 1.149zM62.82 18.125l-.03.038-.032.032-.025.038-.03.037-.032.031-.03.038-.038.038-.032.031-.03.032-.031.037-.02.013-.018.013-.012.019-.02.012-.011.013-.019.012-.012.013-.019.006-.012.013-.02.013-.012.006-.018.006s-.056.364-.019.609c.044.358.274.728.373 1.004 0 0 .386-.515.43-.816.044-.301.037-.546.05-.69 0-.002-.212-.353-.33-.598zM61.794 19.883l-.012-.019-.012-.019-.013-.025-.012-.019-.02-.031-.012-.026-.018-.031-.02-.031-.018-.038-.018-.032-.019-.037-.018-.044-.02-.038-.018-.044-.025-.038-.019-.044-.037-.088-.037-.093-.032-.095-.012-.044-.019-.044-.012-.05-.013-.044-.006-.044-.013-.05-.006-.044-.007-.044v-.044l-.006-.044s.443.238.81.063c0 0 .044.59-.024.784-.056.164-.13.259-.312.397zM61.89 20.008l.013-.006.007-.006.006-.013.012-.006.007-.007.012-.006.006-.013.013-.006.012-.013.006-.006.025-.026.02-.019.024-.025.025-.019.019-.025.024-.019.013-.013.006-.006.012-.012.013-.013.006-.006.006-.013.013-.006.006-.013.006-.006.007-.013s.292.54.342.697c0 0-.143.032-.305-.081-.156-.111-.2-.143-.355-.3zM63.244 19.688l-.006.007v.006l-.007.013v.006l-.006.013-.006.006-.006.013-.007.012-.012.026-.013.025-.019.03-.018.026-.019.031-.018.038-.025.032-.02.037-.024.032-.025.038-.05.069-.05.075-.025.032-.024.038-.019.03-.025.032-.025.032-.019.032-.018.025-.025.025-.012.025-.019.018-.006.007-.006.013-.007.006-.006.007-.006.006-.006.007-.007.006-.006.006s.038.239.212.578c.174.345.417.584.548.703 0 0 .286-.509.373-.728.1-.258.088-.515.044-.61-.1-.222-.436-.542-.585-.825zM63.95 21.408l.005.025.013.019.012.025.013.02.018.024.013.025.019.02.012.024.019.026.019.031.037.05.031.057.038.05.037.056.037.056.032.057.012.031.019.025.012.032.013.025.012.025.012.031.007.025.006.031.012.026v.025c.038.213.007.389-.05.54-.062.144-.249.432-.373.652 0 0-.43-.407-.523-.696a1.05 1.05 0 0 1 .062-.728c.1-.195.324-.402.423-.609zM62.734 21.352l.012.025.013.025.012.018.013.025.012.026.013.019.03.043.032.05.03.045.038.044.031.043.032.044.03.044.031.044.013.019.012.025.013.019.012.025.013.018.012.02.007.024.012.02.006.018.007.026c.068.244.093.407-.025.702-.113.257-.237.408-.281.565 0 0-.35-.452-.411-.64-.056-.195-.075-.502-.006-.696.075-.201.2-.459.287-.64zM64.444 23.084v.006h-.006v.006l-.006.006-.007.007-.006.006-.006.006-.006.012-.006.007-.013.012-.006.013-.013.013-.018.025-.019.031-.025.032-.025.031-.025.038-.025.037-.03.038-.026.044-.03.044-.026.044-.03.044-.025.044-.025.05-.025.043-.025.044-.025.05-.019.044-.018.044-.019.05-.012.045-.02.043-.005.038-.007.044-.006.018V24.2c.019.483.337.797.38 1.098 0 0 .318-.357.436-.596.13-.276.236-.502.199-.809-.038-.307-.119-.502-.43-.81zM63.345 23.009l.006.012.013.02.012.018.013.019.012.018.013.025.012.026.013.025.019.025.012.025.013.031.018.025.013.031.012.032.025.063.012.037.013.032.012.032.013.03.006.038.012.032.007.031.006.031.006.038.006.032v.118l-.006.032-.006.025c-.075.282-.374.678-.474.853 0 0-.237-.49-.287-.715-.05-.226-.005-.59.474-1.041zM69.333 10.97v-.006l-.006-.006v-.006l-.006-.007-.007-.006-.006-.007h-.012l-.013-.006-.012-.007-.013-.006h-.012l-.019-.007-.013-.006-.018-.007h-.018l-.025-.006h-.02l-.024-.006-.018-.007h-.025l-.025-.006h-.05l-.031-.007h-.056l-.025-.006h-.156c-.336 0-.61.05-.61.113s.274.106.61.106c.336.003.61-.04.61-.103zM65.173 9.082l.006-.025.007-.032.006-.032.006-.031.013-.031.012-.032.013-.038.012-.037.012-.038.013-.038.03-.075.032-.081.031-.082.031-.075.031-.082.013-.038.018-.037.013-.038.006-.038.013-.031.012-.038.006-.032.006-.031.007-.032.006-.031v-.05c0-.201-.162-.364-.362-.364-.2 0-.361.163-.361.364 0 .257.317.847.355 1.123h.013v.002zM66.184 9.672l.03-.075.032-.07.025-.062.031-.069.025-.063.025-.068.025-.063.025-.057.025-.063.019-.056.025-.057.018-.056.025-.057.02-.05.018-.05.018-.05.013-.05.019-.045.012-.044.013-.044.012-.038.013-.037.012-.038.006-.038.013-.031.006-.031.006-.032v-.025l.007-.025v-.063c0-.113-.138-.195-.256-.232-.137-.038-.243-.05-.33.012-.162.132-.312 1.148-.374 1.576.162.031.262.056.442.15zM65.61 9.508l-.019-.006h-.043l-.032-.007h-.093l-.03-.006h-.026c.05-.408.187-1.08.268-1.35.088-.27.188-.457.362-.508 0 0-.13.37-.206.753-.075.384-.131.76-.181 1.124zM65.902 10.406h.007v.006h.006v.006h.006l.006.013.013.013.012.006.013.013.018.018.013.013.019.018.018.019.025.012.019.02.025.018.025.02.025.024.025.019.031.019.025.018.03.02.026.019.03.018.032.02.031.018.031.013.031.019.031.013.038.012.031.013.031.012.031.007c0-.001-.143-.378-.704-.46z"/><path fill="#0055A5" d="M65.617 10.23H65.654l.025-.006H65.754l.025.006h.062l.031.007h.031l.031.006.031.007h.038l.03.006.038.006.031.013.038.006.037.007.031.012.038.013.037.006.031.013.038.013.037.012.031.019.031.012.037.02.032.018.03.012.026.026.03.018c.306.213.405.395.51.59 0 0-.547.044-1.026-.238a1.286 1.286 0 0 1-.473-.604zM66.201 11.089s.063.229.343.36c0 0-.153.01-.296.142 0 0 .093.182.342.282 0 0-.458.47-.95.44 0 0 .228.294.732.188.505-.113.654-.396.747-.502 0 0-.062.27-.03.376 0 0 .214-.015.388-.236 0 0-.13.22-.156.408 0 0 .14.003.39-.14 0 0-.057.134-.063.297 0 0 .585-.19.872-.455V12.452l-.016.016v.062s.897-.082.965-1.412c0 0-.588.22-1.198.188-.597-.029-1.715-.048-2.07-.217zm1.697.502c.473.063 1.043.031 1.043.031v.031h-.016v.032l-.015.032v.031l-.015.016v.031l-.016.016v.031h-.015v.015l-.016.016v.016l-.015.015-.016.016v.015h-.015l-.016.016v.015h-.016l-.016.016v.016h-.015l-.016.015-.015.016c-.031-.39-.81-.393-.81-.393v-.045zM69.619 11.21l-.007.056-.006.05-.006.057-.006.05-.013.056-.006.05-.013.05-.012.051-.013.05-.012.05-.018.044-.013.044-.018.044-.013.045-.019.037-.018.038s.355-.264.442-.496c.087-.233.106-.384-.25-.277zM70.37 11.465l-.032.016h-.03l-.032.015h-.031c-.13.402-.576.534-.794.628-.23.113-.451.377-.451.377.361.081.53.172.53.172.69-.483 1.26.016 1.26.016.374-.22.451-.735.265-1.004l-.031-.032-.016-.031-.015-.016-.031-.015-.016-.016-.03-.015-.016-.016-.031-.016-.031-.015-.015-.016h-.031l-.031-.015h-.032l-.015-.016H70.37zm-.047.534h.046v.015h.031v.016h.016l.015.015v.016h.015v.015h.016v.063l.015.015a.163.163 0 0 1-.156.157c-.08 0-.14-.075-.14-.157.002-.08.061-.155.142-.155zM68.935 12.59h-.006v.007h-.006v.005l-.007.007-.006.013-.012.006-.006.013-.013.019-.012.012-.006.013-.019.018-.012.02-.013.012-.019.02-.012.018-.019.025-.012.018-.037.038-.038.038-.03.044-.02.019-.018.019-.019.019-.018.018-.019.013-.019.019-.018.012-.019.019s.928-.013 1.165.803c0 0 .317-.502.087-.822-.25-.346-.486-.396-.817-.465z"/><path fill="#0055A5" d="M67.914 12.784h-.006v.007h-.019v.006h-.025l-.006.007-.012.006h-.02l-.011.006-.013.007h-.019l-.012.006-.019.007-.031.006-.038.013-.03.006-.019.006-.012.007-.02.006h-.012l-.018.007-.013.006h-.012l-.012.007h-.013l-.006.006s-.006-.175.006-.257c-.093.019-.206.05-.305.063 0 0-.293.665-.53.935 0 0-.012.157.119.377 0 0 .168-.39.473-.716.168-.178.28-.273.635-.524zM68.702 12.646h-.013l-.012.007h-.012l-.019.006-.019.006-.018.007-.02.006-.024.006-.025.013-.025.006-.025.006-.025.013-.031.007-.025.012-.031.013-.031.012-.062.025-.063.025-.055.025-.063.026-.03.019-.025.012-.032.013-.025.018-.025.013-.025.012-.024.019-.02.013c-.292.213-.492.451-.466.872 0 0 .236-.333.498-.483.205-.114.579-.44.772-.729zM68.7 9.596h-.02l-.006.006h-.031l-.013.007H68.612l-.012.007h-.013l-.006.006h-.012l-.013.007-.012.006-.007.006-.012.007-.006.006-.013.007-.006.006-.013.007-.006.006-.006.007-.006.012-.007.007-.005.012-.007.006v.014l-.006.006V9.763l-.007.007V9.789c0 .144.225.49.287.64.063-.15.28-.495.28-.64 0-.144-.168-.188-.261-.188h-.044v-.005zM68.89 10.72l.007-.025v-.019l.006-.025.006-.025V10.6l.006-.025.006-.032.006-.025.007-.032.006-.03.013-.064.012-.062.012-.07.02-.063.005-.03.013-.032.006-.025.006-.032.013-.025.006-.025.013-.025.012-.025.007-.026.012-.018.013-.02.006-.018.012-.013.013-.012c.118-.107.293-.12.38-.113a.166.166 0 0 1 .143.213c-.037.12-.424.703-.474.772-.087-.012-.075-.012-.292-.024zM68.55 10.72v-.025l-.006-.019-.007-.025-.006-.025V10.6l-.006-.025-.006-.032-.007-.025-.006-.032-.006-.03-.013-.064-.012-.062-.019-.07-.012-.063-.013-.03-.005-.032-.007-.025-.012-.032-.006-.025-.013-.025-.006-.025-.013-.025-.012-.026-.006-.018-.013-.02-.012-.018-.007-.013-.012-.012a.529.529 0 0 0-.38-.113.163.163 0 0 0-.137.213c.03.12.417.703.473.772.087-.012.069-.012.287-.024zM68.305 8.894h.292V8.56h.25v.333h.299v.213h-.3v.389h-.249v-.39h-.292v-.212zM64.703 6.916h.306v-.332h.237v.332h.305v.214h-.305v.389h-.237v-.39h-.306v-.213zM71.934 11.046v-.044l-.006-.025v-.075l-.006-.006v-.038a1.403 1.403 0 0 1-.013-.42c.219.081.368.138.66.62 0 0-.473-.295-.635-.012z"/><path fill="#0055A5" d="M71.524 11.818l-.006-.013v-.044l-.006-.02v-.018l-.006-.018v-.025l-.006-.019v-.025l-.007-.02-.006-.024-.006-.025-.006-.026-.007-.031-.006-.025-.012-.05-.013-.057-.012-.057-.019-.056-.013-.057-.018-.057-.018-.056-.007-.025-.012-.025c-.118-.326-.05-.803.093-1.086.143-.282.224-.546.193-.835 0 0 .287.095.443.195.025.34-.169.672-.256.86-.112.226-.093.515-.062.697.037.308-.025.634-.225.942zM71.493 9.251v-.128l-.006-.007v-.031l-.007-.007v-.012s-.448-.433-.816-.509a.484.484 0 0 0-.441.113s.124-.012.323.15c.2.158.442.359.63.409.186.047.223.035.317.022zM70.178 8.711l-.032.032-.03.032-.025.03-.031.032-.025.032-.025.032-.013.012-.012.019-.013.012-.006.019-.012.019-.013.013-.006.019-.006.012-.013.013-.006.019-.006.012-.007.019-.006.012v.019l-.006.013-.006.019V9.208c0 .158.187.559.28.71.093.15.243.35.224.59-.012.125-.093.25-.193.35 0 0 .542-.13.603-.464.063-.3-.068-.514-.156-.684-.08-.157-.33-.52-.391-.671-.056-.14-.087-.252-.068-.328zM67.022 12.502l-.025.069-.025.075-.019.069-.03.07-.026.068-.025.07-.03.069-.032.062-.03.063-.032.069-.031.063-.037.056-.031.063-.032.057-.037.056-.03.05c-.17.258-.275.685-.25.829 0 0-.249-.546-.124-.929.099-.301.36-.74.846-.929zM66.413 12.628h-.043l-.013.006h-.068l-.019.007h-.043l-.019.006h-.025l-.019.007h-.025l-.018.006-.025.006-.025.007-.018.006h-.025l-.025.013-.019.006-.018.006-.025.007-.019.012-.019.007-.018.013-.019.006c-.218.15-.436.471-.51.86 0 0 .373-.063.56-.25.18-.186.41-.468.497-.731zM68.335 13.306h.044l.006.006h.019l.012.006h.025l.013.007h.012l.012.006.025.006h.025l.025.007.025.006.025.007.012.006h.013l.012.007h.013l.006.006h.019l.012.007s-.317.094-.48.22c-.13.113-.249.288-.298.577-.081.408-.318.847-.393.98l-.024-.007c.043-.283-.13-.86-.175-.941 0 0 .25-.163.367-.327.082-.122.231-.322.648-.58zM66.693 14.178l-.013.019-.006.019-.012.025-.013.025-.012.019-.013.025-.012.032-.012.025-.013.025-.012.032-.025.056-.025.057-.013.031-.012.032-.013.037-.006.032-.012.032-.007.03-.006.039-.006.031-.006.038-.007.037V15.053l.007.038.012.037.006.038c.119.395.374.565.537.897 0 0 .124-.602.093-1.067-.025-.472-.193-.648-.4-.817zM65.172 15.276v-.019l.006-.025.012-.025.006-.032.019-.025.012-.032.02-.031.018-.032.019-.037.018-.032.025-.037.025-.038.025-.037.018-.038.05-.075.05-.076.025-.037.025-.045.018-.037.025-.038.019-.038.018-.037.019-.038.012-.031.012-.038.013-.031.007-.038.005-.031v-.057c-.03-.301-.423-.514-.523-.559h-.005c-.1.044-.499.258-.524.56-.024.3.505.859.517 1.085h.014v.001zM65.977 14.19l-.007.007V14.21l-.006.006-.007.006v.007l-.005.006-.006.012-.007.013-.006.018-.012.026-.02.031-.012.032-.018.031-.013.038-.019.031-.018.038-.019.044-.018.037-.019.038-.019.044-.037.088-.037.082-.019.044-.012.037-.019.038-.012.044-.019.038-.012.031-.013.038-.006.032-.012.031-.007.025c-.062.283-.006.465.119.634.13.17.342.358.535.71 0 0 .23-.302.255-.459a2.035 2.035 0 0 0-.068-.696c-.044-.16-.238-.674-.406-1.195zM65.177 16.983l.031-.031.032-.032.03-.031.026-.032.03-.031.026-.032.03-.032.026-.037.018-.031.025-.032.007-.019.012-.012.013-.02.005-.012.006-.018.013-.013.006-.013.006-.019.006-.012.006-.013.007-.012.006-.013c.044-.132.056-.32-.056-.464-.13-.17-.3-.364-.312-.52h-.012c-.006.156-.175.35-.312.52-.112.144-.1.332-.05.464.05.126.2.346.368.496h.007v.001zM65.791 16.494l.006.006.006.006.007.007.006.006.006.013.012.012.013.019.018.02.02.024.018.02.019.024.025.026.018.031.025.025.025.031.018.026.05.062.044.056.025.032.025.032.019.031.018.025.025.032.02.025.018.025.012.025.019.025.012.025.013.019.012.018.007.013v.006l.005.007v.006c.063.157.157.44.025.64-.13.201-.442.522-.71.66 0 0 .293-.458.262-.835-.02-.245-.2-.458-.237-.603-.037-.145-.012-.396.094-.622zM66.63 16.205l-.005.007-.007.012-.006.007-.006.012-.006.013-.013.012-.006.013-.006.012-.006.02-.007.012-.012.02-.006.012-.006.019-.006.012-.02.038-.012.038-.012.037-.013.038-.012.038-.013.037-.006.025v.02l-.006.018v.02l-.006.024v.02c-.013.213.025.388.143.708.143.395.367.841.48 1.042 0 0 .199-.295.31-.552 0 0-.317-.44-.453-.747-.157-.366-.219-.705-.281-.987zM66.781 16.03v.012l.006.019v.019l.007.025.006.025.006.038.006.038.007.044.012.043.013.05.012.057.012.057.019.056.018.063.02.069.018.063.025.068.024.076.025.069.031.075.032.075.03.075.038.076.037.075.038.075.043.076.044.081.05.075.05.07.05.075.055.075c.405.514.735.697.953.697.33 0 .66-.283.772-.597.106-.314.075-.81-.137-.979 0 0-.2.615-.623.64-.472.026-1.089-.514-1.699-1.556z"/><path fill="#0055A5" d="M67.27 15.602l-.006.02-.006.018v.02l-.007.018-.005.019v.019l-.007.044-.006.044-.006.044v.239l.006.05.006.05.007.05.012.05.012.051c.05.2.169.464.405.615.2.126.678.157.859-.301 0-.002-.872.068-1.264-1.05zM65.168 18.653l.025-.013.019-.012.025-.007.018-.012.025-.013.019-.012.012-.007.013-.013.012-.006.007-.007.012-.012.013-.007.012-.012.013-.007.012-.012.012-.013.006-.012.013-.013.012-.013.013-.018.012-.013.013-.019.012-.012.012-.019.013-.019.018-.025c.106-.17.212-.483.156-.71-.075-.275-.23-.388-.317-.564-.069.069-.112.12-.206.176h-.006c-.087-.056-.137-.107-.212-.176-.093.176-.236.289-.311.565-.056.226.044.54.156.709.137.227.243.265.367.328zM65.17 20.378l.005-.025.013-.025.012-.031.013-.032.018-.032.019-.031.018-.031.025-.032.025-.038.025-.037.025-.032.025-.038.05-.075.056-.075.05-.076.024-.037.025-.038.025-.038.018-.031.02-.038.018-.037.018-.032.013-.037.012-.032.013-.032.006-.03V19.302c-.08-.432-.355-.345-.567-.52h-.006c-.211.175-.492.087-.567.52-.054.279.506.806.568 1.075zM65.84 19.745l-.005.025-.019.032-.012.031-.019.031-.018.032-.019.032-.018.031-.02.032-.043.063-.05.062-.043.063-.05.063-.043.063-.019.025-.025.03-.018.032-.02.032-.017.025-.013.031-.018.026-.013.031-.012.025-.007.025-.006.025-.006.026-.006.025v.019c.012.64.286 1.029.348 1.242 0 0 .511-.407.598-.872.048-.24-.008-.956-.406-1.307zM66.413 20.197l-.007-.019-.006-.019-.006-.019-.013-.019-.006-.025-.012-.018-.007-.026-.012-.024-.013-.026-.012-.03-.013-.026-.012-.025-.025-.057-.03-.056-.032-.063-.031-.056-.019-.026-.018-.025-.019-.025-.018-.025-.02-.025-.018-.025-.018-.025-.019-.02-.019-.018-.018-.019-.019-.019-.025-.02s-.274-.815.61-1.317c0 0 .368.483.468.948.098.458-.387.734-.611 1.149zM67.524 18.125l.025.038.031.032.031.038.031.037.031.031.031.038.031.038.032.031.037.032.031.037.013.013.018.013.019.019.012.012.019.013.012.012.02.013.012.006.018.013.012.013.019.006.012.006s.057.364.025.609c-.043.358-.28.728-.373 1.004 0 0-.392-.515-.43-.816-.05-.301-.043-.546-.055-.69 0-.002.218-.353.336-.598zM68.544 19.883l.012-.019.013-.019.012-.025.019-.019.012-.031.019-.026.019-.031.012-.031.018-.038.02-.032.018-.037.025-.044.018-.038.02-.044.018-.038.019-.044.037-.088.037-.093.031-.095.019-.044.012-.044.013-.05.012-.044.013-.044.006-.05.006-.044.007-.044v-.088s-.437.238-.798.063c0 0-.05.59.019.784.056.164.137.259.312.397zM68.443 20.008l-.006-.006-.006-.006-.013-.013-.006-.006-.012-.007-.007-.006-.012-.013-.006-.006-.013-.013-.012-.006-.006-.013-.013-.013-.025-.019-.025-.025-.018-.019-.025-.025-.019-.019-.012-.013-.012-.006-.007-.012-.013-.013-.012-.006-.006-.013-.006-.006-.013-.013-.006-.006-.006-.013s-.287.54-.337.697c0 0 .143.032.3-.081.16-.111.198-.143.354-.3zM67.097 19.688l.007.007v.006l.006.013v.006l.006.013.006.006v.013l.007.012.012.026.019.025.012.03.019.026.018.031.025.038.019.032.025.037.025.032.019.038.05.069.05.075.024.032.025.038.025.03.018.032.025.032.02.032.024.025.018.025.02.025.012.018.006.007.012.013.007.006.006.007.006.006v.007l.006.006.006.006s-.037.239-.205.578c-.18.345-.418.584-.548.703 0 0-.286-.509-.374-.728-.1-.258-.093-.515-.043-.61.093-.222.43-.542.585-.825zM65.175 23.586l.006-.02.006-.018.007-.018.006-.02.012-.012.006-.019.013-.019.012-.019.012-.018.013-.02.019-.024.012-.02.031-.037.031-.044.031-.044.038-.044.03-.05.032-.05.018-.025.013-.025.018-.025.013-.026.012-.025.013-.03.012-.026.013-.031c.062-.182.062-.402-.013-.552-.08-.17-.386-.597-.423-.716-.038.12-.337.546-.424.716-.074.15-.074.37-.006.552.112.314.38.527.423.709h.014zM66.39 21.408l-.007.025-.012.019-.012.025-.013.02-.012.024-.019.025-.012.02-.02.024-.018.026-.018.031-.031.05-.038.057-.037.05-.037.056-.032.056-.03.057-.02.031-.012.025-.013.032-.018.025-.006.025-.012.031-.013.025-.006.031-.006.026-.007.025c-.037.213 0 .389.05.54.062.144.25.432.374.652 0 0 .429-.407.523-.696a1.05 1.05 0 0 0-.056-.728c-.106-.195-.33-.402-.43-.609zM67.61 21.352l-.013.025-.012.025-.013.018-.012.025-.013.026-.012.019-.03.043-.032.05-.038.045-.03.044-.038.043-.03.044-.032.044-.031.044-.013.019-.012.025-.013.019-.012.025-.013.018-.012.02-.006.024-.007.02-.012.018-.006.026c-.069.244-.087.407.03.702.107.257.238.408.282.565 0 0 .349-.452.405-.64.062-.195.08-.502.006-.696-.07-.201-.194-.459-.281-.64zM65.167 27.069l.006-.025.006-.025.007-.025.012-.032.013-.03.012-.032.012-.038.019-.044.019-.037.018-.044.02-.044.017-.05.025-.05.019-.05.025-.051.019-.056.025-.05.025-.057.018-.063.019-.056.025-.063.019-.062.018-.063.019-.063.019-.063.012-.062.012-.07.013-.062.012-.07.007-.068.006-.063v-.069c.018-.364-.312-.941-.492-1.155h-.013c-.18.214-.498.791-.492 1.155.026.72.48 1.41.5 1.637zM65.897 23.084v.006h.006v.006l.007.006.006.007.006.006.006.006.007.012.006.007.012.012.006.013.007.013.025.025.018.031.025.032.025.031.025.038.025.037.03.038.025.044.025.044.032.044.025.044.03.044.025.05.025.043.025.044.019.05.024.044.02.044.018.05.012.045.013.043.012.038.006.044v.075c-.012.483-.33.797-.38 1.098 0 0-.31-.357-.429-.596-.137-.276-.243-.502-.199-.809.032-.307.113-.502.43-.81zM67 23.008l-.012.013-.007.019-.012.02-.012.018-.013.018-.012.025-.013.026-.018.025-.013.025-.012.025-.013.03-.018.026-.013.031-.012.032-.031.063-.013.037-.012.032-.013.032-.006.03-.012.038-.006.031-.013.032-.006.031-.006.038v.032l-.007.03v.057l.007.03v.033l.012.025c.069.282.368.678.468.853 0 0 .236-.49.292-.715.05-.226.006-.59-.474-1.042z"/><path fill="#0055A5" d="M65.58 28.236l.006-.05.006-.05.007-.05.006-.05.012-.05.007-.045.012-.044.012-.044.02-.044.012-.044.012-.037.019-.044.019-.038.012-.037.037-.076.031-.069.038-.069.03-.063.032-.062.012-.032.013-.032.012-.03.013-.032.012-.025.006-.031.006-.025.007-.025c.062-.327.043-.634-.212-1.011a9.636 9.636 0 0 1-.592 1.557c-.006.012-.012.018-.018.03 0-.012-.007-.018-.013-.03a9.055 9.055 0 0 1-.597-1.557c-.25.377-.274.684-.212 1.01.056.29.374.634.41 1.2.038.57-.597.784-.597.784.218.075.46.113.847-.257a.776.776 0 0 0 .162-.22c.043.081.1.15.162.22.392.37.635.332.846.257 0 0-.629-.213-.597-.785zM63.58 24.465l.007.018.012.025.006.02.007.024.012.026.013.025.006.025.012.025.019.05.025.05.025.057.019.05.024.057.013.025.006.025.012.019.013.025.006.025.006.019.013.025.006.02.006.018.006.012.007.019.006.012v.02l.006.005c.05.227-.019.503-.424.791 0 0-.261-.188-.367-.433-.1-.226-.038-.389.062-.502.1-.126.343-.396.436-.578zM64.44 25.305v.045l-.007.025v.044l-.006.031v.025l-.006.031-.006.032-.006.038-.006.037-.007.038-.006.038-.006.037-.006.038-.02.081-.018.082-.025.088-.012.037-.007.038-.018.044-.012.037-.013.038-.012.037-.019.038-.012.031-.02.032-.011.031c-.256.446-.63.785-.96.785-.298 0-.36-.182-.516-.257 0 0 .075-.39.417-.49.417-.131 1.058-.634 1.32-1.11z"/><path fill="#0055A5" d="M63.353 26.122l-.013-.013-.012-.006-.025-.02-.013-.012-.012-.006-.019-.013-.012-.006-.013-.012-.012-.013-.006-.006-.007-.006-.006-.007-.006-.006-.013-.006-.006-.007-.006-.006-.007-.006-.006-.013-.012-.006-.006-.006-.006-.013s-.318.12-.592.301c-.262.183-.523.49-.66.647 0 0 .392.1.647-.012 0 0 .093-.383.374-.553.069-.038.262-.1.449-.194zM63.013 25.795l-.006-.006-.006-.013-.007-.006-.006-.013-.006-.012-.006-.013-.007-.012-.006-.013-.006-.012-.013-.013-.006-.019-.006-.013-.006-.012-.007-.019-.006-.018-.006-.013-.012-.018-.007-.02v-.019l-.006-.018-.006-.019-.006-.019-.006-.025v-.018l-.006-.02v-.049l-.007-.02v-.05l.007-.025v-.025s-.56.358-.729.49a4.945 4.945 0 0 0-.598.621s.424-.094.753-.2c.355-.12.598-.284.73-.359zM62.066 26.404l-.024.012-.032.006-.037.013-.031.012-.037.007-.038.012-.043.006-.037.013-.044.012-.044.007-.087.019-.087.025-.093.019-.087.018-.093.019-.088.019-.037.006-.043.013-.038.006-.043.012-.037.007-.032.006-.037.012-.03.007-.032.006-.025.013c-.286.088-.492.226-.76.527 0 0 .412.113.636.188 0 0 .355-.245.74-.389.255-.1.373-.37.64-.633zM61.44 28.419l.012-.013.013-.013.012-.018.013-.013.006-.006.006-.013.006-.006.007-.007v-.012l.006-.007.006-.012.006-.007v-.012l.007-.006v-.025l.006-.006v-.076l-.006-.012v-.013l-.007-.019v-.012l-.006-.02c-.044-.118-.293-.257-.442-.326-.243-.119-.915-.301-1.133-.37 0 0-.112.132-.168.27-.031.056.006.107.1.12.193.037.642-.05.753.024.118.076.075.182.075.283 0 0 .205-.125.336-.094.18.037.292.125.392.42zM60.84 27.477h.012l.006.007h.007l.012.006h.013l.012.006.013.006h.012l.013.007.018.006.012.006.02.006.018.007.019.006.018.012.018.007.02.006.024.012.019.007.025.013.018.012.025.007.025.012.019.013.025.012.025.013.025.012.018.013.025.018.025.013.025.013s.112-.044.168-.151c.056-.1.286-.446.498-.49 0 0-.18-.012-.286-.05 0 0-.212.056-.374.126a2.755 2.755 0 0 0-.572.307zM62.578 27.044h-.007l-.012.006-.007.006h-.012l-.006.007H62.52l-.006.006H62.502l-.006.006h-.019l-.005.006h-.019l-.006.007h-.032l-.012.006h-.038l-.012.006h-.044s-.591.414-.66.822c-.062.358.125.528.212.572.093.05.504.213.772-.34 0 0-.454.151-.585-.068-.118-.226.08-.552.205-.64.169-.126.461-.213.641-.176 0 0-.148-.138-.316-.226z"/><path fill="#0055A5" d="M58.697 31.782l.025-.113.031-.113.032-.119.012-.056.019-.056.018-.057.019-.062.019-.057.018-.056.025-.056.019-.057.025-.057.024-.056c.268-.571.928-2.096 2.298-2.36.124-.03-.15-.351-.274-.333-.125.013-.367.176-.474.245 0 0 0-.326-.006-.382 0-.056-.05-.081-.106-.081-.05.006-.386 0-.485.125-.318.364-.841 1.343-1.14 2.071-.299.728-.505.954-.822.841-.311-.113-.498-.477-1.052-.364-.186.038-.398.17-.566.358.05.088.105.201.36.201.256 0 .754.106 1.022.295.275.192.561.262.96.3zM64.164 27.063l.006.044.006.043.013.044.012.044.013.044.019.044.012.038.019.044.018.044.019.044.018.044.025.037.02.044.024.044.018.044.025.044s-.41 1.939-1.923 2.083c0 0 .03-.401.473-.703.448-.307 1.12-.784 1.07-1.506 0 0-.124.025-.335.295-.212.27-.685 1.055-1.407 1.06 0 0 .105-.37.429-.577.318-.213.729-.483.915-.809.187-.32.38-.47.511-.533zM63.45 34.13l.92 1.299.698-1.249-.249-.452c-.18.333-.38.685-.486.885-.08-.125-.311-.452-.616-.885l-.268.402z"/><path fill="#0055A5" d="M63.22 33.031l-.167-.238-.174-.245-.175-.245-.174-.244-.174-.245-.169-.239-.08-.113-.082-.113-.08-.113-.075-.106-.075-.107-.069-.1-.068-.1-.068-.095-.063-.088-.062-.082-.056-.08-.05-.07-.05-.069-.043-.063-.038-.056-.03-.05-.032-.038-.025-.038-.018-.025-.013-.019.35-.25-1.097-.422.019 1.2.373-.27 2.204 3.125.262-.402zM55.673 25.946l.025-.025.031-.026.025-.018.031-.019.031-.012.031-.013.03-.006.032-.007.032-.006h.037l.031.006h.038l.037.013.037.006.038.012.037.013.038.019.043.018.038.02.044.019.037.025.044.025.043.031.038.025.043.031.044.031.043.038.044.031.043.038.038.038.043.037.043.038c.46.427.753.866.486 1.167-.25.27-.735.038-1.19-.389-.466-.426-.752-.866-.485-1.16z"/><path fill="#0055A5" d="M56.418 31.218l-.006-.006-.006-.007-.006-.006h-.007v-.006h-.006v-.007h-.006v-.006h-.006a1.228 1.228 0 0 1-.386-.916c0-.703.566-1.274 1.258-1.274.697 0 1.264.57 1.264 1.274 0 .094-.02.245-.02.245.057-.107.269-.59.306-.678a1.609 1.609 0 0 0-1.55-1.187c-.636 0-1.177.371-1.445.91.1-.64.417-1.217.641-1.43.268-.257.728-.34.728-.34-.304.045-.69-.137-1.14-.545-.416-.389-.628-.728-.647-1.01.025.402.019.621-.093.954-.156.44-.573 1.255-.423 2.178.08.509.442 1.262 1.058 1.876.125.138.174.346.193.452 0 0 .897 0 1.115.019 0 0 .212-.019.2-.157 0-.132-.119-.164-.218-.164-.113 0-.561.006-.798-.17zM61.388 31.525l-.106.038-.112.037-.105.032-.106.031-.112.032-.106.03-.106.026-.105.025-.112.025-.106.02-.106.018-.105.018-.206.038-.212.032a5.273 5.273 0 0 1-1.033.062.314.314 0 0 1-.025.182s.062.075.062.17a5.47 5.47 0 0 0 1.052-.069c.598-.094 1.227-.213 1.856-.452l-.207-.295zM62.333 31.481l.143-.082.143-.087.143-.094.143-.1.137-.107.143-.113.137-.12.143-.125.137-.131.13-.144.137-.144.13-.158.138-.17.13-.169.125-.182.068-.094.062-.1.118-.201c-.18.08-.417.025-.417.025-.012.018-.043.069-.062.088-.622.935-1.32 1.531-2.036 1.92l.208.288zM57.277 31.808h-.062l-.019-.006H56.99l-.042.006h-.05l-.044.006h-.05l-.043.007h-.043l-.025.006h-.02l-.018.006h-.019c-.224.03-.473.081-.504.2-.019.12.056.245.168.42.075.107.237.051.324.013.093-.037.616-.313.697-.407.08-.088.112-.22-.044-.251zM57.81 32.16l-.006-.007-.007-.006h-.006l-.006-.006h-.006l-.007-.006-.006-.007h-.012l-.007-.007h-.012l-.007-.006h-.012l-.006-.006h-.025l-.006-.006h-.025l-.012-.007h-.087l-.013.007h-.012l-.013.006h-.012l-.013.006h-.012c-.143.057-.654.364-.691.503-.031.144.037.22.118.25.08.032.174.063.25.07a.417.417 0 0 0 .317-.151c.062-.082.299-.37.336-.44.031-.056.056-.157 0-.188zM57.871 32.473l-.006.006-.006.013-.012.007-.006.012-.013.013-.012.012-.006.013-.013.012-.012.013-.012.018-.013.013-.012.013-.019.03-.025.032-.012.013-.013.019-.012.012-.012.013-.007.012-.012.013-.013.013-.006.012-.013.013-.006.012-.007.007-.006.012-.006.007v.006h-.006v.006l-.007.006c-.025.038.013.107.075.095.069-.007.417-.044.623-.182.199-.138.336-.402.199-.502-.144-.102-.355-.052-.592.206zM57.98 31.7h-.012l-.012-.005h-.019l-.013-.007h-.012l-.012-.006h-.025l-.019-.006h-.012l-.013-.006h-.049l-.013-.007h-.087l-.012.007h-.013l-.012.006h-.013v.006h-.012l-.006.006-.006.007h-.006v.006h-.007v.006c-.075.113-.025.226.187.326.206.1.591.182.666.075.074-.106-.026-.288-.467-.407zM66.754 24.465l-.006.018-.013.025-.006.02-.006.024-.012.026-.007.025-.012.025-.013.025-.018.05-.025.05-.019.057-.025.05-.025.057-.012.025-.007.025-.012.019-.013.025-.006.025-.012.019-.007.025-.006.02-.006.018-.006.012-.007.019-.005.012-.007.02v.006c-.043.226.019.502.424.79 0 0 .268-.188.367-.433.1-.225.038-.389-.055-.502-.106-.126-.343-.396-.443-.578zM65.898 25.305l.006.013v.076l.007.025v.031l.006.025.006.031v.032l.006.038.007.037.006.038.006.038.013.037.006.038.019.081.018.082.019.087.012.038.013.038.012.043.013.038.019.038.012.037.013.038.018.031.019.032.012.03c.256.447.623.786.96.786.298 0 .367-.182.51-.257 0 0-.075-.39-.418-.49-.416-.131-1.058-.634-1.32-1.11z"/><path fill="#0055A5" d="M66.984 26.122l.019-.013.012-.006.025-.02.013-.012.012-.006.013-.013.012-.006.012-.012.013-.013.006-.006.006-.006.006-.007.013-.006.006-.006.006-.007.007-.006.006-.006.006-.013.013-.006.006-.006.005-.013s.324.12.592.301c.262.183.523.49.666.647 0 0-.398.1-.653-.012 0 0-.093-.383-.374-.553-.062-.038-.26-.1-.448-.194zM67.32 25.795l.006-.006.007-.013.006-.006.006-.013.006-.012.006-.013.007-.012.012-.013.006-.012.007-.013.005-.019.007-.013.013-.012.005-.019.007-.018.006-.013.006-.018.006-.02.007-.019.006-.018.006-.019.006-.019v-.025l.007-.018v-.02l.006-.024v-.045l.006-.024v-.026l-.006-.025v-.025s.56.358.728.49c.162.138.517.502.592.621 0 0-.424-.094-.748-.2-.354-.12-.603-.284-.734-.359zM68.266 26.404l.03.012.031.006.032.013.037.012.037.007.038.012.037.006.044.013.037.012.044.007.087.019.094.025.087.019.093.018.088.019.087.019.043.006.044.013.037.006.037.012.038.007.037.006.032.012.03.007.031.006.032.013c.28.088.485.226.76.527 0 0-.418.113-.636.188 0 0-.354-.245-.747-.389-.255-.1-.374-.37-.641-.633zM68.895 28.419l-.013-.013-.012-.013-.013-.018-.012-.013-.006-.006-.007-.013-.006-.006-.006-.007v-.012l-.006-.007-.006-.012-.007-.007v-.012l-.006-.006v-.025l-.006-.006v-.076l.006-.012v-.013l.007-.019.005-.012v-.02c.05-.118.293-.257.442-.326.25-.119.922-.301 1.14-.37 0 0 .106.132.168.27.02.056-.012.107-.105.12-.187.037-.642-.05-.748.024-.117.076-.08.182-.08.283 0 0-.206-.125-.336-.094-.182.037-.287.125-.393.42zM69.501 27.477h-.012l-.006.007h-.013l-.006.006h-.012l-.013.006-.012.006h-.012l-.02.007-.012.006-.018.006-.013.006-.018.007-.019.006-.018.012-.025.007-.02.006-.018.012-.025.007-.018.013-.025.012-.019.007-.025.012-.025.013-.025.012-.018.013-.025.012-.025.013-.025.018-.025.013-.024.013s-.113-.044-.169-.151c-.056-.1-.286-.446-.492-.49 0 0 .175-.012.28-.05 0 0 .219.056.374.126.155.056.348.156.578.307zM67.764 27.044h.006l.006.006h.006l.007.006h.005l.007.007h.012l.006.006H67.832l.006.006h.019l.006.006h.019l.012.007h.025l.012.006h.038l.012.006h.044s.598.414.666.822c.056.358-.124.528-.218.572-.087.05-.498.213-.772-.34 0 0 .454.151.585-.068.125-.226-.075-.552-.206-.64-.162-.126-.46-.213-.635-.176.001 0 .144-.138.319-.226z"/><path fill="#0055A5" d="M71.641 31.782l-.031-.113-.025-.113-.03-.119-.02-.056-.018-.056-.013-.057-.018-.062-.019-.057-.025-.056-.018-.056-.025-.057-.025-.057-.025-.056c-.261-.571-.921-2.096-2.291-2.36-.13-.03.143-.351.268-.333.124.013.367.176.48.245v-.382c.005-.056.055-.081.105-.081.056.006.386 0 .492.125.311.364.84 1.343 1.133 2.071.305.728.51.954.822.841.311-.113.498-.477 1.052-.364.193.038.405.17.567.358-.044.088-.1.201-.361.201-.256 0-.747.106-1.021.295-.275.192-.562.262-.954.3zM66.176 27.063l-.012.044-.006.043-.013.044-.012.044-.012.044-.013.044-.018.038-.02.044-.012.044-.025.044-.018.044-.019.038-.025.043-.019.044-.05.088s.417 1.94 1.93 2.084c0 0-.03-.402-.48-.703-.448-.308-1.114-.785-1.064-1.506 0 0 .112.025.33.295.212.27.685 1.054 1.414 1.06 0 0-.106-.37-.43-.577-.323-.213-.728-.483-.915-.81-.187-.32-.386-.47-.51-.533zM65.173 28.946l.006.025.013.031.012.031.019.031.018.038.025.038.02.044.03.043.025.044.025.044.03.044.032.05.031.05.037.05.069.095.068.1.069.094.037.05.037.045.031.044.038.043.03.045.032.037.03.038.032.038.031.031.03.025.026.032.025.019c.243.232.853.847 1.183 1.154 0 0-.928-.232-1.45-.709 0 0-.368.214-.636.214h-.018c-.268 0-.641-.213-.641-.213-.517.477-1.445.709-1.445.709.324-.308.934-.923 1.183-1.155.25-.226.822-1.042.91-1.3h.006z"/><path fill="#0055A5" d="M65.175 31.098h.038l.018-.006H65.287l.038-.006.037-.007.032-.012.037-.007.03-.012.038-.007.031-.012.025-.013.031-.006.013-.006.012-.007.013-.006.012-.006.013-.006h.012l.012-.007.013-.006c-.112.226-.317.597-.51.74h-.007c-.199-.143-.405-.514-.517-.74.112.05.305.132.51.132h.013z"/><path fill="#0055A5" d="M65.966 35.429l3.624-5.122.367.27.025-1.199-1.096.42.342.252c-.174.257-2.882 4.08-3.225 4.562l-1.637-3-.206.308-1.456 2.228-.368-.245v1.18l1.108-.44-.373-.257c.205-.3.99-1.506 1.257-1.908l1.638 2.95z"/><path fill="#0055A5" d="M66.628 33.414l-.093-.138-.05-.069-.043-.069-.043-.063-.044-.069-.043-.063-.038-.062-.043-.063-.037-.056-.02-.025-.018-.032-.012-.025-.019-.025-.019-.025-.012-.026-.018-.025-.013-.019-.012-.025-.02-.019-.012-.018-.012-.019c-.087.17-.274.508-.48.879l-.261-.465.71-1.28.199.307.728 1.105-.275.39zM67.378 33.747l.256.401.367-.245.006 1.18-1.109-.439.368-.257c-.038-.056-.094-.145-.169-.258l.281-.382zM74.67 25.946l-.024-.025-.031-.026-.025-.018-.031-.019-.031-.012-.032-.013-.03-.006-.031-.007-.032-.006h-.037l-.03.006h-.038l-.038.013-.037.006-.037.012-.038.013-.043.019-.038.018-.037.02-.044.019-.037.025-.043.025-.044.031-.043.025-.038.031-.043.031-.044.038-.043.031-.044.038-.043.038-.044.037-.043.038c-.467.427-.753.866-.48 1.167.25.27.722.038 1.19-.389.459-.426.751-.866.484-1.16z"/><path fill="#0055A5" d="M73.914 31.218l.006-.006h.007v-.007h.005V31.2h.007v-.006h.006l.006-.007h.006v-.006h.007c.242-.22.38-.552.38-.916 0-.703-.561-1.274-1.265-1.274-.69 0-1.257.57-1.257 1.274 0 .094.018.245.018.245-.05-.107-.261-.59-.305-.678a1.607 1.607 0 0 1 1.544-1.187c.642 0 1.19.37 1.451.91-.1-.64-.417-1.217-.64-1.43-.269-.257-.723-.34-.723-.34.299.045.69-.137 1.133-.545.417-.39.635-.728.648-1.01-.025.402-.013.62.1.954.155.44.566 1.255.422 2.178-.08.508-.448 1.262-1.058 1.876a.846.846 0 0 0-.193.452s-.903 0-1.108.019c0 0-.219-.019-.212-.157 0-.132.124-.164.224-.164.112 0 .554.006.791-.17zM68.002 31.481l-.142-.082-.144-.087-.142-.094-.137-.1-.143-.107-.143-.113-.137-.12-.137-.125-.137-.131-.137-.144-.137-.144-.13-.158-.131-.17-.13-.169-.131-.182-.062-.094-.069-.1-.118-.201c.187.08.417.025.417.025.02.018.044.069.056.088.635.935 1.332 1.531 2.042 1.914l-.208.294zM68.947 31.525l.106.038.112.037.105.032.112.031.106.032.106.03.112.026.106.025.106.025.105.02.106.018.106.018.211.038.206.032c.355.056.703.075 1.033.062 0 .057 0 .126.025.182 0 0-.056.075-.056.17a5.57 5.57 0 0 1-1.058-.069c-.598-.094-1.227-.213-1.862-.452l.213-.295zM73.056 31.808h.069l.018-.006h.2l.05.006h.043l.05.006h.043l.05.007h.044l.019.006h.025l.018.006h.018c.218.03.468.081.498.2.025.12-.055.245-.168.42-.068.107-.23.051-.324.013-.093-.037-.61-.313-.697-.407-.08-.088-.112-.22.044-.251zM72.531 32.16l.007-.007v-.006h.006l.012-.006h.007l.006-.006.006-.007h.006l.013-.007h.006l.013-.006h.006l.013-.006H72.65l.012-.006h.019l.013-.007h.087l.012.007h.013l.012.006h.013l.012.006h.013c.143.057.654.364.69.502.032.145-.037.22-.112.252-.087.03-.18.062-.255.068a.393.393 0 0 1-.311-.15c-.069-.082-.305-.37-.337-.44-.037-.056-.055-.157 0-.188zM72.462 32.473l.006.007.012.012.007.007.006.012.012.013.013.012.006.013.013.012.012.013.013.018.012.013.013.013.024.03.025.032.025.032.007.012.012.013.013.013.012.012.006.013.012.012.007.013.012.012.006.007.007.012.006.007.006.006v.006l.006.006c.019.038-.018.107-.08.095-.07-.007-.417-.044-.617-.182-.206-.138-.336-.401-.2-.502.138-.102.355-.052.586.206zM72.352 31.7h.019l.006-.005h.019l.013-.007h.012l.012-.006h.025l.02-.006h.012l.018-.006h.044l.012-.007h.087l.013.007h.012l.012.006h.013l.006.006H72.72v.006h.006l.006.007.006.006.007.006c.068.113.018.226-.187.326-.206.1-.598.182-.673.075-.075-.106.031-.288.467-.407z"/></g><defs><clipPath id="clip0_1241_71395"><path fill="#fff" d="M0 0h86v42H0z"/></clipPath></defs></svg>