<svg xmlns="http://www.w3.org/2000/svg" fill="none" viewBox="0 0 100 42"><g fill-rule="evenodd" clip-path="url(#clip0_1241_71247)" clip-rule="evenodd"><path fill="#3F3F42" d="M64.345 33.147c-1.82.508-4.19.72-6.223.72-5.291 0-8.763-2.752-8.763-7.79 0-4.784 3.26-7.874 8.001-7.874 1.059 0 2.202.127 2.879.466v-6.943h4.106v21.42zM60.24 22.225c-.635-.297-1.524-.466-2.54-.466-2.498 0-4.149 1.524-4.149 4.191 0 2.836 1.778 4.445 4.7 4.445.507 0 1.312 0 1.989-.17v-8zm37.846 10.922c-1.82.508-4.191.72-6.265.72-5.25 0-8.763-2.752-8.763-7.79 0-4.784 3.26-7.874 8-7.874 1.101 0 2.202.127 2.88.466v-6.943h4.148v21.42zm-4.149-10.922c-.635-.297-1.482-.466-2.498-.466-2.54 0-4.19 1.524-4.19 4.191 0 2.836 1.82 4.445 4.74 4.445.509 0 1.27 0 1.948-.17v-8zm-23.114 0c.677-.297 1.651-.381 2.456-.381 2.54 0 4.275 1.44 4.275 4.021 0 3.048-1.947 4.445-4.53 4.488v3.513h.212c5.334 0 8.51-2.92 8.51-8.128 0-4.74-3.388-7.535-8.383-7.535-2.54 0-5.037.593-6.688 1.27v20.108h4.148V22.225z"/><path fill="#DC0032" d="M34.207 8.424l.677.762.381-.211-1.058-.55z"/><path fill="#DC0032" d="M33.188 7.874L34.5 9.398l.465-.254-.508-.593-1.27-.677z"/><path fill="#DC0032" d="M32.129 7.324l1.99 2.286.465-.254L33.441 8l-1.312-.677z"/><path fill="#DC0032" d="M31.117 6.773l2.625 3.048.466-.254-1.82-2.116-1.27-.678zm5.038 5.377l-.297.169.297.339v-.508z"/><path fill="#DC0032" d="M30.102 6.223l3.26 3.81.465-.254L31.372 6.9l-1.27-.677zm5.884 6.011l-.466.297.635.762v-.805l-.17-.254z"/><path fill="#DC0032" d="M29.04 5.673l3.936 4.572.508-.254-3.133-3.641-1.312-.677zm6.56 6.773l-.465.296 1.016 1.186v-.805l-.55-.677z"/><path fill="#DC0032" d="M28.023 5.122l4.615 5.334.465-.254-3.81-4.402-1.27-.678zM35.22 12.7l-.466.254 1.397 1.65v-.803L35.22 12.7z"/><path fill="#DC0032" d="M27.008 4.572l5.25 6.096.465-.254-4.445-5.165-1.27-.677zm7.831 8.34l-.465.254 1.778 2.074v-.804l-1.313-1.524z"/><path fill="#DC0032" d="M25.95 4.022l5.926 6.858.466-.254-5.08-5.927-1.313-.677zm8.508 9.101l-.465.254 2.158 2.498v-.804l-1.693-1.948z"/><path fill="#DC0032" d="M24.934 3.471l6.561 7.663.466-.297-5.757-6.688-1.27-.678zm9.143 9.864l-.465.254 2.54 2.963v-.804l-2.075-2.413z"/><path fill="#DC0032" d="M23.875 2.921l7.239 8.424.466-.296-6.393-7.45-1.312-.678zm9.864 10.626l-.508.254 2.92 3.386v-.804l-2.412-2.836z"/><path fill="#DC0032" d="M22.86 2.37l7.873 9.187.508-.296-7.07-8.213-1.312-.677zm10.498 11.388l-.466.254 3.26 3.853v-.847l-2.794-3.26z"/><path fill="#DC0032" d="M21.844 1.82l8.551 9.949.466-.297-7.747-8.974-1.27-.678zm11.133 12.15l-.465.254 3.64 4.276v-.805l-3.175-3.725z"/><path fill="#DC0032" d="M20.785 1.228l9.229 10.752.465-.296-8.381-9.737-1.313-.72zm11.811 12.954l-.466.254 4.022 4.698v-.804l-3.556-4.148z"/><path fill="#DC0032" d="M19.77.677l9.863 11.515.466-.254-9.017-10.541-1.313-.72zm12.445 13.716l-.465.254 4.402 5.165v-.847l-3.937-4.572z"/><path fill="#DC0032" d="M18.754.17l10.498 12.234.466-.254L20.024.847l-1.27-.678zm13.08 14.435l-.465.254 4.784 5.588v-.805l-4.318-5.037z"/><path fill="#DC0032" d="M18.078 0l10.795 12.615.466-.254L19.009.296 18.756.17A1.243 1.243 0 0 0 18.078 0zm13.377 14.817l-.465.254 5.164 6.01v-.803l-4.699-5.461z"/><path fill="#DC0032" d="M18.074 0c-.169 0-.338.042-.508.085l10.922 12.742.508-.254L18.201 0h-.127zm13.039 15.028l-.466.254 5.504 6.477v-.846l-5.038-5.885z"/><path fill="#DC0032" d="M17.695.042c-.084.043-.211.085-.253.127l-.255.127L28.152 13.04l.465-.254L17.695.042zm13.04 15.198l-.467.296 5.885 6.858v-.804l-5.419-6.35z"/><path fill="#DC0032" d="M17.27.212l-.465.254L27.769 13.25l.466-.254L17.27.212zm13.081 15.24l-.465.296 6.265 7.281v-.804l-5.8-6.773z"/><path fill="#DC0032" d="M16.891.423l-.465.254L27.39 13.462l.466-.254L16.89.423zm13.081 15.24l-.465.297 6.646 7.746v-.804l-6.18-7.239z"/><path fill="#DC0032" d="M16.509.635l-.466.254 10.964 12.785.466-.254L16.509.635zm13.08 15.24l-.465.296 7.027 8.17v-.804l-6.562-7.662z"/><path fill="#DC0032" d="M16.13.847l-.466.254 10.964 12.784.466-.254L16.13.847zm13.08 15.24l-.465.296 7.408 8.594v-.805l-6.942-8.085z"/><path fill="#DC0032" d="M15.747 1.058l-.466.254 10.964 12.785.466-.254L15.747 1.058zm13.123 15.24l-.466.297 7.747 9.059v-.805l-7.28-8.55z"/><path fill="#DC0032" d="M15.364 1.228l-.466.296 11.007 12.785.466-.254L15.364 1.228zm13.123 15.324l-.465.254 8.128 9.483v-.805l-7.663-8.932z"/><path fill="#DC0032" d="M14.985 1.44l-.465.253L25.526 14.52l.466-.254L14.985 1.44zm13.123 15.324l-.465.254 8.509 9.948v-.847l-8.044-9.355z"/><path fill="#DC0032" d="M14.606 1.651l-.465.254 11.006 12.87.466-.297L14.606 1.65zM27.73 16.976l-.466.254 8.89 10.371v-.804l-8.425-9.821z"/><path fill="#DC0032" d="M14.223 1.863l-.465.254 11.006 12.869.466-.296L14.223 1.863zm13.124 15.324l-.466.254 9.271 10.795v-.804l-8.805-10.245z"/><path fill="#DC0032" d="M13.84 2.074l-.465.254 11.007 12.87.465-.297L13.841 2.074zM26.965 17.4l-.466.254 9.652 11.26v-.846l-9.186-10.668z"/><path fill="#DC0032" d="M13.462 2.286l-.466.254 11.007 12.87.465-.297L13.462 2.286zm13.165 15.325l-.465.254 9.99 11.683v-.804l-9.525-11.133z"/><path fill="#DC0032" d="M13.082 2.455l-.508.254 11.092 12.912.465-.296-11.049-12.87zm13.166 15.367l-.466.254 10.372 12.107v-.804l-9.906-11.557z"/><path fill="#DC0032" d="M12.7 2.667l-.509.254 11.134 12.954a.33.33 0 0 1 .17-.17l.253-.169L12.7 2.667zm13.165 15.367l-.466.254 10.668 12.446c.043-.127.085-.254.085-.381v-.339l-10.287-11.98z"/><path fill="#DC0032" d="M12.32 2.879l-.508.254L23.2 16.383v-.17c0-.126.085-.296.17-.423L12.32 2.88zm13.166 15.367l-.339.211c-.042 0-.084.043-.127.043l10.838 12.657c.127-.17.211-.339.254-.508L25.486 18.246z"/><path fill="#DC0032" d="M11.938 3.09l-.508.254L23.198 17.06v-.846L11.938 3.09zm12.36 15.198L35.56 31.453c.127-.084.253-.254.38-.38L25.104 18.456a.723.723 0 0 1-.592 0l-.212-.17z"/><path fill="#DC0032" d="M11.559 3.302l-.508.254 24.13 28.11.338-.17.127-.127-11.091-12.912h-.042l-.974-.592c-.085-.043-.127-.127-.212-.212-.084-.127-.084-.212-.127-.296v-.466L11.56 3.302z"/><path fill="#DC0032" d="M11.176 3.514l-.508.254 24.13 28.109.465-.254-24.087-28.11z"/><path fill="#DC0032" d="M10.793 3.683l-.508.254 24.172 28.151.466-.254-24.13-28.151z"/><path fill="#DC0032" d="M10.414 3.895l-.508.254L34.078 32.3l.466-.254-24.13-28.151z"/><path fill="#DC0032" d="M10.031 4.106l-.508.254 24.173 28.152.465-.254-24.13-28.152z"/><path fill="#DC0032" d="M9.61 4.318l-.465.254 24.172 28.194.465-.297L9.61 4.318z"/><path fill="#DC0032" d="M9.227 4.53l-.465.254 24.172 28.193.466-.296L9.227 4.53z"/><path fill="#DC0032" d="M8.848 4.741l-.465.254L32.597 33.19l.466-.296L8.848 4.74z"/><path fill="#DC0032" d="M8.466 4.91L8 5.166 32.215 33.4l.465-.297L8.466 4.911z"/><path fill="#DC0032" d="M8.083 5.122l-.466.254 24.215 28.236.465-.254L8.083 5.122z"/><path fill="#DC0032" d="M7.704 5.334l-.466.254 11.769 13.716.38.254c.17.084.34.296.34.508v.042l11.726 13.716.465-.254L7.704 5.334z"/><path fill="#DC0032" d="M7.325 5.546l-.466.254L17.91 18.71l1.396.762L7.325 5.546zm12.361 14.393c0 .042.043.084.043.127v.72l11.345 13.25.465-.254-11.853-13.843z"/><path fill="#DC0032" d="M6.942 5.757l-.465.254 10.329 12.065 1.397.762-11.26-13.08zm12.785 14.86v.803l11.006 12.827.466-.254-11.472-13.377z"/><path fill="#DC0032" d="M6.563 5.969l-.465.254L15.75 17.44l1.354.762L6.564 5.97zM19.73 21.25v.847l10.626 12.361.465-.254L19.73 21.251z"/><path fill="#DC0032" d="M6.18 6.138l-.465.254 8.932 10.414 1.355.805L6.18 6.138zm13.547 15.79v.805L29.972 34.67l.465-.254-10.71-12.489z"/><path fill="#DC0032" d="M5.798 6.35l-.466.254 8.213 9.567 1.354.805L5.798 6.35zm13.927 16.214v.804l9.864 11.514.466-.254-10.33-12.064z"/><path fill="#DC0032" d="M5.419 6.562l-.466.254 7.493 8.763 1.355.762-8.382-9.78zm14.308 16.637v.846l9.483 11.091.466-.296-9.949-11.642z"/><path fill="#DC0032" d="M5.036 6.773l-.466.254 6.774 7.917 1.354.762-7.662-8.933zm14.69 17.103v.804l9.143 10.668.466-.296-9.61-11.176z"/><path fill="#DC0032" d="M4.657 6.985l-.466.254 6.054 7.07 1.397.762-6.985-8.086zm15.07 17.526v.804l8.764 10.245.465-.297-9.228-10.752z"/><path fill="#DB0032" d="M4.274 7.197l-.465.254 5.334 6.223 1.397.804-6.266-7.281zm11.091 13.716l1.101 1.27v-.466c0-.085-.085-.212-.17-.254l-.93-.55zm4.36 4.233v.846l8.383 9.78.465-.297-8.847-10.33z"/><path fill="#DC0032" d="M3.895 7.366l-.465.254 4.614 5.419 1.397.804-5.546-6.477zm10.372 12.912l2.201 2.54v-.805l-.804-.931-1.397-.805zm5.46 5.545v.805l8.002 9.355.466-.254-8.467-9.906z"/><path fill="#DC0032" d="M3.513 7.578l-.466.254 3.937 4.614 1.355.762-4.826-5.63zm9.652 12.107l3.302 3.81v-.805l-1.905-2.243-1.397-.762zm6.561 6.773v.804l7.62 8.933.466-.254-8.086-9.483z"/><path fill="#DC0032" d="M3.13 7.79l-.466.253 3.217 3.768 1.355.762L3.13 7.789zm8.974 11.26l4.36 5.08v-.804l-3.005-3.514-1.355-.762zm7.62 8.085v.805l7.282 8.466.465-.254-7.747-9.017z"/><path fill="#DC0032" d="M2.75 8l-.465.255 2.498 2.92 1.354.763L2.751 8zm8.256 10.415l5.46 6.35v-.805l-4.106-4.74-1.354-.805zm8.72 9.355v.805l6.9 8.043.466-.254-7.366-8.594z"/><path fill="#DC0032" d="M2.372 8.213l-.466.254 1.778 2.074 1.355.804-2.667-3.132zm7.535 9.567l6.562 7.662v-.804l-5.207-6.054-1.355-.804zm9.821 10.625v.805l6.52 7.62.465-.254-6.985-8.17z"/><path fill="#DC0032" d="M1.99 8.424l-.467.254 1.059 1.228 1.397.804-1.99-2.286zm6.815 8.763l7.662 8.89v-.804l-6.308-7.324-1.354-.762zm10.922 11.896v.804l6.138 7.154.466-.254-6.604-7.704z"/><path fill="#DC0032" d="M1.61 8.594l-.508.254.38.465 1.398.762-1.27-1.481zm6.096 7.958l8.762 10.202v-.846l-7.365-8.594-1.397-.762zm12.022 13.166v.804l5.757 6.773.466-.296-6.223-7.281z"/><path fill="#DC0032" d="M1.226 8.805l-.296.17.846.465-.55-.635zm5.376 7.112l9.864 11.472v-.804l-8.467-9.863-1.397-.805zm13.123 14.436v.846l5.42 6.308.465-.296-5.884-6.858z"/><path fill="#DC0032" d="M5.547 15.282l10.922 12.742v-.804L6.902 16.087l-1.355-.805zM19.728 31.03v.804l5.038 5.885.466-.297-5.504-6.392z"/><path fill="#DC0032" d="M4.445 14.69l12.023 14.012v-.847L5.8 15.452l-1.355-.762zm15.282 16.975v.804l4.657 5.461.466-.296-5.123-5.969z"/><path fill="#DC0032" d="M3.344 14.055l13.123 15.282v-.805L4.698 14.817l-1.354-.762zM19.727 32.3v.847l4.275 4.995.466-.254-4.741-5.588z"/><path fill="#DB0032" d="M2.242 13.42l14.224 16.552v-.805L3.596 14.224l-1.354-.804zm17.484 19.557v.805l3.894 4.572.466-.254-4.36-5.123z"/><path fill="#DA0032" d="M1.14 12.785l15.325 17.864v-.804L2.495 13.589l-1.354-.804zm18.585 20.827v.805l3.556 4.148.466-.254-4.022-4.699z"/><path fill="#D90032" d="M.043 12.192l16.425 19.092v-.804L1.44 12.954l-1.397-.762zm19.685 22.055v.847l3.175 3.683.466-.254-3.641-4.276z"/><path fill="#D80032" d="M0 12.15v.592L16.468 31.92v-.804L.338 12.319 0 12.149zm19.727 22.775v.508c0 .084-.042.17-.085.211l2.88 3.345.465-.254-3.26-3.81z"/><path fill="#D70032" d="M0 12.573v.847l16.468 19.176v-.804L0 12.572zM19.685 35.56c-.043.17-.17.338-.296.38l-.043.043L22.14 39.2l.466-.254-2.921-3.386z"/><path fill="#D60032" d="M0 13.25v.805L16.468 33.23v-.804L0 13.25zm19.43 22.648c0 .043 0 .043-.041.043l-.424.254 2.794 3.217.466-.254-2.794-3.26z"/><path fill="#D50032" d="M0 13.885v.805l16.468 19.176v-.804L0 13.885zM19.092 36.11l-.508.296 2.837 3.26.465-.296-2.794-3.26z"/><path fill="#D40032" d="M0 14.563v.804l16.468 19.177v-.805L0 14.563zm18.711 21.759l-.296.17c-.085.041-.17.041-.254.041l2.878 3.345.466-.297-2.794-3.26z"/><path fill="#D30032" d="M0 15.198v.804l16.468 19.177v-.805L0 15.198zm17.399 21.124l3.26 3.767.465-.296-2.836-3.26c-.042 0-.127.043-.17.043h-.042c-.127 0-.211-.043-.296-.085l-.381-.17z"/><path fill="#D20032" d="M0 15.833v.846l20.277 23.622.466-.296-3.048-3.556-.931-.508a.587.587 0 0 1-.296-.508v-.424L0 15.833z"/><path fill="#D10032" d="M0 16.51v.804l19.896 23.199.466-.254L0 16.509z"/><path fill="#D00032" d="M0 17.145v.804l19.515 22.775.466-.254L0 17.145z"/><path fill="#CF0032" d="M0 17.78v.847l19.177 22.31.465-.255L0 17.78z"/><path fill="#CE0032" d="M0 18.457v.805l18.796 21.886.466-.254L0 18.457z"/><path fill="#CD0032" d="M0 19.092v.805l18.373 21.42.38-.127.128-.085L0 19.092z"/><path fill="#CC0032" d="M0 19.727v.847l17.822 20.743h.254c.127 0 .254 0 .381-.042L0 19.727z"/><path fill="#CB0032" d="M0 20.404v.805L16.849 40.85l.592.34c.127.084.339.126.508.126L0 20.404z"/><path fill="#CA0032" d="M0 21.04v.804l15.748 18.372 1.397.805L0 21.039z"/><path fill="#C90032" d="M0 21.717v.804l14.647 17.06 1.397.805L0 21.716z"/><path fill="#C80033" d="M0 22.352v.804l13.547 15.79 1.354.805L0 22.35z"/><path fill="#C70033" d="M0 22.987v.804l12.446 14.52 1.355.805L0 22.986z"/><path fill="#C60033" d="M0 23.664v.804l11.303 13.166 1.397.804L0 23.664z"/><path fill="#C50033" d="M0 24.3v.803L10.202 37l1.397.804L0 24.3z"/><path fill="#C40033" d="M0 24.934v.804l9.102 10.626 1.397.804L0 24.934z"/><path fill="#C30033" d="M0 25.611v.805l8 9.313 1.398.804L0 25.611z"/><path fill="#C20033" d="M0 26.247v.804l6.9 8.043 1.397.804L0 26.246z"/><path fill="#C10033" d="M0 26.881v.847l5.8 6.731 1.354.804L0 26.881z"/><path fill="#C00033" d="M0 27.559v.804l4.657 5.461 1.397.804L0 27.558z"/><path fill="#BF0033" d="M0 28.194v.804l3.556 4.191 1.397.762L0 28.194z"/><path fill="#BE0033" d="M0 28.829v.846l2.455 2.837 1.397.804L0 28.83z"/><path fill="#BD0033" d="M0 29.506v.804l1.355 1.567 1.397.804L0 29.506z"/><path fill="#BC0033" d="M0 30.141v.212c0 .423.296.931.635 1.143l1.016.55L0 30.141z"/><path fill="#B03" d="M.254 31.115c.085.084.127.17.212.211l-.212-.211z"/></g><defs><clipPath id="clip0_1241_71247"><path fill="#fff" d="M0 0h100v42H0z"/></clipPath></defs></svg>