<svg xmlns="http://www.w3.org/2000/svg" fill="none" viewBox="0 0 32 32"><path stroke="#1A1A1A" stroke-linecap="round" d="M4.5 27.5h23M4.5 24.833h23"/><path fill="#1A1A1A" d="M4.487 3.888a.5.5 0 0 0-.974.224l.974-.224zM8 21.333l-.487.113.09.387H8v-.5zm16 0v.5h.398l.09-.387-.488-.113zm4.487-17.22a.5.5 0 0 0-.974-.225l.974.224zM10 5.332l.014-.5-.014.5zm12 0l.015.5-.015-.5zm-14 16.5h16v-1H8v1zM3.513 4.113l.923 4 .974-.225-.923-4-.974.224zm.923 4l3.077 13.333.974-.225L5.41 7.888l-.974.224zM4.923 8l.362.345v-.001c.002 0 .003-.002.005-.004a3.175 3.175 0 0 1 .1-.1 11.952 11.952 0 0 1 1.432-1.19c.94-.663 2.096-1.248 3.164-1.217l.028-1c-1.404-.04-2.787.708-3.767 1.398A12.954 12.954 0 0 0 4.57 7.645l-.007.007-.002.002-.001.001.362.345zm5.063-2.167c.985.029 1.778.588 2.722 1.265C13.604 7.741 14.65 8.5 16 8.5v-1c-.979 0-1.77-.54-2.709-1.214-.892-.64-1.934-1.414-3.277-1.452l-.028 1zM16 8.5c1.35 0 2.396-.76 3.292-1.402.944-.677 1.737-1.236 2.723-1.265l-.03-1c-1.342.04-2.384.813-3.276 1.453C17.769 6.96 16.979 7.5 16 7.5v1zm8.487 12.946l3.077-13.334-.974-.224-3.077 13.333.974.225zm3.077-13.334l.923-4-.974-.224-.923 4 .974.224zm-5.55-2.279c1.068-.03 2.224.554 3.164 1.216a11.94 11.94 0 0 1 1.532 1.29l.004.005.363-.344.362-.345h-.001l-.002-.003-.007-.007a3.782 3.782 0 0 0-.118-.12 12.957 12.957 0 0 0-1.557-1.295c-.981-.689-2.364-1.437-3.769-1.396l.03 1zM12.047 12.974h.75c.291 0 .533-.05.724-.151.194-.1.338-.24.432-.417.094-.177.14-.38.14-.61 0-.239-.043-.444-.13-.614a.878.878 0 0 0-.385-.4c-.17-.095-.387-.141-.65-.141-.223 0-.425.045-.605.135a1.026 1.026 0 0 0-.422.375c-.104.16-.156.35-.156.573h-1.26c0-.403.105-.76.317-1.073.212-.312.5-.557.865-.734.368-.18.78-.271 1.24-.271.489 0 .916.081 1.28.245.369.16.655.399.86.718.205.32.307.716.307 1.188 0 .215-.05.434-.15.656-.102.222-.25.426-.449.61-.198.18-.444.328-.74.442a2.9 2.9 0 0 1-1.025.167h-.943v-.698zm0 .98v-.688h.943c.444 0 .822.052 1.135.156.316.104.573.248.77.432.199.18.343.387.433.62.094.233.14.48.14.74 0 .354-.063.67-.192.947a1.923 1.923 0 0 1-.536.698 2.394 2.394 0 0 1-.818.433c-.31.097-.646.145-1.01.145-.327 0-.64-.045-.938-.135a2.557 2.557 0 0 1-.802-.4 1.99 1.99 0 0 1-.563-.673 2.07 2.07 0 0 1-.203-.937h1.255c0 .225.053.425.157.599.107.17.257.304.448.4.194.098.416.146.666.146.264 0 .492-.046.683-.14a.977.977 0 0 0 .437-.417c.104-.184.156-.406.156-.666 0-.296-.057-.535-.171-.72a1.011 1.011 0 0 0-.49-.405 1.903 1.903 0 0 0-.75-.136h-.75zM21.578 12.906v1.24c0 .594-.059 1.1-.177 1.52-.114.417-.281.756-.5 1.016-.219.26-.48.452-.786.573-.302.122-.641.183-1.016.183-.299 0-.576-.039-.833-.115a2.037 2.037 0 0 1-1.214-.99 3.526 3.526 0 0 1-.333-.932 6.113 6.113 0 0 1-.115-1.255v-1.24c0-.597.06-1.1.177-1.51.118-.413.287-.748.506-1.005.218-.26.479-.45.78-.568a2.812 2.812 0 0 1 1.021-.177c.303 0 .58.038.834.114a1.952 1.952 0 0 1 1.208.974c.146.254.257.561.334.922.076.358.114.775.114 1.25zm-1.255 1.417v-1.604c0-.302-.017-.568-.052-.797a2.362 2.362 0 0 0-.156-.589 1.174 1.174 0 0 0-.25-.396.88.88 0 0 0-.344-.223 1.214 1.214 0 0 0-.433-.073 1.15 1.15 0 0 0-.52.114.937.937 0 0 0-.386.354 1.935 1.935 0 0 0-.24.646 5.066 5.066 0 0 0-.077.964v1.604c0 .306.017.575.052.807.034.233.086.432.156.6.07.162.153.298.25.405.1.105.215.181.344.23.132.048.276.073.432.073.198 0 .373-.039.526-.115a.966.966 0 0 0 .385-.365c.105-.17.183-.39.235-.661.052-.27.078-.596.078-.974z"/></svg>