<svg xmlns="http://www.w3.org/2000/svg" fill="none" viewBox="0 0 32 32"><path stroke="#1A1A1A" stroke-linecap="round" d="M28 28L4 4m0 24L28 4"/><path stroke="#1A1A1A" d="M10.667 26h10.666a2 2 0 0 0 2-2v-9.747a2 2 0 0 0-2-2h-.484c-.99 0-1.793-.803-1.793-1.793 0-.99-.803-1.793-1.794-1.793h-6.595a2 2 0 0 0-2 2V24a2 2 0 0 0 2 2zM11.333 6.889c0-.491.448-.889 1-.889h2c.553 0 1 .398 1 .889v.889c0 .49-.447.889-1 .889h-2c-.552 0-1-.398-1-.89V6.89z"/><circle cx="16" cy="18.667" r="4" stroke="#1A1A1A"/></svg>