<svg xmlns="http://www.w3.org/2000/svg" fill="none" viewBox="0 0 32 32"><path stroke="#111" stroke-dasharray="4 2" stroke-linecap="round" stroke-linejoin="round" d="M4.667 13.5V7.25c0-.332.132-.65.369-.884.236-.234.556-.366.89-.366h5.037c0 1.25 1.007 3.75 5.037 3.75s5.037-2.5 5.037-3.75h5.037c.334 0 .654.132.89.366.237.235.37.552.37.884v6.25c0 .332-.133.65-.37.884a1.264 1.264 0 0 1-.89.366h-1.26c-.333 0-.654.132-.89.366a1.245 1.245 0 0 0-.368.884v8.75c0 .331-.133.65-.37.884a1.264 1.264 0 0 1-.89.366H9.704c-.334 0-.655-.132-.89-.366a1.245 1.245 0 0 1-.37-.884V16c0-.332-.132-.65-.368-.884a1.264 1.264 0 0 0-.89-.366h-1.26c-.334 0-.654-.132-.89-.366a1.245 1.245 0 0 1-.37-.884z"/></svg>