<svg xmlns="http://www.w3.org/2000/svg" fill="none" viewBox="0 0 32 32"><path fill="#1A1A1A" d="M5.82 10.554a.5.5 0 0 0-.974.226l.974-.226zM8.89 26l-.487.113.09.387h.397V26zm14.222 0v.5h.397l.09-.387-.487-.113zm4.043-15.22a.5.5 0 1 0-.974-.226l.974.226zm-16.502 1.566a.5.5 0 1 0 .03-1l-.03 1zm10.667-1a.5.5 0 0 0 .029 1l-.03-1zM8.889 26.5H23.11v-1H8.89v1zM4.846 10.78l.82 3.538.975-.226-.82-3.538-.975.226zm.82 3.538l2.736 11.795.974-.226-2.735-11.795-.974.226zm.488-.113l.361.346.004-.005a8.263 8.263 0 0 1 .088-.087 10.548 10.548 0 0 1 1.266-1.047c.833-.584 1.849-1.093 2.78-1.066l.028-1c-1.267-.036-2.508.634-3.382 1.246a11.546 11.546 0 0 0-1.474 1.235l-.023.023a.719.719 0 0 1-.007.006l-.002.002v.001l.36.346zm17.444 11.908l2.735-11.795-.974-.226-2.735 11.795.974.226zm2.735-11.795l.82-3.538-.973-.226-.82 3.538.973.226zm-4.985-1.972c.93-.027 1.946.482 2.779 1.065a10.564 10.564 0 0 1 1.354 1.135l.003.004c.001 0 .001 0 0 0l.362-.345c.362-.345.361-.345.361-.346l-.003-.003-.006-.006-.023-.023a10.105 10.105 0 0 0-.391-.37c-.262-.237-.636-.551-1.083-.865-.874-.612-2.115-1.282-3.382-1.246l.029 1z"/><path stroke="#1A1A1A" stroke-linecap="round" stroke-linejoin="round" d="M11.605 14.775l.67-1.748c-.268.7-.917.65-1.22.534a.921.921 0 0 1-.527-1.205l1.678-4.368c.895-2.33 3.168-2.794 5.42-1.929 2.251.865 2.802 1.745 3.431 5.328l.332 1.869a.977.977 0 0 1-1.03 1.15 1.033 1.033 0 0 1-.936-.728l-.667-1.86m-7.151 2.957a.921.921 0 0 0 .526 1.204c.295.114.953.166 1.22-.533m-1.746-.671l1.23-3.204m.517 3.875l-.447 1.165a.921.921 0 0 0 .526 1.205.942.942 0 0 0 1.22-.534l.448-1.165m-1.747-.671l1.23-3.204m.517 3.875c-.268.699.243 1.096.538 1.21a.942.942 0 0 0 1.214-.55l1.897-4.94m-3.649 4.28l1.23-3.204"/><path stroke="#1A1A1A" stroke-linecap="round" d="M28 28L4 4m0 24L28 4"/></svg>